<svg id="nodejs-seeklogo.com" xmlns="http://www.w3.org/2000/svg" width="93.183" height="105" viewBox="0 0 93.183 105">
  <path id="Path_2385" data-name="Path 2385" d="M46.592,105a8.459,8.459,0,0,1-4.051-1.061l-12.83-7.621c-1.929-1.061-.965-1.447-.386-1.64a23.358,23.358,0,0,0,5.788-2.6.887.887,0,0,1,.965.1l9.839,5.884a1.226,1.226,0,0,0,1.158,0L85.563,75.772a1.108,1.108,0,0,0,.579-1.061V30.241a1.108,1.108,0,0,0-.579-1.061L47.074,6.994a1.226,1.226,0,0,0-1.158,0L7.428,29.18a1.21,1.21,0,0,0-.579,1.061v44.47a1.21,1.21,0,0,0,.579,1.061l10.514,6.077c5.691,2.894,9.26-.482,9.26-3.858V34.1a1.173,1.173,0,0,1,1.158-1.158h4.92A1.173,1.173,0,0,1,34.437,34.1V77.99c0,7.621-4.148,12.058-11.383,12.058-2.219,0-3.955,0-8.875-2.411L4.051,81.849A8.141,8.141,0,0,1,0,74.807V30.338A8.141,8.141,0,0,1,4.051,23.3L42.54,1.013a8.609,8.609,0,0,1,8.1,0L89.132,23.3a8.141,8.141,0,0,1,4.051,7.042v44.47a8.141,8.141,0,0,1-4.051,7.042L50.643,104.132a9.873,9.873,0,0,1-4.051.868ZM58.456,74.421C41.575,74.421,38.1,66.7,38.1,60.145a1.173,1.173,0,0,1,1.158-1.158h5.016a.991.991,0,0,1,1.061.965c.772,5.112,2.99,7.621,13.215,7.621,8.1,0,11.576-1.833,11.576-6.174,0-2.508-.965-4.341-13.6-5.595-10.514-1.061-17.074-3.376-17.074-11.768,0-7.813,6.56-12.444,17.556-12.444,12.347,0,18.424,4.244,19.2,13.5a1.556,1.556,0,0,1-.289.868,1.191,1.191,0,0,1-.772.386H70.129a1.13,1.13,0,0,1-1.061-.868c-1.158-5.305-4.148-7.042-12.058-7.042-8.875,0-9.936,3.087-9.936,5.4,0,2.8,1.254,3.666,13.215,5.209,11.865,1.543,17.46,3.762,17.46,12.058-.1,8.489-7.042,13.312-19.293,13.312Z" fill="silver"/>
</svg>
