<svg id="Group_150" data-name="Group 150" xmlns="http://www.w3.org/2000/svg" width="107.538" height="107.311" viewBox="0 0 107.538 107.311">
  <path id="rating_1_" data-name="rating (1)" d="M36.619,65.741a4.2,4.2,0,0,0,5.827-1.155,36.536,36.536,0,0,1,60.655-.074,4.2,4.2,0,0,0,6.971-4.69,44.833,44.833,0,0,0-22.1-17.2,23.733,23.733,0,1,0-30.1-.094,44.821,44.821,0,0,0-22.41,17.388A4.2,4.2,0,0,0,36.619,65.741ZM72.981,8.9A15.333,15.333,0,1,1,57.649,24.234,15.35,15.35,0,0,1,72.981,8.9Z" transform="translate(-19.212 -0.5)" fill="#2b225c"/>
  <path id="rating_1_2" data-name="rating (1)" d="M70.521,147.317l-6.262,4.518a2.629,2.629,0,0,0-.966,2.951l2.522,7.31a2.651,2.651,0,0,1,.134.947,2.769,2.769,0,0,1-4.354,2l-6.262-4.519a2.674,2.674,0,0,0-3.125,0l-6.262,4.519a2.768,2.768,0,0,1-4.355-2,2.693,2.693,0,0,1,.137-.947l2.52-7.31a2.629,2.629,0,0,0-.966-2.951l-6.262-4.518a2.833,2.833,0,0,1,1.563-5.068H46.32a2.419,2.419,0,0,0,2.528-1.531l2.392-7.357a2.664,2.664,0,0,1,5.057,0l2.392,7.357a2.419,2.419,0,0,0,2.528,1.531h7.741A2.833,2.833,0,0,1,70.521,147.317Zm35.916,14.7-6.262,4.518a2.629,2.629,0,0,0-.966,2.951l2.522,7.31a2.65,2.65,0,0,1,.134.947,2.769,2.769,0,0,1-4.354,2l-6.262-4.519a2.674,2.674,0,0,0-3.125,0l-6.262,4.519a2.768,2.768,0,0,1-4.355-2,2.693,2.693,0,0,1,.137-.947l2.52-7.31a2.629,2.629,0,0,0-.966-2.951l-6.262-4.518a2.833,2.833,0,0,1,1.563-5.068h7.741a2.419,2.419,0,0,0,2.528-1.531l2.392-7.357a2.664,2.664,0,0,1,5.057,0l2.392,7.357a2.419,2.419,0,0,0,2.528,1.531h7.741A2.833,2.833,0,0,1,106.437,162.02Zm-71.832,0-6.262,4.518a2.629,2.629,0,0,0-.966,2.951L29.9,176.8a2.65,2.65,0,0,1,.134.947,2.769,2.769,0,0,1-4.354,2l-6.262-4.519a2.674,2.674,0,0,0-3.125,0l-6.262,4.519a2.768,2.768,0,0,1-4.355-2,2.692,2.692,0,0,1,.137-.947l2.52-7.31a2.629,2.629,0,0,0-.966-2.951L1.1,162.02a2.833,2.833,0,0,1,1.563-5.068H10.4a2.419,2.419,0,0,0,2.528-1.531l2.392-7.357a2.664,2.664,0,0,1,5.057,0l2.392,7.357a2.419,2.419,0,0,0,2.528,1.531h7.741A2.833,2.833,0,0,1,34.6,162.02Z" transform="translate(0 -72.954)" fill="#02bf8c"/>
</svg>
