<svg id="avocode-inc" xmlns="http://www.w3.org/2000/svg" width="173.045" height="39.546" viewBox="0 0 173.045 39.546">
  <path id="Path_2206" data-name="Path 2206" d="M14.83,0C7.25,0,0,14.006,0,24.716a14.83,14.83,0,0,0,29.659,0C29.659,14.006,22.409,0,14.83,0Zm0,32.131a7.426,7.426,0,0,1-7.415-7.415c0-5.5,3.757-12.358,7.415-12.358s7.415,6.855,7.415,12.358A7.426,7.426,0,0,1,14.83,32.131Z" fill="silver"/>
  <path id="Path_2207" data-name="Path 2207" d="M140.094,43.5H137.03l-.264-1.78a6.214,6.214,0,0,1-5.108,2.142,6.8,6.8,0,0,1-4.811-1.615,5.4,5.4,0,0,1-1.747-4.218,5.415,5.415,0,0,1,1.813-4.251,6.878,6.878,0,0,1,4.844-1.681,6.076,6.076,0,0,1,4.515,1.648V32.165a4.849,4.849,0,0,0-1.153-3.493,4.279,4.279,0,0,0-3.23-1.186,10.154,10.154,0,0,0-2.472.3,6.7,6.7,0,0,0-1.681.593l-.56.3-.989-3c.165-.132.428-.264.725-.461a12.592,12.592,0,0,1,2.109-.692,13.353,13.353,0,0,1,3.493-.428,7.5,7.5,0,0,1,5.569,2.01,7.778,7.778,0,0,1,2.01,5.767Zm-4.68-3.361a2.979,2.979,0,0,0,0-4.548,4.2,4.2,0,0,0-2.8-.89,3.987,3.987,0,0,0-2.7.89,2.979,2.979,0,0,0,0,4.548,3.987,3.987,0,0,0,2.7.89A4.26,4.26,0,0,0,135.415,40.14Zm7.349-15.686h4.086l4.185,13.577,4.185-13.577h3.856L152.65,43.468h-3.526Zm18.817,7.184a7.271,7.271,0,0,1,2.142-5.5A8.486,8.486,0,0,1,174.73,26.1a7.251,7.251,0,0,1,2.076,5.438v4.745a7.347,7.347,0,0,1-2.142,5.536,7.7,7.7,0,0,1-5.536,2.043,7.586,7.586,0,0,1-5.47-1.977,7.159,7.159,0,0,1-2.043-5.47V31.638Zm3.79,4.647a4.268,4.268,0,0,0,1.055,3.065,3.555,3.555,0,0,0,2.768,1.12,3.484,3.484,0,0,0,2.735-1.12,4.379,4.379,0,0,0,1.055-3.065V31.638a4.379,4.379,0,0,0-1.055-3.065,3.939,3.939,0,0,0-5.5,0,4.379,4.379,0,0,0-1.055,3.065Zm27.319-.1h3.658v.4a7.024,7.024,0,0,1-2.043,5.273,8.2,8.2,0,0,1-10.644.033,7.007,7.007,0,0,1-2.01-5.339V31.473a7.1,7.1,0,0,1,2.076-5.372,7.447,7.447,0,0,1,5.339-2.01,7.328,7.328,0,0,1,5.273,1.944,6.9,6.9,0,0,1,2.01,5.273v.33H192.69v-.231a4.1,4.1,0,0,0-.989-2.867,3.7,3.7,0,0,0-5.24,0,4.157,4.157,0,0,0-.989,2.933v5.009a4.157,4.157,0,0,0,.989,2.933,3.74,3.74,0,0,0,5.24.033,3.958,3.958,0,0,0,.989-2.834Zm8.568-4.548a7.271,7.271,0,0,1,2.142-5.5,8.486,8.486,0,0,1,11.007-.033,7.251,7.251,0,0,1,2.076,5.438v4.745a7.347,7.347,0,0,1-2.142,5.536,7.7,7.7,0,0,1-5.536,2.043,7.586,7.586,0,0,1-5.47-1.977,7.159,7.159,0,0,1-2.043-5.47V31.638Zm3.79,4.647a4.268,4.268,0,0,0,1.055,3.065,3.555,3.555,0,0,0,2.768,1.12,3.484,3.484,0,0,0,2.735-1.12,4.379,4.379,0,0,0,1.055-3.065V31.638a4.378,4.378,0,0,0-1.055-3.065,3.939,3.939,0,0,0-5.5,0,4.379,4.379,0,0,0-1.055,3.065ZM236.586,43.5h-3.328l-.2-2.241a5.653,5.653,0,0,1-5.108,2.6,6.33,6.33,0,0,1-4.811-1.845,7.193,7.193,0,0,1-1.747-5.141V31.209a7.24,7.24,0,0,1,1.813-5.24,6.429,6.429,0,0,1,4.877-1.878,5.608,5.608,0,0,1,4.713,2.142V17.5h3.823v26Zm-3.823-11.864a4.379,4.379,0,0,0-1.055-3.065,3.939,3.939,0,0,0-5.5,0,4.379,4.379,0,0,0-1.055,3.065v4.647a4.268,4.268,0,0,0,1.055,3.065,3.555,3.555,0,0,0,2.768,1.12,3.484,3.484,0,0,0,2.735-1.12,4.379,4.379,0,0,0,1.055-3.065ZM256.82,37.47q-.049.247-.1.692a9.648,9.648,0,0,1-1.681,3.46,6.654,6.654,0,0,1-2.208,1.549,8.106,8.106,0,0,1-3.46.692,7.586,7.586,0,0,1-5.47-1.977,7.159,7.159,0,0,1-2.043-5.47V31.638a7.271,7.271,0,0,1,2.142-5.5,7.539,7.539,0,0,1,5.5-2.043,7.233,7.233,0,0,1,5.372,2.01,7.358,7.358,0,0,1,2.043,5.438v2.735h-11.27v2.01a4.268,4.268,0,0,0,1.055,3.065,3.555,3.555,0,0,0,2.768,1.12,3.691,3.691,0,0,0,1.747-.4,2.706,2.706,0,0,0,1.12-.956,8.842,8.842,0,0,0,.593-1.088,2.33,2.33,0,0,0,.264-.956l.033-.363Zm-11.2-5.7h7.613v-.494a4.379,4.379,0,0,0-1.055-3.065,3.939,3.939,0,0,0-5.5,0,4.379,4.379,0,0,0-1.055,3.065Z" transform="translate(-83.874 -11.733)" fill="silver"/>
</svg>
