<svg xmlns="http://www.w3.org/2000/svg" width="105" height="104.995" viewBox="0 0 105 104.995">
  <g id="rotation" transform="translate(0 -0.011)">
    <g id="Page-1_30_" transform="translate(0 0.011)">
      <g id="_x30_31---Rotate-Video" transform="translate(0 0)">
        <g id="Group_593" data-name="Group 593">
          <path id="Path_162_" d="M7.241,215.494v4.1a1.81,1.81,0,0,1-1.653,1.81l-3.62.317A1.81,1.81,0,0,1,0,219.919v-4.424a3.631,3.631,0,0,1,3.62-3.62,3.539,3.539,0,0,1,2.552,1.068,3.539,3.539,0,0,1,1.068,2.552Z" transform="translate(0 -168.427)" fill="#2b225c" fill-rule="evenodd"/>
          <path id="Path_161_" d="M12.278,302.188l-3.3,1.535A1.81,1.81,0,0,1,6.512,302.7a51,51,0,0,1-1.855-6.879A1.81,1.81,0,0,1,6.286,293.7l3.649-.319a1.81,1.81,0,0,1,1.926,1.475,42.337,42.337,0,0,0,1.354,5.094,1.81,1.81,0,0,1-.938,2.236Z" transform="translate(-3.679 -233.217)" fill="#2b225c" fill-rule="evenodd"/>
          <path id="Path_160_" d="M45.322,375.174l-2.569,2.569a1.811,1.811,0,0,1-2.67-.1,51.52,51.52,0,0,1-4.073-5.809,1.81,1.81,0,0,1,.8-2.551l3.3-1.544a1.81,1.81,0,0,1,2.315.724,43.788,43.788,0,0,0,3.025,4.292A1.81,1.81,0,0,1,45.322,375.174Z" transform="translate(-28.431 -292.193)" fill="#2b225c" fill-rule="evenodd"/>
          <path id="Path_159_" d="M102.777,432.827l-1.544,3.3a1.81,1.81,0,0,1-2.551.8,51.5,51.5,0,0,1-5.809-4.073,1.81,1.81,0,0,1-.114-2.67l2.569-2.569a1.811,1.811,0,0,1,2.419-.116,43.8,43.8,0,0,0,4.312,3.016A1.81,1.81,0,0,1,102.777,432.827Z" transform="translate(-73.313 -339.507)" fill="#2b225c" fill-rule="evenodd"/>
          <path id="Path_158_" d="M177.836,468.4l-.319,3.649a1.81,1.81,0,0,1-2.123,1.629,51.034,51.034,0,0,1-6.879-1.855,1.81,1.81,0,0,1-1.019-2.467l1.54-3.3a1.81,1.81,0,0,1,2.234-.938,42.33,42.33,0,0,0,5.094,1.354,1.81,1.81,0,0,1,1.472,1.926Z" transform="translate(-133.012 -369.656)" fill="#2b225c" fill-rule="evenodd"/>
          <path id="Path_157_" d="M262.46,479.17a1.81,1.81,0,0,1-1.423,2.256q-2.335.38-4.734.53-1.195.076-2.371.1a1.81,1.81,0,0,1-1.8-1.975l.319-3.631a1.821,1.821,0,0,1,1.78-1.651c1.267-.038,2.562-.134,3.867-.273.487-.052.972-.112,1.448-.181a1.792,1.792,0,0,1,1.975,1.329Z" transform="translate(-200.42 -377.058)" fill="#2b225c" fill-rule="evenodd"/>
          <path id="Path_156_" d="M341.543,455.415a49.872,49.872,0,0,1-6.437,3.036,1.81,1.81,0,0,1-2.373-1.236l-.93-3.479a1.81,1.81,0,0,1,1.108-2.151,41.574,41.574,0,0,0,4.772-2.241,1.81,1.81,0,0,1,2.373.529l2.056,2.938a1.81,1.81,0,0,1-.568,2.6Z" transform="translate(-263.713 -357.011)" fill="#2b225c" fill-rule="evenodd"/>
          <path id="Path_155_" d="M409.585,404.586a52.8,52.8,0,0,1-5.011,5.011,1.81,1.81,0,0,1-2.654-.346l-2.047-2.922a1.81,1.81,0,0,1,.306-2.4,43.355,43.355,0,0,0,3.736-3.736,1.81,1.81,0,0,1,2.4-.3l2.92,2.047a1.81,1.81,0,0,1,.348,2.654Z" transform="translate(-317.615 -317.626)" fill="#2b225c" fill-rule="evenodd"/>
          <path id="Path_154_" d="M458.461,335.117a49.883,49.883,0,0,1-3.036,6.437,1.81,1.81,0,0,1-2.6.568l-2.933-2.056a1.81,1.81,0,0,1-.529-2.373,41.593,41.593,0,0,0,2.241-4.772,1.81,1.81,0,0,1,2.151-1.108l3.479.93a1.81,1.81,0,0,1,1.231,2.373Z" transform="translate(-357.021 -263.724)" fill="#2b225c" fill-rule="evenodd"/>
          <path id="Path_153_" d="M139.971,55.894q-.152,2.4-.531,4.734a1.81,1.81,0,0,1-2.252,1.423l-3.5-.934a1.792,1.792,0,0,1-1.327-1.975c.071-.483.13-.969.181-1.448A45.256,45.256,0,0,0,56.19,19.924H67.443a3.784,3.784,0,0,1,3.793,3.007,3.62,3.62,0,0,1-3.568,4.234H47.754a3.631,3.631,0,0,1-3.62-3.62V3.856A3.78,3.78,0,0,1,47.141.065a3.621,3.621,0,0,1,4.234,3.566v10.9a52.474,52.474,0,0,1,88.6,41.365Z" transform="translate(-35.082 -0.011)" fill="#2b225c" fill-rule="evenodd"/>
          <path id="Path_152_" d="M231.083,212.068c-.706-.52-1.566.1-1.566,1v15.731c0,.905.869,1.51,1.566,1l10.632-7.866a1.28,1.28,0,0,0,0-1.991Z" transform="translate(-182.45 -168.431)" fill="#02bf8c" fill-rule="evenodd"/>
        </g>
        <path id="Shape_88_" d="M171.792,150.081a21.723,21.723,0,1,0,15.361,6.362A21.723,21.723,0,0,0,171.792,150.081Zm8.921,25.628-10.632,7.862a4.5,4.5,0,0,1-4.732.411,4.785,4.785,0,0,1-2.609-4.312V163.939a4.784,4.784,0,0,1,2.609-4.316,4.505,4.505,0,0,1,4.732.411l10.632,7.866a4.9,4.9,0,0,1,0,7.809Z" transform="translate(-119.294 -119.306)" fill="#02bf8c"/>
      </g>
    </g>
  </g>
</svg>
