<svg id="_24-hours" data-name="24-hours" xmlns="http://www.w3.org/2000/svg" width="107.328" height="107.328" viewBox="0 0 107.328 107.328">
  <path id="Path_286" data-name="Path 286" d="M274.535.018a3.144,3.144,0,0,0-.78,6.239,47.511,47.511,0,0,1,12.4,3.713,3.146,3.146,0,0,0,2.444-5.8A53.949,53.949,0,0,0,274.535.018Z" transform="translate(-214.193 0)" fill="#2b225c"/>
  <path id="Path_287" data-name="Path 287" d="M400.768,64.11a3.144,3.144,0,0,0,.6-4.407A53.654,53.654,0,0,0,391.089,49.42a3.145,3.145,0,1,0-3.8,5.011,47.213,47.213,0,0,1,9.074,9.074A3.147,3.147,0,0,0,400.768,64.11Z" transform="translate(-305.119 -38.556)" fill="#2b225c"/>
  <path id="Path_288" data-name="Path 288" d="M464.183,147.151a3.148,3.148,0,0,0-1.677,4.121c1.67,3.958,3.385,8.338,3.916,12.606a3.144,3.144,0,0,0,6.24-.78c-.6-4.836-2.467-9.778-4.358-14.27A3.157,3.157,0,0,0,464.183,147.151Z" transform="translate(-365.359 -116.113)" fill="#2b225c"/>
  <path id="Path_289" data-name="Path 289" d="M149.813,4.173a3.146,3.146,0,0,0,2.444,5.8,47.508,47.508,0,0,1,12.4-3.713,3.144,3.144,0,1,0-.78-6.239,53.949,53.949,0,0,0-14.061,4.155Z" transform="translate(-116.889 0)" fill="#2b225c"/>
  <path id="Path_290" data-name="Path 290" d="M53.664,150.8c26.911,0,50.314-20.32,53.639-46.985a3.144,3.144,0,0,0-6.239-.78c-2.936,23.528-23.654,41.476-47.4,41.476A47.146,47.146,0,0,1,18.237,66v1.041a3.144,3.144,0,0,0,6.289,0V58.145A3.143,3.143,0,0,0,21.382,55h-8.9a3.143,3.143,0,1,0,0,6.287H14A53.448,53.448,0,0,0,53.664,150.8Z" transform="translate(0 -43.471)" fill="#2b225c"/>
  <path id="Path_291" data-name="Path 291" d="M75,112.943A37.942,37.942,0,1,0,112.942,75,38.133,38.133,0,0,0,75,112.943Zm41.086-12.577a3.144,3.144,0,0,1,6.289,0V109.8h6.289v-9.433a3.144,3.144,0,0,1,6.289,0V125.52a3.144,3.144,0,1,1-6.289,0v-9.433h-9.433a3.143,3.143,0,0,1-3.144-3.144Zm-15.722,3.144a3.147,3.147,0,0,0-3.144,3.144,3.144,3.144,0,0,1-6.289,0,9.433,9.433,0,0,1,18.866,0c0,6.289-4.185,9.427-7.548,11.948a16.976,16.976,0,0,0-4.032,3.774h8.435a3.144,3.144,0,0,1,0,6.289H94.076a3.143,3.143,0,0,1-3.144-3.144c0-6.289,4.185-9.427,7.548-11.948,3.212-2.41,5.03-3.921,5.03-6.918A3.146,3.146,0,0,0,100.365,103.51Z" transform="translate(-59.278 -59.279)" fill="#02bf8c"/>
</svg>
