<svg id="Nike_logo" data-name="Nike logo" xmlns="http://www.w3.org/2000/svg" width="76.561" height="39.999" viewBox="0 0 76.561 39.999">
  <path id="Path_2158" data-name="Path 2158" d="M200.365,307.941a1.047,1.047,0,1,0,1.086,1.048A1.035,1.035,0,0,0,200.365,307.941Zm0,1.793a.747.747,0,1,1,.756-.746A.738.738,0,0,1,200.365,309.734Z" transform="translate(-187.531 -283.455)" fill="silver"/>
  <path id="Path_2159" data-name="Path 2159" d="M200.629,121.239h-5.284l.6-9.185-3.432,9.185h-4.907l7.786-20.76h5.221l-.6,9.31,3.5-9.31h4.907Z" transform="translate(-177.233 -100.416)" fill="silver"/>
  <path id="Path_2160" data-name="Path 2160" d="M303.634,121.239l7.786-20.76h4.907l-7.786,20.76Z" transform="translate(-279.602 -100.416)" fill="silver"/>
  <path id="Path_2161" data-name="Path 2161" d="M109.3,206.881c-6.857,8.052-13.325,18.766-7.612,23.7,5.536,4.781,12.456,1.95,17.174.063s56.869-24.534,56.869-24.534c.5-.252.409-.566-.22-.409-.254.063-56.775,15.381-56.775,15.381C111.562,223.1,103.383,218.708,109.3,206.881Z" transform="translate(-99.489 -193.214)" fill="silver"/>
  <path id="Path_2162" data-name="Path 2162" d="M205.359,312.693a.262.262,0,0,0,.271-.3c0-.271-.178-.34-.474-.34h-.426v1.126h.284V312.7h.048l.259.479h.327Zm-.183-.183h-.162v-.261h.137c.084,0,.18.01.18.119S205.275,312.51,205.176,312.51Z" transform="translate(-192.341 -287.085)" fill="silver"/>
  <path id="Path_2163" data-name="Path 2163" d="M619.365,99.941a1.047,1.047,0,1,0,1.086,1.048A1.035,1.035,0,0,0,619.365,99.941Zm0,1.793a.747.747,0,1,1,.756-.746A.738.738,0,0,1,619.365,101.734Z" transform="translate(-557.206 -99.941)" fill="silver"/>
  <path id="Path_2164" data-name="Path 2164" d="M624.358,104.693a.262.262,0,0,0,.271-.3c0-.271-.178-.34-.474-.34h-.426v1.126h.284V104.7h.048l.259.479h.327Zm-.183-.183h-.162v-.261h.137c.084,0,.18.01.18.119S624.274,104.51,624.175,104.51Z" transform="translate(-562.014 -103.572)" fill="silver"/>
  <path id="Path_2165" data-name="Path 2165" d="M381.842,103.939l1.319-3.46H368.188l-5.141,6.228,2.373-6.228h-4.97l-7.723,20.76h4.907l3.3-8.681.226,8.681,15.056-.033,1.433-3.993h-5.725l1.881-5.033h4.718l1.452-3.869h-4.718l1.618-4.372Zm-15.816,15.916-.314-10.82,7.419-8.145Z" transform="translate(-322.916 -100.416)" fill="silver"/>
</svg>
