<svg xmlns="http://www.w3.org/2000/svg" width="105" height="104" viewBox="0 0 105 104">
  <g id="Group_151" data-name="Group 151" transform="translate(251 -4459)">
    <path id="Exclusion_2" data-name="Exclusion 2" d="M36.7,42.507H17.129A17.044,17.044,0,0,1,0,25.588,16.778,16.778,0,0,1,4.232,14.464a17.2,17.2,0,0,1,10.45-5.624V1.417a2.411,2.411,0,0,1,1.51-2.234,2.473,2.473,0,0,1,2.667.524l9.071,8.96H36.7A17.128,17.128,0,0,1,54,25.588,17.128,17.128,0,0,1,36.7,42.507Zm0-18.337a2.417,2.417,0,1,0,2.447,2.417A2.435,2.435,0,0,0,36.7,24.17Zm-9.787,0a2.417,2.417,0,1,0,2.447,2.417A2.435,2.435,0,0,0,26.916,24.17Zm-9.788,0a2.417,2.417,0,1,0,2.446,2.417A2.435,2.435,0,0,0,17.129,24.17Z" transform="translate(-197.004 4501.507) rotate(180)" fill="#02bf8c"/>
    <g id="job-interview" transform="translate(-250.999 4458)">
      <path id="Path_296" data-name="Path 296" d="M101.923,74.967h-1.867v-.219A19.461,19.461,0,0,0,90.115,57.73a14.608,14.608,0,1,0-19.219,0,19.467,19.467,0,0,0-9.941,17.018v.219H33.737a17.07,17.07,0,0,0-20.376,27.392A24.518,24.518,0,0,0,0,124.172v3.295a3.076,3.076,0,0,0,3.076,3.076H45.91a3.076,3.076,0,0,0,3.076-3.076v-3.295a24.432,24.432,0,0,0-.964-6.808H98.847v3.514a3.076,3.076,0,0,0,6.152,0V78.043a3.076,3.076,0,0,0-3.076-3.076ZM72.05,46.741A8.456,8.456,0,1,1,80.506,55.2,8.466,8.466,0,0,1,72.05,46.741ZM67.108,74.748a13.4,13.4,0,1,1,26.8,0v.219h-26.8ZM23.669,77.824A10.927,10.927,0,1,1,12.742,88.752,10.939,10.939,0,0,1,23.669,77.824ZM42.834,124.39H6.152v-.219a18.341,18.341,0,0,1,36.682,0ZM34.6,101.862a17.044,17.044,0,0,0,4.342-20.743H98.847v30.092H45.266A24.662,24.662,0,0,0,34.6,101.862Zm0,0" transform="translate(0 -25.543)" fill="#2b225c"/>
    </g>
  </g>
</svg>
