<svg id="Group_144" data-name="Group 144" xmlns="http://www.w3.org/2000/svg" width="107.328" height="107.328" viewBox="0 0 107.328 107.328">
  <g id="check" transform="translate(0 0)">
    <path id="Path_276" data-name="Path 276" d="M101.865,30.5H65.592a2.555,2.555,0,1,0,0,5.111h36.273a.853.853,0,0,1,.852.852V80.757a.853.853,0,0,1-.852.852c-.024,0-44.863-.035-45.146,0V43.277a2.555,2.555,0,0,0-5.111,0V81.608H46.5c-.19.066-35.752-.015-35.778,0H6.463a.853.853,0,0,1-.852-.852V36.463a.853.853,0,0,1,.852-.852H42.736a2.555,2.555,0,0,0,0-5.111H6.463A5.97,5.97,0,0,0,.5,36.463V80.757a5.97,5.97,0,0,0,5.963,5.963h95.4a5.97,5.97,0,0,0,5.963-5.963V36.463a5.97,5.97,0,0,0-5.963-5.963Z" transform="translate(-0.5 20.608)" fill="#2b225c"/>
    <path id="Path_277" data-name="Path 277" d="M65.757.5H21.463A5.97,5.97,0,0,0,15.5,6.463V40.535A5.97,5.97,0,0,0,21.463,46.5H36.92l4.4,8.809a2.558,2.558,0,0,0,4.572,0L50.3,46.5H65.757a5.97,5.97,0,0,0,5.963-5.963V6.463A5.97,5.97,0,0,0,65.757.5Zm-8.1,14.754-16.7,16.7a2.555,2.555,0,0,1-3.823-.238L29.35,21.695a2.555,2.555,0,0,1,4.033-3.138L39.4,26.289,54.046,11.641a2.555,2.555,0,1,1,3.614,3.614Z" transform="translate(10.054 -0.5)" fill="#02bf8c"/>
  </g>
  <g id="Group_142" data-name="Group 142" transform="translate(11.196 71.23)">
    <path id="rating_1_" data-name="rating (1)" d="M35.56,28.688a1.814,1.814,0,0,0,2.518-.5,15.786,15.786,0,0,1,26.206-.032A1.815,1.815,0,1,0,67.3,26.131,19.37,19.37,0,0,0,57.748,18.7a10.254,10.254,0,1,0-13-.04,19.366,19.366,0,0,0-9.683,7.513A1.815,1.815,0,0,0,35.56,28.688ZM51.271,4.13a6.625,6.625,0,1,1-6.625,6.625A6.632,6.632,0,0,1,51.271,4.13Z" transform="translate(-34.754 -0.5)" fill="#2b225c"/>
  </g>
  <g id="Group_143" data-name="Group 143" transform="translate(63.071 71.23)">
    <path id="rating_1_2" data-name="rating (1)" d="M35.56,28.688a1.814,1.814,0,0,0,2.518-.5,15.786,15.786,0,0,1,26.206-.032A1.815,1.815,0,1,0,67.3,26.131,19.37,19.37,0,0,0,57.748,18.7a10.254,10.254,0,1,0-13-.04,19.366,19.366,0,0,0-9.683,7.513A1.815,1.815,0,0,0,35.56,28.688ZM51.271,4.13a6.625,6.625,0,1,1-6.625,6.625A6.632,6.632,0,0,1,51.271,4.13Z" transform="translate(-34.754 -0.5)" fill="#2b225c"/>
  </g>
</svg>
