<svg id="audible-seeklogo.com" xmlns="http://www.w3.org/2000/svg" width="98.955" height="40.529" viewBox="0 0 98.955 40.529">
  <g id="Group_575" data-name="Group 575" transform="translate(69.674 0)">
    <path id="Path_2174" data-name="Path 2174" d="M525.75,913.322,540.38,904.2v2.474l-14.631,9.161-14.65-9.161V904.2Z" transform="translate(-511.1 -897.726)" fill="silver"/>
    <path id="Path_2175" data-name="Path 2175" d="M554.066,892.2a9.311,9.311,0,0,0-7.866,4.233h0a2.5,2.5,0,0,1,.348-.309,9.129,9.129,0,0,1,13.278,1.662l2.145-1.372h0a9.629,9.629,0,0,0-7.9-4.213" transform="translate(-539.416 -888.045)" fill="silver"/>
    <path id="Path_2176" data-name="Path 2176" d="M568.829,914.1a5.358,5.358,0,0,0-4.329,2.223,4.389,4.389,0,0,1,2.609-.85,4.768,4.768,0,0,1,3.943,2.184l2.049-1.276h0a4.985,4.985,0,0,0-4.271-2.281" transform="translate(-554.179 -905.712)" fill="silver"/>
    <path id="Path_2177" data-name="Path 2177" d="M529.166,875.377a13.217,13.217,0,0,1,19.1,2.86l.039.039,2.223-1.372h0a13.688,13.688,0,0,0-22.922,0,11.71,11.71,0,0,1,1.565-1.527" transform="translate(-524.411 -870.7)" fill="silver"/>
  </g>
  <g id="Group_576" data-name="Group 576" transform="translate(0.715 33.011)">
    <path id="Path_2178" data-name="Path 2178" d="M157.18,1045.295a1.465,1.465,0,0,1-.56.522,1.734,1.734,0,0,1-.85.213,3.177,3.177,0,0,1-.6-.077.722.722,0,0,1-.425-.251,1.517,1.517,0,0,1-.309-.387,1.308,1.308,0,0,1-.135-.522,1.036,1.036,0,0,1,.251-.773,1.454,1.454,0,0,1,.676-.386,5.83,5.83,0,0,1,.908-.174,8.757,8.757,0,0,1,.986-.039v-.251a.882.882,0,0,0-.986-.986.934.934,0,0,0-.734.213,1.319,1.319,0,0,0-.309.561c-.077,0-.213-.039-.251-.039h-.251a1.232,1.232,0,0,1,.522-.908,1.841,1.841,0,0,1,1.16-.309,1.367,1.367,0,0,1,1.546,1.546v2.648h-.387Zm-.039-1.45c-.348,0-.676.039-.986.039a2.09,2.09,0,0,0-.676.135.992.992,0,0,0-.425.251.824.824,0,0,0-.135.464.742.742,0,0,0,.213.561.873.873,0,0,0,.638.213,1.243,1.243,0,0,0,.6-.135,1.306,1.306,0,0,0,.425-.251.809.809,0,0,0,.251-.425,2.432,2.432,0,0,0,.077-.522l.019-.329Z" transform="translate(-154.3 -1041.661)" fill="silver"/>
    <path id="Path_2179" data-name="Path 2179" d="M179.2,1041.835h.348l.213.677a2.208,2.208,0,0,1,.6-.6,1.667,1.667,0,0,1,.773-.213,1.432,1.432,0,0,1,1.063.386,1.725,1.725,0,0,1,.348,1.121v2.706h-.56V1043.3a1.355,1.355,0,0,0-.213-.812.836.836,0,0,0-.676-.251,1.242,1.242,0,0,0-.6.135.854.854,0,0,0-.387.348,1.036,1.036,0,0,0-.213.522,3.532,3.532,0,0,0-.039.638v2.01h-.6l-.058-4.059Z" transform="translate(-174.388 -1041.661)" fill="silver"/>
    <path id="Path_2180" data-name="Path 2180" d="M365.975,1044.8a1.522,1.522,0,0,1-.522,1.063,1.772,1.772,0,0,1-1.16.425,1.529,1.529,0,0,1-.812-.174,3.339,3.339,0,0,1-.6-.425,2.247,2.247,0,0,1-.348-.677,3.011,3.011,0,0,1-.135-.85,2.38,2.38,0,0,1,.135-.85,2.025,2.025,0,0,1,.348-.677,1.894,1.894,0,0,1,.6-.464,1.573,1.573,0,0,1,.812-.174,1.515,1.515,0,0,1,.638.135,1.776,1.776,0,0,1,.522.309,1.862,1.862,0,0,1,.348.425,1.146,1.146,0,0,1,.135.6h-.6a1.158,1.158,0,0,0-.309-.676,1.086,1.086,0,0,0-.734-.251,1.146,1.146,0,0,0-.6.135c-.174.077-.251.213-.387.348a2.113,2.113,0,0,0-.213.522,2.928,2.928,0,0,0-.039.6c0,.213.039.425.039.6a1.49,1.49,0,0,0,.213.522.761.761,0,0,0,.387.348,1.372,1.372,0,0,0,.6.135.889.889,0,0,0,.734-.251,2.245,2.245,0,0,0,.348-.676h.6v-.019Z" transform="translate(-322.18 -1041.903)" fill="silver"/>
    <path id="Path_2181" data-name="Path 2181" d="M387.194,1046.352a1.53,1.53,0,0,1-.812-.174,3.352,3.352,0,0,1-.6-.425,2.249,2.249,0,0,1-.348-.676,3.014,3.014,0,0,1-.135-.85,2.452,2.452,0,0,1,.135-.85,2.025,2.025,0,0,1,.348-.677,1.046,1.046,0,0,1,.6-.425,1.981,1.981,0,0,1,1.623,0,3.347,3.347,0,0,1,.6.425,3.716,3.716,0,0,1,.348.677,3.013,3.013,0,0,1,.135.85,2.453,2.453,0,0,1-.135.85,2.024,2.024,0,0,1-.348.676,1.189,1.189,0,0,1-.6.425A1.913,1.913,0,0,1,387.194,1046.352Zm0-.522a1.146,1.146,0,0,0,.6-.135.856.856,0,0,0,.387-.348,2.114,2.114,0,0,0,.213-.522,3.124,3.124,0,0,0,.039-.6c0-.213-.039-.425-.039-.6a2.111,2.111,0,0,0-.213-.522.761.761,0,0,0-.387-.348,1.37,1.37,0,0,0-.6-.135,1.147,1.147,0,0,0-.6.135c-.174.077-.251.213-.387.348a1.036,1.036,0,0,0-.213.522,3.123,3.123,0,0,0-.039.6c0,.213.039.425.039.6a1.633,1.633,0,0,0,.213.522,1.66,1.66,0,0,0,.387.348A1.019,1.019,0,0,0,387.194,1045.83Z" transform="translate(-340.654 -1041.984)" fill="silver"/>
    <path id="Path_2182" data-name="Path 2182" d="M415.9,1046.094v-2.648c0-.348-.039-.638-.213-.773a.753.753,0,0,0-.638-.251,2,2,0,0,0-.425.077.734.734,0,0,0-.348.251.883.883,0,0,0-.251.386,1.863,1.863,0,0,0-.077.522v2.435h-.6v-2.648a1.031,1.031,0,0,0-.213-.773.753.753,0,0,0-.638-.251.7.7,0,0,0-.425.135,1.148,1.148,0,0,0-.348.251.81.81,0,0,0-.251.425,2.507,2.507,0,0,0-.077.6v2.223h-.6v-4.02h.348l.213.638a1.559,1.559,0,0,1,.56-.56,1.27,1.27,0,0,1,.734-.213,1.23,1.23,0,0,1,.773.213,1.048,1.048,0,0,1,.425.6,2.073,2.073,0,0,1,.56-.6,1.284,1.284,0,0,1,.812-.213,1.452,1.452,0,0,1,.986.348,1.593,1.593,0,0,1,.348,1.063v2.783Z" transform="translate(-361.226 -1041.823)" fill="silver"/>
    <path id="Path_2183" data-name="Path 2183" d="M447.1,1041.674h.387l.213.6a1.679,1.679,0,0,1,.6-.561,1.551,1.551,0,0,1,.773-.213,1.39,1.39,0,0,1,.773.174,2.11,2.11,0,0,1,.561.464,3.709,3.709,0,0,1,.348.677,5.076,5.076,0,0,1,.135.812,2.382,2.382,0,0,1-.135.85,2.024,2.024,0,0,1-.348.676,1.094,1.094,0,0,1-.561.425,1.718,1.718,0,0,1-1.508,0,1.668,1.668,0,0,1-.6-.522v2.145h-.6v-5.643H447.1Zm.561,1.971c0,.251.039.522.039.677a2.412,2.412,0,0,0,.213.56,1.661,1.661,0,0,0,.387.348,1.37,1.37,0,0,0,.6.135.973.973,0,0,0,.908-.425,2,2,0,0,0,.309-1.2,1.963,1.963,0,0,0-.348-1.2,1.168,1.168,0,0,0-.908-.425,1.1,1.1,0,0,0-.561.135,1.247,1.247,0,0,0-.425.348.949.949,0,0,0-.251.522C447.7,1043.2,447.66,1043.413,447.66,1043.645Z" transform="translate(-390.51 -1041.5)" fill="silver"/>
    <path id="Path_2184" data-name="Path 2184" d="M472.98,1045.295a1.465,1.465,0,0,1-.561.522,1.734,1.734,0,0,1-.85.213,3.177,3.177,0,0,1-.6-.077.722.722,0,0,1-.425-.251,1.518,1.518,0,0,1-.309-.387,1.309,1.309,0,0,1-.135-.522,1.037,1.037,0,0,1,.251-.773,1.454,1.454,0,0,1,.676-.386,5.83,5.83,0,0,1,.908-.174,8.757,8.757,0,0,1,.986-.039v-.251a.882.882,0,0,0-.986-.986.934.934,0,0,0-.734.213.9.9,0,0,0-.309.561c-.077,0-.213-.039-.251-.039h-.251a1.232,1.232,0,0,1,.522-.908,1.841,1.841,0,0,1,1.16-.309,1.367,1.367,0,0,1,1.546,1.546v2.648h-.464Zm0-1.45c-.348,0-.676.039-.986.039a2.09,2.09,0,0,0-.676.135.993.993,0,0,0-.425.251.825.825,0,0,0-.135.464.742.742,0,0,0,.213.561.872.872,0,0,0,.638.213,1.243,1.243,0,0,0,.6-.135,1.306,1.306,0,0,0,.425-.251.809.809,0,0,0,.251-.425,2.431,2.431,0,0,0,.077-.522l.019-.329Z" transform="translate(-409.065 -1041.661)" fill="silver"/>
    <path id="Path_2185" data-name="Path 2185" d="M495.2,1041.835h.348l.213.677a2.209,2.209,0,0,1,.6-.6,1.307,1.307,0,0,1,.773-.213,1.432,1.432,0,0,1,1.063.386,1.725,1.725,0,0,1,.348,1.121v2.706h-.6V1043.3a1.356,1.356,0,0,0-.213-.812.836.836,0,0,0-.676-.251,1.242,1.242,0,0,0-.6.135.854.854,0,0,0-.387.348,2.952,2.952,0,0,0-.213.522,3.528,3.528,0,0,0-.039.638v2.01h-.6l-.019-4.059Z" transform="translate(-429.314 -1041.661)" fill="silver"/>
    <path id="Path_2186" data-name="Path 2186" d="M516.913,1047.8c0-.077.039-.174.039-.251s.039-.174.039-.251c.039.039.135.039.213.039s.174.039.251.039a1.037,1.037,0,0,0,.309-.077c.077-.039.135-.135.213-.213a1.457,1.457,0,0,0,.174-.348c.039-.135.135-.309.213-.522-.251-.676-.56-1.372-.812-2.01s-.56-1.372-.85-2.01h.676c.213.561.425,1.16.676,1.662.213.561.425,1.121.676,1.662.213-.561.425-1.16.638-1.662.213-.561.425-1.121.638-1.662h.638c-.251.734-.56,1.449-.812,2.145-.251.734-.6,1.449-.85,2.145a5.269,5.269,0,0,0-.213.56,2.752,2.752,0,0,1-.251.425.654.654,0,0,1-.348.251,1.866,1.866,0,0,1-.522.077.962.962,0,0,1-.348-.039C517.125,1047.8,516.99,1047.843,516.913,1047.8Z" transform="translate(-446.659 -1042.064)" fill="silver"/>
  </g>
  <g id="Group_579" data-name="Group 579" transform="translate(12.002 32.914)">
    <path id="Path_2187" data-name="Path 2187" d="M244.37,1067.166a10.235,10.235,0,0,1-12.331-.87c-.135-.135-.039-.309.174-.213a13.7,13.7,0,0,0,6.8,1.759,14.356,14.356,0,0,0,5.18-1.025C244.409,1066.74,244.621,1066.992,244.37,1067.166Z" transform="translate(-228.251 -1061.213)" fill="silver"/>
    <path id="Path_2188" data-name="Path 2188" d="M291.546,1065.536c-.213-.251-1.276-.135-1.759-.039-.135.039-.174-.135-.039-.213a2.673,2.673,0,0,1,2.435-.213,2.479,2.479,0,0,1-.85,2.223c-.135.135-.251.039-.213-.077C291.333,1066.735,291.72,1065.788,291.546,1065.536Z" transform="translate(-274.789 -1060.26)" fill="silver"/>
    <path id="Path_2189" data-name="Path 2189" d="M289.171,1042.434v-.6a.122.122,0,0,1,.135-.135h2.609a.122.122,0,0,1,.135.135v.522a.637.637,0,0,1-.213.348l-1.372,1.875a2.867,2.867,0,0,1,1.508.309c.135.039.135.135.135.213v.6a.154.154,0,0,1-.213.135,3.069,3.069,0,0,0-2.783,0,.165.165,0,0,1-.213-.135v-.6a.52.52,0,0,1,.135-.386l1.585-2.222h-1.314C289.267,1042.55,289.171,1042.512,289.171,1042.434Z" transform="translate(-274.173 -1041.565)" fill="silver"/>
    <path id="Path_2190" data-name="Path 2190" d="M236.747,1046.029h-.812a.122.122,0,0,1-.135-.135v-3.981a.156.156,0,0,1,.174-.135h.734a.122.122,0,0,1,.135.135v.522h.039a1.047,1.047,0,0,1,1.063-.734,1.062,1.062,0,0,1,1.063.734,1.133,1.133,0,0,1,1.121-.734,1.267,1.267,0,0,1,.947.425,2.062,2.062,0,0,1,.213,1.237v2.532a.156.156,0,0,1-.174.135H240.3a.122.122,0,0,1-.135-.135v-2.145a2.287,2.287,0,0,0-.039-.734.424.424,0,0,0-.464-.348.493.493,0,0,0-.464.348,2.5,2.5,0,0,0-.077.773v2.145c0,.077-.039.135-.174.135h-.812a.122.122,0,0,1-.135-.135v-2.145c0-.425.077-1.121-.522-1.121s-.56.638-.56,1.121v2.145A.263.263,0,0,1,236.747,1046.029Z" transform="translate(-231.335 -1041.565)" fill="silver"/>
    <path id="Path_2191" data-name="Path 2191" d="M309.9,1041.3c1.2,0,1.836.986,1.836,2.223a1.98,1.98,0,0,1-1.836,2.184c-1.16,0-1.8-.986-1.8-2.223C308.1,1042.286,308.738,1041.3,309.9,1041.3Zm0,.85c-.6,0-.638.773-.638,1.276s0,1.546.6,1.546.638-.812.638-1.372a3.913,3.913,0,0,0-.135-1.063C310.323,1042.228,310.149,1042.15,309.9,1042.15Z" transform="translate(-289.662 -1041.242)" fill="silver"/>
    <path id="Path_2192" data-name="Path 2192" d="M330.847,1046.029h-.812a.122.122,0,0,1-.135-.135v-3.981c0-.077.077-.135.174-.135h.734a.122.122,0,0,1,.135.135v.6h.039a1.044,1.044,0,0,1,1.063-.812,1.112,1.112,0,0,1,.947.464,2.435,2.435,0,0,1,.213,1.237v2.532a.156.156,0,0,1-.174.135h-.812a.122.122,0,0,1-.135-.135v-2.145c0-.425.039-1.063-.522-1.063a.493.493,0,0,0-.464.348,1.493,1.493,0,0,0-.135.734v2.145C330.982,1045.933,330.944,1046.029,330.847,1046.029Z" transform="translate(-307.249 -1041.565)" fill="silver"/>
    <g id="Group_577" data-name="Group 577" transform="translate(10.514)">
      <path id="Path_2193" data-name="Path 2193" d="M270.869,1044.653a1.222,1.222,0,0,1-.309-.734v-1.2c0-.522.039-.986-.348-1.334a2.061,2.061,0,0,0-1.2-.386,1.652,1.652,0,0,0-1.8,1.2c0,.135.077.135.135.174l.773.077c.077,0,.077-.039.135-.135.039-.348.348-.464.638-.464a.489.489,0,0,1,.425.213c.174.135.135.348.135.56v.135a4.652,4.652,0,0,0-1.508.251,1.294,1.294,0,0,0-.85,1.276,1.126,1.126,0,0,0,1.2,1.2,1.6,1.6,0,0,0,1.334-.561,2.807,2.807,0,0,0,.464.522c.077,0,.174,0,.213-.039a2.567,2.567,0,0,0,.56-.56A.173.173,0,0,0,270.869,1044.653Zm-1.334-1.121a1.6,1.6,0,0,1-.135.812.7.7,0,0,1-.56.348.508.508,0,0,1-.522-.56c0-.677.6-.773,1.2-.773v.174Z" transform="translate(-267.1 -1041)" fill="silver"/>
    </g>
    <g id="Group_578" data-name="Group 578" transform="translate(0)">
      <path id="Path_2194" data-name="Path 2194" d="M216.527,1044.653a1.222,1.222,0,0,1-.309-.734v-1.2c0-.522.039-.986-.348-1.334a2.061,2.061,0,0,0-1.2-.386,1.652,1.652,0,0,0-1.8,1.2c0,.135.077.135.135.174l.773.077c.077,0,.077-.039.135-.135.039-.348.348-.464.638-.464a.54.54,0,0,1,.425.213c.116.135.077.348.077.56v.135a4.653,4.653,0,0,0-1.508.251,1.294,1.294,0,0,0-.85,1.276,1.126,1.126,0,0,0,1.2,1.2,1.6,1.6,0,0,0,1.334-.561,2.806,2.806,0,0,0,.464.522c.077,0,.174,0,.213-.039a4.114,4.114,0,0,0,.6-.56C216.585,1044.807,216.585,1044.73,216.527,1044.653Zm-1.411-1.121a1.6,1.6,0,0,1-.135.812.7.7,0,0,1-.56.348.508.508,0,0,1-.522-.56c0-.677.6-.773,1.2-.773v.174Z" transform="translate(-212.7 -1041)" fill="silver"/>
    </g>
  </g>
  <path id="Path_2195" data-name="Path 2195" d="M219.5,954.036V945.3h2.86v8.639a2.549,2.549,0,0,0,2.744,2.609c2.145,0,2.86-1.276,2.86-2.01V945.3h2.86v13.568h-1.662l-1.121-1.546a4.916,4.916,0,0,1-3.943,1.8C221.375,959.138,219.5,957.341,219.5,954.036Z" transform="translate(-206.184 -930.882)" fill="silver"/>
  <path id="Path_2196" data-name="Path 2196" d="M387.8,920.519V938.88h1.624l1.063-1.546a4.936,4.936,0,0,0,3.943,1.836c2.532,0,4.658-1.546,4.658-4.967v-4.194c0-3.421-2.145-4.967-4.793-4.967a4.689,4.689,0,0,0-3.73,1.623V920.5l-2.764.019Zm5.817,16.042c-1.759,0-3.034-.85-3-2.706h0v-3.73c0-1.45,1.16-2.57,3.034-2.57a2.583,2.583,0,0,1,2.648,2.57v3.807A2.6,2.6,0,0,1,393.617,936.561Z" transform="translate(-341.956 -910.875)" fill="silver"/>
  <path id="Path_2197" data-name="Path 2197" d="M296.823,920.6v6.165a4.628,4.628,0,0,0-3.73-1.623c-2.648,0-4.793,1.546-4.793,4.967V934.3c0,3.421,2.145,4.967,4.658,4.967a5.025,5.025,0,0,0,3.943-1.836l1.063,1.546h1.623V920.619h-2.764Zm-5.74,13.471v-3.807a2.6,2.6,0,0,1,2.648-2.57c1.875,0,3.034,1.063,3.034,2.57v3.73h0c.039,1.836-1.237,2.706-3,2.706A2.691,2.691,0,0,1,291.083,934.071Z" transform="translate(-261.687 -910.956)" fill="silver"/>
  <path id="Path_2198" data-name="Path 2198" d="M456.2,920.6h2.86v18.361H456.2Z" transform="translate(-397.136 -910.956)" fill="silver"/>
  <g id="Group_580" data-name="Group 580" transform="translate(40.316 9.548)">
    <rect id="Rectangle_101" data-name="Rectangle 101" width="2.86" height="13.568" transform="translate(0.174 4.89)" fill="silver"/>
    <ellipse id="Ellipse_87" data-name="Ellipse 87" cx="1.623" cy="1.623" rx="1.623" ry="1.623" transform="translate(0 0)" fill="silver"/>
  </g>
  <g id="Group_581" data-name="Group 581" transform="translate(64.011 14.128)">
    <path id="Path_2199" data-name="Path 2199" d="M487.6,955.358c-1.971,0-2.918-1.024-2.918-2.435V951.8h8.465v-3.034c0-3.131-2.184-4.967-5.566-4.967-3.518,0-5.779,1.971-5.779,5.044v4.194c0,3.131,2.261,4.967,5.779,4.967,2.609,0,4.542-1.063,5.315-2.86l-2.049-1.276A3.708,3.708,0,0,1,487.6,955.358Zm-2.918-6.552c0-1.411.986-2.4,2.822-2.4s2.822.986,2.822,2.4v.85h-5.6l-.039-.85Z" transform="translate(-481.8 -943.8)" fill="silver"/>
  </g>
  <path id="Path_2200" data-name="Path 2200" d="M156.553,943.8c-2.783,0-4.581,1.121-5.257,2.783l2.223,1.372a2.938,2.938,0,0,1,3.034-1.585c1.759,0,2.532.812,2.532,2.145v1.063h-2.416c-1.759,0-6.069.6-6.069,4.329,0,2.648,2.01,3.981,4.445,3.981a5.474,5.474,0,0,0,4.155-1.836l1.121,1.546h1.662v-9.3C161.945,945.733,160.148,943.8,156.553,943.8Zm2.513,9.548a1.477,1.477,0,0,1-.309.812,3.652,3.652,0,0,1-2.822,1.2c-1.372,0-2.358-.56-2.358-1.662,0-1.623,2.609-1.971,4.271-2.049h1.237l-.019,1.7Z" transform="translate(-150.6 -929.672)" fill="silver"/>
  <path id="Path_2201" data-name="Path 2201" d="M448.9,968.8" transform="translate(-391.247 -949.84)" fill="silver"/>
</svg>
