<svg xmlns="http://www.w3.org/2000/svg" width="105" height="105" viewBox="0 0 105 105">
  <g id="Simplified_Development" data-name="Simplified Development" transform="translate(149 -8018)">
    <rect id="Rectangle_106" data-name="Rectangle 106" width="105" height="105" transform="translate(-149 8018)" fill="none"/>
    <g id="app-development" transform="translate(-146.037 8015.5)">
      <path id="Path_2208" data-name="Path 2208" d="M64.768,85.844v2.641H15.763v-70.4H64.768V38.233a4.8,4.8,0,0,1,2.051-.443h3.675V9.03A6.615,6.615,0,0,0,63.948,2.5H16.567a6.547,6.547,0,0,0-6.53,6.53V100.97a6.536,6.536,0,0,0,6.53,6.53H63.948a6.561,6.561,0,0,0,6.546-6.53V86.5H67.229a4.8,4.8,0,0,1-2.461-.656ZM36.09,8.652h8.334a1.641,1.641,0,0,1,0,3.281H36.09a1.641,1.641,0,1,1,0-3.281Zm9.6,91.6H34.827a1.641,1.641,0,0,1,0-3.281H45.688a1.641,1.641,0,0,1,0,3.281Z" fill="#2b225c"/>
      <path id="Path_2209" data-name="Path 2209" d="M34.441,33.961a1.64,1.64,0,0,0,2.32-.011l6.856-6.921a1.64,1.64,0,0,0,0-2.309L36.761,17.8a1.64,1.64,0,0,0-2.331,2.309l5.713,5.766-5.713,5.766a1.64,1.64,0,0,0,.011,2.32Z" transform="translate(15.945 9.876)" fill="#02bf8c"/>
      <path id="Path_2210" data-name="Path 2210" d="M25.956,17.79a1.637,1.637,0,0,0-2.32.011l-6.856,6.921a1.64,1.64,0,0,0,0,2.309l6.856,6.921a1.64,1.64,0,0,0,2.331-2.309l-5.712-5.766,5.712-5.766a1.64,1.64,0,0,0-.011-2.32Z" transform="translate(4.179 9.876)" fill="#02bf8c"/>
      <path id="Path_2211" data-name="Path 2211" d="M33.657,15.232l-9.63,24.233a1.64,1.64,0,1,0,3.049,1.211l9.63-24.233a1.64,1.64,0,1,0-3.049-1.211Z" transform="translate(9.249 7.797)" fill="#02bf8c"/>
      <path id="Path_2212" data-name="Path 2212" d="M73.29,42.977l-3.6-.407a15.832,15.832,0,0,0-1.841-4.377v-.014l2.131-3a1.721,1.721,0,0,0-.187-2.212l-2.581-2.581a1.721,1.721,0,0,0-2.291-.128L62.091,32.51a15.888,15.888,0,0,0-4.406-1.783l-.614-3.652a1.721,1.721,0,0,0-1.7-1.436H51.715A1.721,1.721,0,0,0,50,27.168L49.6,30.786a16.29,16.29,0,0,0-4.377,1.841L42.2,30.484a1.721,1.721,0,0,0-2.215.188L37.418,33.25a1.721,1.721,0,0,0-.128,2.286l2.263,2.844a15.491,15.491,0,0,0-1.8,4.406l-3.638.613a1.721,1.721,0,0,0-1.435,1.7v3.647a1.721,1.721,0,0,0,1.527,1.71l3.59.407a16.147,16.147,0,0,0,1.855,4.392v.014l-2.127,2.989a1.721,1.721,0,0,0,.185,2.215l2.581,2.581a1.721,1.721,0,0,0,2.288.13l2.842-2.261A15.981,15.981,0,0,0,49.814,62.7l.614,3.652a1.721,1.721,0,0,0,1.7,1.436h3.659a1.721,1.721,0,0,0,1.71-1.528l.408-3.617A15.412,15.412,0,0,0,62.28,60.8L65.3,62.946a1.721,1.721,0,0,0,2.215-.188l2.571-2.579a1.721,1.721,0,0,0,.128-2.286l-2.249-2.829a16.164,16.164,0,0,0,1.783-4.421l3.638-.613a1.721,1.721,0,0,0,1.435-1.7V44.686a1.721,1.721,0,0,0-1.528-1.71ZM53.757,53.788a7.073,7.073,0,1,1,7.059-7.073A7.074,7.074,0,0,1,53.757,53.788Z" transform="translate(15.097 15.427)" fill="#02bf8c"/>
    </g>
  </g>
</svg>
