<svg id="_x32_67-python" xmlns="http://www.w3.org/2000/svg" width="104.418" height="105" viewBox="0 0 104.418 105">
  <g id="Group_755" data-name="Group 755" transform="translate(0 0)">
    <path id="Path_2381" data-name="Path 2381" d="M66.9,76.559H91.056a12.179,12.179,0,0,0,12.079-12.282V41.229c0-6.559-5.519-11.467-12.079-12.576a74.558,74.558,0,0,0-24.156.022c-10.224,1.81-12.078,5.587-12.078,12.576v4.933H79v7.349H45.752c-7.034,0-13.187,4.23-15.109,12.259-2.217,9.206-2.307,14.951,0,24.564,1.719,7.148,5.813,12.259,12.847,12.259h8.3V91.578A15.358,15.358,0,0,1,66.9,76.559Z" transform="translate(-28.946 -27.68)" fill="#afafaf"/>
    <path id="Path_2382" data-name="Path 2382" d="M232.2,168.316c-1.742-6.989-5.044-12.259-12.078-12.259h-9.07v10.721a15.513,15.513,0,0,1-15.109,15.335H171.79A12.326,12.326,0,0,0,159.712,194.4v23.026c0,6.559,5.7,10.4,12.078,12.282a40.646,40.646,0,0,0,24.156,0c6.085-1.765,12.079-5.315,12.079-12.282v-4.828H183.891v-7.454h36.234c7.035,0,9.635-4.908,12.078-12.259,2.533-7.577,2.421-14.861,0-24.564Z" transform="translate(-129.644 -126.538)" fill="silver"/>
    <path id="Path_2383" data-name="Path 2383" d="M172.8,60.006a4.418,4.418,0,1,1,4.363-4.407A4.387,4.387,0,0,1,172.8,60.006Z" transform="translate(-136.365 -45.77)" fill="silver"/>
    <path id="Path_2384" data-name="Path 2384" d="M300.3,430.488a4.418,4.418,0,1,1,4.363-4.407A4.387,4.387,0,0,1,300.3,430.488Z" transform="translate(-234.541 -331.063)" fill="silver"/>
  </g>
</svg>
