<svg id="Hilton_Logo" data-name="Hilton Logo" xmlns="http://www.w3.org/2000/svg" width="106.283" height="39.545" viewBox="0 0 106.283 39.545">
  <path id="Path_2202" data-name="Path 2202" d="M157.259,370.261v18.553l1.449.29v1.16h-7.1V389.1l1.449-.29v-8.407h-9.132v8.407l1.449.29v1.16h-7.1V389.1l1.449-.29V370.261l-1.449-.435v-1.015h7.1v1.16l-1.449.29v7.827h9.132v-7.827l-1.449-.435v-1.015h7.1v1.16Zm4.638,5.653,1.3.29v12.9l-1.3.145v1.015h6.668v-1.015l-1.16-.145v-14.06H161.9Zm3.493-8.04a2.469,2.469,0,1,0,2.319,2.464A2.395,2.395,0,0,0,165.39,367.874Zm6.182,1.32,1.2.2v19.64l-1.2.217v1.015H178.2v-1.015l-1.341-.145V368.232h-5.291Zm17.067,19.439c-1.594,0-2.392-.978-2.392-2.573v-9.53H189.8v-1.486h-3.551V370.7l-3.914,1.16v3.189h-2.826v1.486h2.826v10.653c0,2.174,1.123,3.353,3.587,3.353a14.452,14.452,0,0,0,5.037-1.143v-.942A10.748,10.748,0,0,1,188.64,388.633Zm19.071-5.906c0,3.4-1.928,8.094-8.213,8.094-4.642,0-7.9-2.262-7.9-7.737,0-3.546,1.571-8.475,8.07-8.475S207.711,379.132,207.711,382.727Zm-4.4-.012c0-3.535-.9-6.892-3.654-6.892s-3.749,2.857-3.749,7.07c0,2.69.643,6.69,3.749,6.69S203.307,385.679,203.307,382.715Zm6.642-6.678,1.428.167v12.831l-1.428.286v1.024h6.809v-1l-1.476-.238V378.275a4.218,4.218,0,0,1,3.19-1.333c2.1,0,2.619,1.714,2.619,3.285v8.9l-1.262.167v1.048H226.4v-1.071l-1.286-.19v-9.545c0-2.094-.952-4.81-4.261-4.81a8.368,8.368,0,0,0-5.547,2.333V374.99h-5.356Zm25.575-16.209v39.545H129.24V359.828Zm-1.846,1.869H131.022v35.831H233.677Z" transform="translate(-129.24 -359.828)" fill="silver"/>
</svg>
