<svg id="data-analysis" xmlns="http://www.w3.org/2000/svg" width="107.328" height="107.204" viewBox="0 0 107.328 107.204">
  <g id="Group_135" data-name="Group 135" transform="translate(0 0)">
    <g id="Group_134" data-name="Group 134">
      <path id="Path_270" data-name="Path 270" d="M76.273,59.894A34.414,34.414,0,1,1,45.152,10.755,34.712,34.712,0,0,1,69.722,20.911a33.857,33.857,0,0,1,8.19,13.431l7.535-7.535A45.124,45.124,0,0,0,44.825.6C20.583.928.6,20.911.6,45.152a44.238,44.238,0,0,0,88.122,5.569C83.808,55.308,81.842,59.894,76.273,59.894Z" transform="translate(-0.6 -0.6)" fill="#2b225c"/>
    </g>
  </g>
  <g id="Group_138" data-name="Group 138" transform="translate(70.104 70.104)">
    <g id="Group_137" data-name="Group 137">
      <g id="Group_136" data-name="Group 136">
        <path id="Path_271" data-name="Path 271" d="M55.414,55.414a13.256,13.256,0,0,1-18.345,0L22,40.345a59.987,59.987,0,0,0,10.155-7.862A50.3,50.3,0,0,0,40.345,22L55.414,37.069A12.949,12.949,0,0,1,55.414,55.414Z" transform="translate(-22 -22)" fill="#2b225c"/>
      </g>
    </g>
  </g>
  <g id="Group_140" data-name="Group 140" transform="translate(18.345 23.259)">
    <g id="Group_139" data-name="Group 139">
      <path id="Path_272" data-name="Path 272" d="M88.425,13.269,82.2,19.493,65.166,36.2a3.167,3.167,0,0,1-4.586,0L49.77,25.39,32.735,42.425a3.167,3.167,0,0,1-4.586,0L20.614,34.89,9.8,45.7a35.427,35.427,0,0,1-3.6-5.9L18.321,28.338a3.167,3.167,0,0,1,4.586,0l7.535,7.535L47.476,18.838a3.167,3.167,0,0,1,4.586,0L59.925,26.7l2.948,2.948L80.235,12.286l3.6-3.6a3.243,3.243,0,0,1,4.586,4.586Z" transform="translate(-6.2 -7.7)" fill="#02bf8c"/>
    </g>
  </g>
</svg>
