<svg xmlns="http://www.w3.org/2000/svg" width="105" height="105" viewBox="0 0 105 105">
  <g id="Group_765" data-name="Group 765" transform="translate(289 -14578)">
    <path id="Customize" d="M50.644,44.327H29.888a6.287,6.287,0,0,0-12.187,0H9.579a1.579,1.579,0,1,0,0,3.159H17.7a6.287,6.287,0,0,0,12.187,0H50.644a1.579,1.579,0,1,0,0-3.159Zm0-15.794H42.523a6.287,6.287,0,0,0-12.187,0H9.579a1.579,1.579,0,1,0,0,3.159H30.336a6.287,6.287,0,0,0,12.187,0h8.121a1.579,1.579,0,0,0,0-3.159ZM9.579,15.9H17.7a6.287,6.287,0,0,0,12.187,0H50.644a1.579,1.579,0,0,0,0-3.159H29.888a6.287,6.287,0,0,0-12.187,0H9.579a1.579,1.579,0,1,0,0,3.159Z" transform="translate(-267 14608)" fill="silver"/>
    <g id="Code_Spliting" data-name="Code Spliting" transform="translate(-1699 6292)">
      <path id="Union_1" data-name="Union 1" d="M-162.454-147A9.546,9.546,0,0,1-172-156.546v-85.909A9.545,9.545,0,0,1-162.454-252h85.91A9.545,9.545,0,0,1-67-242.455v85.91A9.546,9.546,0,0,1-76.546-147Zm-4.773-9.545a4.773,4.773,0,0,0,4.773,4.773h85.909a4.773,4.773,0,0,0,4.773-4.773v-76.162h-95.454Zm87.258-84.6v2.641a2.329,2.329,0,0,0,2.33,2.33h2.33a2.33,2.33,0,0,0,2.329-2.33v-2.641a2.33,2.33,0,0,0-2.329-2.33h-2.33A2.331,2.331,0,0,0-79.97-241.149Zm-10.834,0v2.641a2.33,2.33,0,0,0,2.33,2.33h2.33a2.33,2.33,0,0,0,2.329-2.33v-2.641a2.329,2.329,0,0,0-2.329-2.33h-2.33A2.331,2.331,0,0,0-90.8-241.149Zm-10.834,0v2.641a2.331,2.331,0,0,0,2.33,2.33h2.33a2.33,2.33,0,0,0,2.329-2.33v-2.641a2.33,2.33,0,0,0-2.329-2.33h-2.33A2.331,2.331,0,0,0-101.638-241.149Z" transform="translate(1582 8538)" fill="silver"/>
    </g>
  </g>
</svg>
