<svg xmlns="http://www.w3.org/2000/svg" width="105" height="105" viewBox="0 0 105 105">
  <g id="Code_Spliting" data-name="Code Spliting" transform="translate(-955 -8570)">
    <path id="Union_1" data-name="Union 1" d="M-162.454-147A9.546,9.546,0,0,1-172-156.546v-85.909A9.545,9.545,0,0,1-162.454-252h85.91A9.545,9.545,0,0,1-67-242.455v85.91A9.546,9.546,0,0,1-76.546-147Zm-4.773-9.545a4.773,4.773,0,0,0,4.773,4.773h85.909a4.773,4.773,0,0,0,4.773-4.773v-76.162h-95.454Zm87.258-84.6v2.641a2.329,2.329,0,0,0,2.33,2.33h2.33a2.33,2.33,0,0,0,2.329-2.33v-2.641a2.33,2.33,0,0,0-2.329-2.33h-2.33A2.331,2.331,0,0,0-79.97-241.149Zm-10.834,0v2.641a2.33,2.33,0,0,0,2.33,2.33h2.33a2.33,2.33,0,0,0,2.329-2.33v-2.641a2.329,2.329,0,0,0-2.329-2.33h-2.33A2.331,2.331,0,0,0-90.8-241.149Zm-10.834,0v2.641a2.331,2.331,0,0,0,2.33,2.33h2.33a2.33,2.33,0,0,0,2.329-2.33v-2.641a2.33,2.33,0,0,0-2.329-2.33h-2.33A2.331,2.331,0,0,0-101.638-241.149Z" transform="translate(1127 8822)" fill="#2b225c"/>
    <g id="Group_600" data-name="Group 600" transform="translate(-1.64 -2.063)">
      <path id="Path_2233" data-name="Path 2233" d="M79.091,194.795l17.764,8.261a3.453,3.453,0,0,0,4.907-3.131v-.091a3.463,3.463,0,0,0-2-3.131l-11.111-5.162,11.111-5.163a3.464,3.464,0,0,0,2-3.131v-.09a3.447,3.447,0,0,0-3.456-3.45,3.47,3.47,0,0,0-1.453.319l-17.763,8.26a3.465,3.465,0,0,0-2,3.131v.247A3.467,3.467,0,0,0,79.091,194.795Z" transform="translate(898.546 8440.302)" fill="#02bf8c"/>
      <path id="Path_2231" data-name="Path 2231" d="M163.564,186.532a3.465,3.465,0,0,0,2.788,1.416h.089a3.441,3.441,0,0,0,3.287-2.4l11.7-36.259a3.452,3.452,0,0,0-3.287-4.506h-.089a3.442,3.442,0,0,0-3.289,2.4l-11.7,36.262A3.468,3.468,0,0,0,163.564,186.532Z" transform="translate(836.903 8465.39)" fill="#02bf8c"/>
      <path id="Path_2232" data-name="Path 2232" d="M227.49,183.247a3.471,3.471,0,0,0,2,3.132l11.111,5.161L229.488,196.7a3.465,3.465,0,0,0-2,3.131v.091a3.454,3.454,0,0,0,4.909,3.131l17.763-8.261a3.467,3.467,0,0,0,2-3.13v-.247a3.464,3.464,0,0,0-2-3.131l-17.763-8.26a3.453,3.453,0,0,0-4.907,3.131v.09h0Z" transform="translate(790.502 8440.302)" fill="#02bf8c"/>
    </g>
  </g>
</svg>
