<svg xmlns="http://www.w3.org/2000/svg" width="136.348" height="39.729" viewBox="0 0 136.348 39.729">
  <g id="Tik_tok_logo" data-name="Tik tok logo" style="mix-blend-mode: normal;isolation: isolate">
    <path id="Path_2151" data-name="Path 2151" d="M59.957,24.407a15.6,15.6,0,0,0,9.1,2.911V20.79a9.217,9.217,0,0,1-1.911-.2v5.138a15.607,15.607,0,0,1-9.1-2.911V36.139A12.075,12.075,0,0,1,39.253,46.165a12.074,12.074,0,0,0,20.7-8.436V24.407Zm2.358-6.586a9.1,9.1,0,0,1-2.358-5.327v-.84H58.146a9.139,9.139,0,0,0,4.169,6.166ZM43.47,41.051a5.523,5.523,0,0,1,6.071-8.6V25.775a12.182,12.182,0,0,0-1.911-.11V30.86a5.521,5.521,0,0,0-4.16,10.191Z" transform="translate(-33.901 -10.066)" fill="silver"/>
    <path id="Path_2152" data-name="Path 2152" d="M36.252,22.818a15.607,15.607,0,0,0,9.1,2.911V20.59a9.137,9.137,0,0,1-4.832-2.769,9.139,9.139,0,0,1-4.169-6.166H31.594V37.728a5.523,5.523,0,0,1-9.918,3.323A5.522,5.522,0,0,1,25.836,30.86V25.665a12.065,12.065,0,0,0-8.377,20.5A12.075,12.075,0,0,0,36.252,36.139V22.818Z" transform="translate(-12.107 -10.066)" fill="silver"/>
    <path id="Path_2153" data-name="Path 2153" d="M33.247,10.525V9.135a9.1,9.1,0,0,1-4.832-1.38A9.129,9.129,0,0,0,33.247,10.525Zm-9-8.935q-.065-.373-.1-.75V0h-6.57V26.073a5.525,5.525,0,0,1-8.007,4.912,5.523,5.523,0,0,0,9.918-3.323V1.589ZM13.729,15.6V14.12a12.194,12.194,0,0,0-1.656-.112A12.065,12.065,0,0,0,5.352,36.1a12.065,12.065,0,0,1,8.377-20.5Z" fill="silver"/>
    <path id="Path_2154" data-name="Path 2154" d="M793.882,131.112a8.569,8.569,0,1,0,0-17.137h-1.3a8.569,8.569,0,1,1,0,17.137Z" transform="translate(-684.514 -98.435)" fill="silver"/>
    <path id="Path_2155" data-name="Path 2155" d="M728.754,113.975h-1.3a8.569,8.569,0,1,0,0,17.137h1.3a8.569,8.569,0,1,1,0-17.137Z" transform="translate(-620.805 -98.435)" fill="silver"/>
    <path id="Path_2156" data-name="Path 2156" d="M310.062,85.572v4.343h5.087v16.549h5.089V90.032h4.141l1.42-4.46H310.062Zm41.652,0v4.343H356.8v16.549h5.089V90.032h4.141l1.42-4.46H351.714Zm-24.967,2.465A2.484,2.484,0,1,1,329.23,90.5,2.473,2.473,0,0,1,326.747,88.037Zm0,4.226h4.968v14.2h-4.968Zm7.1-6.69v20.892h4.97v-5.4l1.538-1.41,4.851,6.925h5.324l-6.982-10.094,6.272-6.1h-6.034l-4.969,4.929V85.572Zm53.6,0v20.892h4.971v-5.4l1.538-1.41,4.852,6.925h5.325l-6.982-10.094,6.271-6.1h-6.034l-4.97,4.929V85.572Z" transform="translate(-267.786 -73.904)" fill="silver"/>
    <path id="Path_2157" data-name="Path 2157" d="M737.114,131.112a8.569,8.569,0,1,0,0-17.137H737a8.569,8.569,0,1,0,0,17.137Zm-4.26-8.568a4.2,4.2,0,1,1,4.2,4.167A4.184,4.184,0,0,1,732.855,122.544Z" transform="translate(-629.048 -98.435)" fill="silver"/>
  </g>
</svg>
