<svg xmlns="http://www.w3.org/2000/svg" width="484.273" height="385.89" viewBox="0 0 484.273 385.89">
  <g id="Group_568" data-name="Group 568" transform="translate(716.153 -7036)">
    <g id="Group_566" data-name="Group 566" transform="translate(-548.827 7231.926)">
      <g id="Group_202" data-name="Group 202" transform="translate(0 0)">
        <g id="Group_176" data-name="Group 176" transform="translate(0 0)">
          <g id="Group_156" data-name="Group 156" transform="translate(0 71.805)">
            <path id="Path_309" data-name="Path 309" d="M65.23,408.486H58.024V381.771H72.785Z" transform="translate(-58.024 -307.394)" fill="#f3f1fd"/>
            <rect id="Rectangle_45" data-name="Rectangle 45" width="222.766" height="93.8" transform="translate(222.766 93.8) rotate(180)" fill="#f3f1fd"/>
            <g id="Group_153" data-name="Group 153" transform="translate(148.625 10.338)">
              <path id="Path_311" data-name="Path 311" d="M231.958,408.049H164.529V335.881h67.429Zm-66.034-1.4h64.638V337.277H165.925Z" transform="translate(-164.529 -335.881)" fill="#e6e6e6"/>
            </g>
            <g id="Group_154" data-name="Group 154" transform="translate(77.668 10.338)">
              <path id="Path_312" data-name="Path 312" d="M181.11,408.049H113.681V335.881H181.11Zm-66.034-1.4h64.638V337.277H115.076Z" transform="translate(-113.681 -335.881)" fill="#e6e6e6"/>
            </g>
            <g id="Group_155" data-name="Group 155" transform="translate(6.709 10.338)">
              <path id="Path_313" data-name="Path 313" d="M130.262,408.049H62.831V335.881h67.431Zm-66.035-1.4h64.64V337.277H64.226Z" transform="translate(-62.831 -335.881)" fill="#e6e6e6"/>
            </g>
          </g>
          <g id="Group_163" data-name="Group 163" transform="translate(43.584)">
            <rect id="Rectangle_55" data-name="Rectangle 55" width="43.825" height="66.849" rx="4.366" transform="translate(0 4.956)" fill="#fafafa"/>
            <rect id="Rectangle_56" data-name="Rectangle 56" width="43.825" height="5.746" rx="1.466" fill="#e6e6e6"/>
          </g>
          <g id="Group_164" data-name="Group 164" transform="translate(174.06 19.689)">
            <rect id="Rectangle_57" data-name="Rectangle 57" width="31.808" height="48.519" rx="3.169" transform="translate(0 3.597)" fill="#f0f0f0"/>
            <rect id="Rectangle_58" data-name="Rectangle 58" width="31.808" height="4.17" rx="1.064" fill="#e6e6e6"/>
          </g>
          <g id="Group_165" data-name="Group 165" transform="translate(76.737 26.013)">
            <rect id="Rectangle_59" data-name="Rectangle 59" width="60.226" height="38.982" rx="6" transform="translate(0 6.81)" fill="#f3f1fd"/>
            <rect id="Rectangle_60" data-name="Rectangle 60" width="60.226" height="7.896" rx="2.014" fill="#f5f5f5"/>
          </g>
        </g>
      </g>
    </g>
    <g id="Group_570" data-name="Group 570" transform="translate(-699.254 7301.518)">
      <g id="Group_202-2" data-name="Group 202" transform="translate(0 0)">
        <g id="Group_176-2" data-name="Group 176" transform="translate(0 0)">
          <g id="Group_156-2" data-name="Group 156">
            <path id="Path_309-2" data-name="Path 309" d="M65.23,408.486H58.024V381.771H72.785Z" transform="translate(-58.024 -307.394)" fill="#f3f1fd"/>
            <rect id="Rectangle_45-2" data-name="Rectangle 45" width="150.427" height="93.8" transform="translate(150.427 93.8) rotate(180)" fill="#f3f1fd"/>
            <path id="Path_310" data-name="Path 310" d="M214.635,408.486h7.206V381.771H207.08Z" transform="translate(-71.414 -307.394)" fill="#f0f0f0"/>
            <g id="Group_154-2" data-name="Group 154" transform="translate(77.668 10.338)">
              <path id="Path_312-2" data-name="Path 312" d="M181.11,408.049H113.681V335.881H181.11Zm-66.034-1.4h64.638V337.277H115.076Z" transform="translate(-113.681 -335.881)" fill="#e6e6e6"/>
            </g>
            <g id="Group_155-2" data-name="Group 155" transform="translate(6.709 10.338)">
              <path id="Path_313-2" data-name="Path 313" d="M130.262,408.049H62.831V335.881h67.431Zm-66.035-1.4h64.64V337.277H64.226Z" transform="translate(-62.831 -335.881)" fill="#e6e6e6"/>
            </g>
          </g>
        </g>
      </g>
    </g>
    <g id="Group_571" data-name="Group 571" transform="translate(-401.275 7303.553)">
      <g id="Group_202-3" data-name="Group 202" transform="translate(0 0)">
        <g id="Group_176-3" data-name="Group 176" transform="translate(0 0)">
          <g id="Group_156-3" data-name="Group 156">
            <path id="Path_309-3" data-name="Path 309" d="M65.23,408.486H58.024V381.771H72.785Z" transform="translate(-58.024 -307.394)" fill="#f3f1fd"/>
            <rect id="Rectangle_45-3" data-name="Rectangle 45" width="150.427" height="93.8" transform="translate(150.427 93.8) rotate(180)" fill="#f3f1fd"/>
            <path id="Path_310-2" data-name="Path 310" d="M214.635,408.486h7.206V381.771H207.08Z" transform="translate(-71.414 -307.394)" fill="#f0f0f0"/>
            <g id="Group_154-3" data-name="Group 154" transform="translate(77.668 10.338)">
              <path id="Path_312-3" data-name="Path 312" d="M181.11,408.049H113.681V335.881H181.11Zm-66.034-1.4h64.638V337.277H115.076Z" transform="translate(-113.681 -335.881)" fill="#e6e6e6"/>
            </g>
            <g id="Group_155-3" data-name="Group 155" transform="translate(6.709 10.338)">
              <path id="Path_313-3" data-name="Path 313" d="M130.262,408.049H62.831V335.881h67.431Zm-66.035-1.4h64.64V337.277H64.226Z" transform="translate(-62.831 -335.881)" fill="#e6e6e6"/>
            </g>
          </g>
        </g>
      </g>
    </g>
    <g id="Group_567" data-name="Group 567" transform="translate(-716.153 7303.355)">
      <g id="Group_66" data-name="Group 66" transform="translate(0 105.236)">
        <path id="Path_188" data-name="Path 188" d="M2399.438,1473.2c133.365,0,242.235-2.991,242.235-6.649s-108.87-6.649-242.235-6.649-242.038,2.991-242.038,6.649C2157.207,1470.207,2266.075,1473.2,2399.438,1473.2Z" transform="translate(-2157.399 -1459.9)" fill="#f3f1fd" fill-rule="evenodd"/>
      </g>
      <g id="Group_72" data-name="Group 72" transform="translate(337.679 43.74)">
        <path id="Path_194" data-name="Path 194" d="M2250.179,1264.288a.775.775,0,0,0-1.51-.349,37.207,37.207,0,0,0,.058,17.334,51.509,51.509,0,0,0,9.03,18.5.79.79,0,0,0,1.278-.929,50.366,50.366,0,0,1-8.77-17.944A34.934,34.934,0,0,1,2250.179,1264.288Z" transform="translate(-2247.675 -1263.342)" fill="#968fff" fill-rule="evenodd"/>
      </g>
      <g id="Group_73" data-name="Group 73" transform="translate(338.005)">
        <path id="Path_195" data-name="Path 195" d="M2250.049,1158.285q10.584-24.085-1.249-45.586Q2275.8,1135.043,2250.049,1158.285Z" transform="translate(-2248.8 -1112.7)" fill="#aca6ff" fill-rule="evenodd"/>
      </g>
      <g id="Group_74" data-name="Group 74" transform="translate(332.818)">
        <path id="Path_196" data-name="Path 196" d="M2236.12,1112.7q11.847,21.472,1.249,45.586C2221.11,1145.8,2241.434,1132.27,2236.12,1112.7Z" transform="translate(-2230.933 -1112.7)" fill="#c8c4ff" fill-rule="evenodd"/>
      </g>
      <g id="Group_75" data-name="Group 75" transform="translate(347.047 64.655)">
        <path id="Path_197" data-name="Path 197" d="M2281.669,1336.225a.783.783,0,0,0-.726-.842.742.742,0,0,0-.842.7,55.249,55.249,0,0,0-.058,7.752,86,86,0,0,0,.871,8.624.793.793,0,0,0,1.568-.233,75.481,75.481,0,0,1-.842-8.478A48.761,48.761,0,0,1,2281.669,1336.225Z" transform="translate(-2279.938 -1335.377)" fill="#968fff" fill-rule="evenodd"/>
      </g>
      <g id="Group_76" data-name="Group 76" transform="translate(344.567 28.455)">
        <path id="Path_198" data-name="Path 198" d="M2274.65,1249.23q-11.193-20.383,16.173-38.53Q2276.32,1231.693,2274.65,1249.23Z" transform="translate(-2271.397 -1210.7)" fill="#aca6ff" fill-rule="evenodd"/>
      </g>
      <g id="Group_77" data-name="Group 77" transform="translate(347.82 28.455)">
        <path id="Path_199" data-name="Path 199" d="M2282.6,1249.23q1.7-17.552,16.173-38.53C2293.024,1229.776,2305.451,1236.8,2282.6,1249.23Z" transform="translate(-2282.6 -1210.7)" fill="#c8c4ff" fill-rule="evenodd"/>
      </g>
      <g id="Group_78" data-name="Group 78" transform="translate(348.197 67.824)">
        <path id="Path_200" data-name="Path 200" d="M2283.9,1359.5a.784.784,0,1,0,1.568.058,20.221,20.221,0,0,1,1.132-5.807,32.141,32.141,0,0,1,2.9-6.272.782.782,0,0,0-1.335-.813,32.167,32.167,0,0,0-3.049,6.591A22.879,22.879,0,0,0,2283.9,1359.5Z" transform="translate(-2283.9 -1346.288)" fill="#968fff" fill-rule="evenodd"/>
      </g>
      <g id="Group_79" data-name="Group 79" transform="translate(351.246 64.796)">
        <path id="Path_201" data-name="Path 201" d="M2312.837,1341.593c-4.7,10.859-14.808-2.352-18.437-.174a10.066,10.066,0,0,1,4.3-5.081C2303.691,1333.724,2307.815,1342.783,2312.837,1341.593Z" transform="translate(-2294.399 -1335.862)" fill="#aca6ff" fill-rule="evenodd"/>
      </g>
      <g id="Group_80" data-name="Group 80" transform="translate(324.853 77.874)">
        <path id="Path_202" data-name="Path 202" d="M2203.5,1380.9v14.169a16.3,16.3,0,0,0,16.231,16.231h12.833a16.3,16.3,0,0,0,16.231-16.231V1380.9Z" transform="translate(-2203.5 -1380.9)" fill="#c8c4ff" fill-rule="evenodd"/>
      </g>
      <g id="Group_81" data-name="Group 81" transform="translate(329.44 77.874)">
        <path id="Path_203" data-name="Path 203" d="M2219.3,1406.364c22.154,7.114,32.81-2.671,30.691-25.464h10.018v14.169a16.3,16.3,0,0,1-16.231,16.231h-12.834A16.3,16.3,0,0,1,2219.3,1406.364Z" transform="translate(-2219.3 -1380.9)" fill="#bcb8fd" fill-rule="evenodd"/>
      </g>
    </g>
    <g id="Group_564" data-name="Group 564" transform="translate(-648.234 7162.759)">
      <g id="Group_99" data-name="Group 99" transform="translate(117.684 239.011)">
        <path id="Path_221" data-name="Path 221" d="M1161.521,1659.716c-10.295-.159-18-.3-21.565-1.406-3.833-1.2-3.039-3.56-.839-7.3,9.705,4.467,7.12-.93,11.678-.227q4.8,3.843,14.172,5.17C1167.6,1657.879,1166.533,1659.625,1161.521,1659.716Z" transform="translate(-1137.275 -1650.717)" fill="#20b089" fill-rule="evenodd"/>
      </g>
      <g id="Group_100" data-name="Group 100" transform="translate(50.714 90.977)">
        <path id="Path_222" data-name="Path 222" d="M919.918,997.9H856.243a3.141,3.141,0,0,0-2.88,2.29l-11.338,43.153a1.71,1.71,0,0,0,1.678,2.29h63.675a3.142,3.142,0,0,0,2.88-2.29L921.6,1000.19A1.71,1.71,0,0,0,919.918,997.9Z" transform="translate(-841.945 -997.9)" fill="#d0ddff" fill-rule="evenodd"/>
      </g>
      <g id="Group_101" data-name="Group 101" transform="translate(3.243 42.359)">
        <path id="Path_223" data-name="Path 223" d="M690.13,833.365l-7.687,29.3c-9.229-4.513-20.363-11.746-32.041-21.021a92.8,92.8,0,0,0-1.179-9.977c.93-1.859,1.973-3.855,3.084-5.964-10.771-.068-17.324-2.381-19.706-6.939a141.345,141.345,0,0,1,12.086-25.828q5.442-8.027,21.27-9.433c1.225,14.15,22.948,13.424,17.846,1.247a42.476,42.476,0,0,1,20.023,11.724q7.041,17.381,8.617,24.263a42.105,42.105,0,0,1-14.513,6.939,30.064,30.064,0,0,0-.5,3.424h-4.422A3.171,3.171,0,0,0,690.13,833.365Z" transform="translate(-632.6 -783.5)" fill="#20b089" fill-rule="evenodd"/>
      </g>
      <g id="Group_102" data-name="Group 102" transform="translate(49.402 89.933)">
        <path id="Path_224" data-name="Path 224" d="M839.84,1024.888l7.687-29.3a3.218,3.218,0,0,1,2.88-2.29h63.7c1.247,0,3.492,1.633,3.129,2.857a1.673,1.673,0,0,0-1.769-1.837h-63.7a3.142,3.142,0,0,0-2.88,2.29l-11.338,43.153A1.785,1.785,0,0,0,838,1041.6c-1.043-.68-2.041-2-1.814-2.88Z" transform="translate(-836.157 -993.3)" fill="#85868b" fill-rule="evenodd"/>
      </g>
      <g id="Group_103" data-name="Group 103" transform="translate(31.271 135.558)">
        <path id="Path_225" data-name="Path 225" d="M777.4,1197.629h63.675a2.539,2.539,0,0,0,.7-.113c-1.27,3.288-4.717,2.789-6.054,2.789H760.236c-4.082-.182-3.991-3.039-4.036-5.805h18.141c-.068.884.862,2.041,1.837,2.676A1.736,1.736,0,0,0,777.4,1197.629Z" transform="translate(-756.2 -1194.5)" fill="#85868b" fill-rule="evenodd"/>
      </g>
      <g id="Group_104" data-name="Group 104" transform="translate(54.355 108.733)">
        <path id="Path_226" data-name="Path 226" d="M865.03,1076.2c6.826,3.447,14.9,4.513,23.2,4.943a5.869,5.869,0,0,0-.2.907,5.449,5.449,0,0,0,5.465,6.486,7.177,7.177,0,0,0,6.916-5.964,4.222,4.222,0,0,0,.068-1.066c8.617.227,16.939.7,23.832,3.4l-4.739,18.028H858Z" transform="translate(-858 -1076.2)" fill="#cad6f5" fill-rule="evenodd"/>
      </g>
      <g id="Group_105" data-name="Group 105" transform="translate(86.39 110.705)">
        <path id="Path_227" data-name="Path 227" d="M1004.106,1084.9a5.03,5.03,0,0,0-4.785,4.127,3.437,3.437,0,0,0,3.492,4.127,5.03,5.03,0,0,0,4.785-4.127A3.446,3.446,0,0,0,1004.106,1084.9Z" transform="translate(-999.269 -1084.9)" fill="#fff" fill-rule="evenodd"/>
      </g>
      <g id="Group_106" data-name="Group 106" transform="translate(17.96 116.125)">
        <path id="Path_228" data-name="Path 228" d="M697.5,1120.864a68.1,68.1,0,0,0,2.744-12.064c8.572,3.311,18.39,6.531,30.772,11.406l-1.678,6.4C710.63,1127.213,699.994,1125.308,697.5,1120.864Z" transform="translate(-697.5 -1108.8)" fill="#20b089" fill-rule="evenodd"/>
      </g>
      <g id="Group_107" data-name="Group 107" transform="translate(0 79.91)">
        <path id="Path_229" data-name="Path 229" d="M669.8,996.742c-12.4-4.9-22.2-8.1-30.772-11.406A104.514,104.514,0,0,1,618.3,975.041a78.8,78.8,0,0,1,5.011-25.942q4.8,4.592,17.982,4.649c-2.54,4.807-4.626,8.957-6.213,12.449,13.22,10.953,25.964,19.456,36.35,24.513Z" transform="translate(-618.3 -949.1)" fill="#ffa791" fill-rule="evenodd"/>
      </g>
      <g id="Group_108" data-name="Group 108" transform="translate(68.051 80.704)">
        <path id="Path_230" data-name="Path 230" d="M931.756,952.6q1.428,5,2.653,9.252H918.4a30.051,30.051,0,0,1,.5-3.424A40.875,40.875,0,0,0,931.756,952.6Z" transform="translate(-918.4 -952.6)" fill="#ffa791" fill-rule="evenodd"/>
      </g>
      <g id="Group_109" data-name="Group 109" transform="translate(84.401 140.751)">
        <path id="Path_231" data-name="Path 231" d="M1026.373,1312.549q-14.217-51.532-10.159-72.382a84.4,84.4,0,0,1-16.214.726c.817-3.719,1.655-7.438,2.494-11.225-.091-5.125-2.721-8.912-12-11.656h26.4a8.221,8.221,0,0,0,4.241-.612c8.5,2.426,12.653,6.44,14.059,11.338,1.043,13.47-1.769,28.821.635,83.9A42.709,42.709,0,0,1,1026.373,1312.549Z" transform="translate(-990.5 -1217.4)" fill="#21144d" fill-rule="evenodd"/>
      </g>
      <g id="Group_110" data-name="Group 110" transform="translate(110.388 140.774)">
        <path id="Path_232" data-name="Path 232" d="M1105.1,1218.112h.408a8.222,8.222,0,0,0,4.24-.612c8.5,2.426,12.653,6.44,14.059,11.338,1.043,13.47-1.769,28.822.635,83.9a39.929,39.929,0,0,1-5.51.182c-4.9-19.139-16.531-66.1-3.424-86.351A51.363,51.363,0,0,0,1105.1,1218.112Z" transform="translate(-1105.1 -1217.5)" fill="#1f164b" fill-rule="evenodd"/>
      </g>
      <g id="Group_111" data-name="Group 111" transform="translate(33.646 11.26)">
        <path id="Path_233" data-name="Path 233" d="M769.629,677.59c1.678-2.154,3.175-4.15,3.606-5.556-.34-.975-.7-2.2-1.066-3.674q-9.49-6.429-2.585-9.524c.93.522,2.063,2.109,3.447,4.785a2.859,2.859,0,0,0,2.494-1.678,80.033,80.033,0,0,1-2.54-11c3.107-4.626,10.386-5.284,20.046-4.036.454,2.562.816,5.284,1.111,8.163,1.7,1.565,1.474,7.392-.091,14.1q1.19,5.715-7.075,6.236a11.277,11.277,0,0,0,.5,3.288h0a.071.071,0,0,0,.023.045C792.487,690.833,771.012,691.581,769.629,677.59Z" transform="translate(-766.676 -646.355)" fill="#ffa791" fill-rule="evenodd"/>
      </g>
      <g id="Group_112" data-name="Group 112" transform="translate(26.42)">
        <path id="Path_234" data-name="Path 234" d="M768.368,608.492c-9.637-1.247-16.917-.59-20.046,4.036a83.554,83.554,0,0,0,2.54,11,2.859,2.859,0,0,1-2.495,1.678c-1.383-2.676-2.517-4.286-3.447-4.785-4.6,2.064-3.719,5.238,2.585,9.524.363,1.474.726,2.7,1.066,3.674-5.692-1.27-10.431-6.372-11.111-8.572-6.621-13.061.771-18.595,4.717-20.613,1.746-12.948,20.545-1.5,29.955-7.732C775.919,601.893,771.293,608.378,768.368,608.492Z" transform="translate(-734.81 -596.7)" fill="#21144d" fill-rule="evenodd"/>
      </g>
      <g id="Group_113" data-name="Group 113" transform="translate(46.804 40.136)">
        <path id="Path_235" data-name="Path 235" d="M824.7,773.7a55.613,55.613,0,0,0,7.143.159,10.742,10.742,0,0,0,.34,2.721C828.759,776.489,826.265,775.537,824.7,773.7Z" transform="translate(-824.7 -773.7)" fill="#ed7d57" fill-rule="evenodd"/>
      </g>
      <g id="Group_114" data-name="Group 114" transform="translate(14.74 161.795)">
        <path id="Path_236" data-name="Path 236" d="M744.48,1310.2H687.019a3.74,3.74,0,0,0-3.719,3.742h0a3.755,3.755,0,0,0,3.719,3.742H744.48a3.76,3.76,0,0,0,3.741-3.742h0A3.76,3.76,0,0,0,744.48,1310.2Z" transform="translate(-683.3 -1310.2)" fill="#b6b1f7" fill-rule="evenodd"/>
      </g>
      <g id="Group_115" data-name="Group 115" transform="translate(16.304 228.054)">
        <path id="Path_237" data-name="Path 237" d="M695.8,1606.867a15.135,15.135,0,0,1,10.726-4.467h29.162a15.253,15.253,0,0,1,15.17,15.17v3.061h1.156v3.787H743.4v-3.787h1.179v-3.061a8.9,8.9,0,0,0-8.889-8.889H706.527a8.9,8.9,0,0,0-8.889,8.889v3.061h1.179v3.787H690.2v-3.787h1.156v-3.061A14.914,14.914,0,0,1,695.8,1606.867Z" transform="translate(-690.2 -1602.4)" fill="#b6b1f7" fill-rule="evenodd"/>
      </g>
      <g id="Group_116" data-name="Group 116" transform="translate(44.06 169.278)">
        <rect id="Rectangle_8" data-name="Rectangle 8" width="6.281" height="58.777" transform="translate(0 0)" fill="#b6b1f7"/>
      </g>
      <g id="Group_117" data-name="Group 117" transform="translate(16.717 129.798)">
        <path id="Path_238" data-name="Path 238" d="M702.4,1200.869c-11.112-3.991-12.631-15.057-7.733-31.769q6.021,4.932,30.454,4.127l-.385,1.451a.628.628,0,0,0-.023.2H706.574c.045,2.766-.045,5.624,4.036,5.805h49.117c9.274,2.721,11.9,6.508,12,11.655-5.873,26.259-11.111,50.341-18.232,83.607-2.4,1.338-5.692,1.247-9.864-.317q-5-48.4,2.744-70.387C732.629,1205.291,717.98,1203.409,702.4,1200.869Z" transform="translate(-692.02 -1169.1)" fill="#21144d" fill-rule="evenodd"/>
      </g>
      <g id="Group_118" data-name="Group 118" transform="translate(16.717 129.798)">
        <path id="Path_239" data-name="Path 239" d="M702.4,1200.869c-11.112-3.991-12.631-15.057-7.733-31.769a11.911,11.911,0,0,0,3.4,1.837c-4.036,17.188.363,26.6,13.4,27.506q22.858,3.4,37.892,3.266-6.633,42.96-2.268,74.922a21.91,21.91,0,0,1-3.447-1q-5-48.4,2.744-70.387C732.629,1205.291,717.98,1203.409,702.4,1200.869Z" transform="translate(-692.02 -1169.1)" fill="#2c2458" fill-rule="evenodd"/>
      </g>
      <g id="Group_119" data-name="Group 119" transform="translate(120.229 235.969)">
        <path id="Path_240" data-name="Path 240" d="M1157,1637.436a9.739,9.739,0,0,0,1.338,2.925c-2.97.272-1.814,4.1-9.841.589a11.98,11.98,0,0,0,.567-3.651A46.787,46.787,0,0,0,1157,1637.436Z" transform="translate(-1148.5 -1637.3)" fill="#ffa791" fill-rule="evenodd"/>
      </g>
      <g id="Group_120" data-name="Group 120" transform="translate(66.379 240.027)">
        <path id="Path_241" data-name="Path 241" d="M922.788,1669.214c-5.465-2.268-6.281-5.941-9.3-7.347-3.038-1.406-3.379-3.923-.408-6.667,2.177,1.746,4.9,3.9,6.349,2.766.952-.748,4.218-.7,4.853.408,2.835,6.6,6.78,4.513,7.551,7.506C931.926,1669.872,926.234,1670.643,922.788,1669.214Z" transform="translate(-911.024 -1655.2)" fill="#20b089" fill-rule="evenodd"/>
      </g>
      <g id="Group_121" data-name="Group 121" transform="translate(68.936 236.762)">
        <path id="Path_242" data-name="Path 242" d="M930.577,1641.118a16.419,16.419,0,0,0,.726,5.283,4.805,4.805,0,0,0-3.152.431c-1.338,1.043-3.764-.7-5.851-2.381a13.984,13.984,0,0,0,.68-3.651C926.042,1641.752,928.559,1641.866,930.577,1641.118Z" transform="translate(-922.3 -1640.8)" fill="#ffa791" fill-rule="evenodd"/>
      </g>
      <g id="Group_122" data-name="Group 122" transform="translate(17.96 70.614)">
        <path id="Path_243" data-name="Path 243" d="M702.489,922.046a78.7,78.7,0,0,0,4.49-10.318c-.862,5.034-.816,8.662-2.177,12.812a86.739,86.739,0,0,1,1.451,17.846c-1.882-1.406-3.764-2.88-5.669-4.4a92.735,92.735,0,0,0-1.179-9.978c.952-1.882,1.973-3.855,3.084-5.964Zm48.867,1a31.427,31.427,0,0,1-3.288.952c.408-6.417.68-11.7.816-15.9q1.871,9.286,2.472,14.943ZM697.5,965.675a68.1,68.1,0,0,0,2.744-12.064q2.381.918,4.9,1.837a120.768,120.768,0,0,1-2.857,13.651C699.9,968.215,698.294,967.058,697.5,965.675Z" transform="translate(-697.5 -908.1)" fill="#1b8568" fill-rule="evenodd"/>
      </g>
    </g>
    <g id="Group_565" data-name="Group 565" transform="translate(-659.217 7036)">
      <g id="Group_537" data-name="Group 537" transform="translate(114.676 59.944)">
        <rect id="Rectangle_76" data-name="Rectangle 76" width="225.974" height="123.03" rx="10" transform="translate(0 0)" fill="#fcfbfc" stroke="#c8c4ff" stroke-width="4"/>
        <g id="Group_529" data-name="Group 529" transform="translate(11.215 10.022)">
          <path id="Path_2107" data-name="Path 2107" d="M232.691,109.18a2.385,2.385,0,1,1-2.385-2.385A2.386,2.386,0,0,1,232.691,109.18Z" transform="translate(-227.921 -106.795)" fill="#c8c4ff"/>
          <path id="Path_2108" data-name="Path 2108" d="M239.013,109.18a2.385,2.385,0,1,1-2.385-2.385A2.386,2.386,0,0,1,239.013,109.18Z" transform="translate(-224.283 -106.795)" fill="#e6e6e6"/>
          <path id="Path_2109" data-name="Path 2109" d="M244.883,109.339a2.385,2.385,0,1,1-2.385-2.385A2.386,2.386,0,0,1,244.883,109.339Z" transform="translate(-220.905 -106.703)" fill="#c8c4ff"/>
        </g>
        <g id="Group_532" data-name="Group 532" transform="translate(23.434 25.108)">
          <g id="Group_530" data-name="Group 530">
            <rect id="Rectangle_77" data-name="Rectangle 77" width="124.328" height="1.569" fill="#c8c4ff"/>
            <rect id="Rectangle_78" data-name="Rectangle 78" width="176.511" height="1.569" transform="translate(5.775 8.453)" fill="#c8c4ff"/>
            <rect id="Rectangle_79" data-name="Rectangle 79" width="136.338" height="1.569" transform="translate(15.818 16.906)" fill="#c8c4ff"/>
            <rect id="Rectangle_80" data-name="Rectangle 80" width="142.364" height="1.569" transform="translate(25.694 25.359)" fill="#c8c4ff"/>
            <rect id="Rectangle_81" data-name="Rectangle 81" width="96.165" height="1.569" transform="translate(39.085 33.813)" fill="#c8c4ff"/>
          </g>
          <g id="Group_531" data-name="Group 531" transform="translate(0 43.856)">
            <rect id="Rectangle_82" data-name="Rectangle 82" width="55.991" height="1.569" transform="translate(0 33.812)" fill="#f1effd"/>
            <rect id="Rectangle_83" data-name="Rectangle 83" width="136.338" height="1.569" transform="translate(5.775 25.359)" fill="#f1effd"/>
            <rect id="Rectangle_84" data-name="Rectangle 84" width="176.511" height="1.569" transform="translate(15.818 16.906)" fill="#f1effd"/>
            <rect id="Rectangle_85" data-name="Rectangle 85" width="96.165" height="1.569" transform="translate(25.694 8.453)" fill="#f1effd"/>
            <rect id="Rectangle_86" data-name="Rectangle 86" width="116.251" height="1.569" transform="translate(39.085)" fill="#f1effd"/>
          </g>
        </g>
        <g id="Group_536" data-name="Group 536" transform="translate(11.215 23.602)">
          <g id="Group_533" data-name="Group 533">
            <rect id="Rectangle_87" data-name="Rectangle 87" width="2.009" height="2.009" fill="#e6e6e6"/>
          </g>
          <g id="Group_534" data-name="Group 534" transform="translate(0 8.154)">
            <path id="Path_2110" data-name="Path 2110" d="M233.729,189.787H231.72v-4.1h2.009Zm0-10.242H231.72v-4.1h2.009Zm0-10.24H231.72v-4.1h2.009Zm0-10.242H231.72v-4.1h2.009Zm0-10.242H231.72v-4.1h2.009Zm0-10.24H231.72v-4.1h2.009Zm0-10.242H231.72v-4.1h2.009Z" transform="translate(-231.72 -124.242)" fill="#e6e6e6"/>
          </g>
          <g id="Group_535" data-name="Group 535" transform="translate(0 79.844)">
            <rect id="Rectangle_88" data-name="Rectangle 88" width="2.009" height="2.009" fill="#e6e6e6"/>
          </g>
        </g>
      </g>
      <g id="Group_558" data-name="Group 558" transform="translate(185.347 0)">
        <rect id="Rectangle_98" data-name="Rectangle 98" width="57.006" height="35.138" rx="4" transform="translate(0)" fill="#20b089"/>
        <text id="_" data-name="&lt;/&gt;" transform="translate(12.231 19.799)" fill="#f9fbfc" font-size="17" font-family="FiraSans-Medium, Fira Sans" font-weight="500"><tspan x="0" y="0">&lt;/&gt;</tspan></text>
      </g>
      <g id="Group_560" data-name="Group 560" transform="translate(0 54.218)">
        <rect id="Rectangle_99" data-name="Rectangle 99" width="64.319" height="43.02" rx="4" transform="translate(0 0)" fill="#c8c4ff"/>
        <g id="Group_559" data-name="Group 559" transform="translate(19.014 8.36)">
          <path id="Path_2143" data-name="Path 2143" d="M136.827,106.777a10.556,10.556,0,0,0,14.125,15.346l6.751,6.751a.731.731,0,0,0,1.032,0l1.9-1.9a.731.731,0,0,0,0-1.032l-6.751-6.751a10.557,10.557,0,0,0-17.053-12.417Zm13.549,11.842a7.465,7.465,0,1,1,0-10.557A7.473,7.473,0,0,1,150.375,118.619Z" transform="translate(-134.553 -102.788)" fill="#f9fbfc"/>
        </g>
      </g>
      <g id="Group_561" data-name="Group 561" transform="translate(315.966 85.182)">
        <rect id="Rectangle_100" data-name="Rectangle 100" width="49.368" height="35.171" rx="4" transform="translate(0 1.106)" fill="#21144d"/>
        <text id="_2" data-name="{ }" transform="translate(13.391 24)" fill="#f1f2f2" font-size="22" font-family="FiraSans-Medium, Fira Sans" font-weight="500"><tspan x="0" y="0">{ }</tspan></text>
      </g>
    </g>
  </g>
</svg>
