<svg id="Ticketmaster_logo" data-name="Ticketmaster logo" xmlns="http://www.w3.org/2000/svg" width="298.941" height="40.116" viewBox="0 0 298.941 40.116">
  <path id="Path_2203" data-name="Path 2203" d="M185.738,35.328h-.1c-2.421,3.053-4.843,4.788-8.734,4.788-4.894,0-8.361-2.736-8.361-7.734,0-8.945,9.994-9.629,16.621-9.629h2.473a8.445,8.445,0,0,0,.21-2.316c0-2.734-2.947-3.524-5.419-3.524a20.885,20.885,0,0,0-8.894,2.1l1-5.63a27.688,27.688,0,0,1,9.212-1.628c5.419,0,10.521,2,10.521,8.362,0,3.632-2.68,14.263-3.314,19.367H185l.734-4.159m-6.888-.365c5.257,0,6.888-3.634,8-8h-2.474c-3.419,0-9.1.579-9.1,5.157,0,1.9,1.79,2.844,3.582,2.844ZM2.957,12.364H8.062L9.271,6.791l7.576-2.477-1.736,8.05h6.316l-1.1,5.159H14.007L11.43,29.361a11.071,11.071,0,0,0-.317,2.633A2.5,2.5,0,0,0,13.8,34.623a9.457,9.457,0,0,0,3.421-.633l-1.213,5.474a19.067,19.067,0,0,1-3.788.63c-4.786,0-8.156-1.893-8.156-7.1a29.416,29.416,0,0,1,.9-6.317l2-9.152H1.85Zm21.368,0h7.048l-5.789,27.1h-7.05l5.79-27.1M26.9.685H33.95L32.479,7.419H25.427L26.9.685Zm25.764,17.89a9.528,9.528,0,0,0-5.157-1.37c-5.63,0-8.787,5.262-8.787,10.369,0,3.521,1.156,7.048,6,7.048a13.9,13.9,0,0,0,5.737-1.366l-.788,5.578a15.177,15.177,0,0,1-6.787,1.261c-7,0-11.524-4.681-11.524-11.681,0-9.473,6.262-16.679,16-16.679A24.942,24.942,0,0,1,54.4,12.787l-1.738,5.789ZM60.4,0h7.05L62.767,22.205h.1l9.84-9.842h9.154l-13,12.368,8.156,14.732H69.082l-7-14.366h-.108L58.923,39.464h-6.89Zm46.883,12.364h5.1L113.6,6.791l7.578-2.477-1.735,8.05h6.311l-1.107,5.159h-6.312l-2.578,11.838a11.19,11.19,0,0,0-.317,2.633,2.5,2.5,0,0,0,2.684,2.629,9.431,9.431,0,0,0,3.421-.633l-1.215,5.474a18.994,18.994,0,0,1-3.785.63c-4.787,0-8.156-1.893-8.156-7.1a29.61,29.61,0,0,1,.895-6.317l2-9.152h-5.1l1.1-5.16Z" transform="translate(-1.85)" fill="silver"/>
  <path id="Path_2204" data-name="Path 2204" d="M667.646,53.755c0-6.9-4.42-10.313-11.1-10.313-8.893,0-15.415,8.1-15.415,16.52,0,8.053,5.262,11.838,13.049,11.838a30.075,30.075,0,0,0,8.628-1.523l.895-5.58a19.83,19.83,0,0,1-8.311,1.946c-4.512,0-7.148-1.6-7.486-5.863h0c-.013-.247-.036-.487-.036-.746V59.8h0a14.681,14.681,0,0,1,1.146-5.374c1.355-3.45,3.272-5.833,7.425-5.833,2.95,0,4.474,1.631,4.474,4.525a11,11,0,0,1-.159,1.844h-9.647a16.6,16.6,0,0,0-.749,4.839h16.606a29.331,29.331,0,0,0,.682-6.05Zm23.873-6.683c.207-1.053.418-2.158.577-3h6.577l-.632,3.632h.1a9.884,9.884,0,0,1,8.314-4.262c3.211,0,6.524,1.893,6.895,5.155h.1c1.792-3.524,5.735-5.155,9.523-5.155a7.538,7.538,0,0,1,7.528,7.419,30.761,30.761,0,0,1-1.212,7.364l-2.84,12.946H719.4l2.844-13.21a31.833,31.833,0,0,0,.89-5.786,3.19,3.19,0,0,0-3.312-3.263c-4.9,0-6.107,5.683-7,9.366l-2.789,12.892h-7.052l2.843-13.21a31.33,31.33,0,0,0,.894-5.786,3.192,3.192,0,0,0-3.315-3.263c-4.787,0-6.1,5.738-7,9.366L693.62,71.171h-7.05l4.949-24.1Zm86.41,2.518a11.431,11.431,0,0,0-4.7-.993c-2.1,0-4.733.582-4.733,2.736,0,3.421,9.155,4.687,9.155,11.315,0,7.049-6.155,9.154-12.21,9.154a19.315,19.315,0,0,1-8.26-1.631l1.525-5.63a13.229,13.229,0,0,0,6.735,2.1c2.37,0,4.841-.791,4.841-3,0-4.366-9.154-4.788-9.154-11.577,0-6.368,6.156-8.629,11.734-8.629a28.8,28.8,0,0,1,6.6.833l-1.528,5.313Zm4.5-5.518h5.1l1.21-5.573,7.58-2.477-1.734,8.05h6.312L799.8,49.23h-6.309L790.91,61.068a11.11,11.11,0,0,0-.317,2.633,2.5,2.5,0,0,0,2.683,2.629,9.4,9.4,0,0,0,3.417-.633l-1.206,5.474a19.065,19.065,0,0,1-3.79.63c-4.788,0-8.157-1.893-8.157-7.1a29.515,29.515,0,0,1,.9-6.317l2-9.152h-5.1l1.1-5.16Zm47.8,3.632q.318-1.737.636-3.632h6.735l-.949,5.107h.106c1.264-2.946,4.738-5.737,8-5.737a11.292,11.292,0,0,1,2.684.261l-1.475,6.9a8.88,8.88,0,0,0-2.683-.422c-5,0-7.42,4.474-8.313,8.84l-2.524,12.155H825.4L830.234,47.7Zm-4.888,6.051c0-6.9-4.422-10.313-11.1-10.313-8.893,0-15.419,8.1-15.419,16.52,0,8.053,5.262,11.838,13.049,11.838a30.1,30.1,0,0,0,8.63-1.523l.893-5.58a19.82,19.82,0,0,1-8.312,1.946c-4.513,0-7.147-1.6-7.487-5.863h-.006c-.012-.247-.038-.487-.038-.746,0-.049.007-.1.01-.152,0-.024-.006-.05-.006-.078h.007a14.484,14.484,0,0,1,1.144-5.374c1.356-3.45,3.271-5.833,7.425-5.833,2.946,0,4.474,1.631,4.474,4.525a11.017,11.017,0,0,1-.159,1.844H808.8a16.7,16.7,0,0,0-.749,4.839h16.609a29.226,29.226,0,0,0,.685-6.05Z" transform="translate(-564.574 -31.707)" fill="silver"/>
  <g id="Group_582" data-name="Group 582" transform="translate(286.748 10.746)">
    <path id="Path_2205" data-name="Path 2205" d="M2402.433,89.734a6.093,6.093,0,1,1-6.1,6.095A6.105,6.105,0,0,1,2402.433,89.734Zm.019,11.278a5.188,5.188,0,1,0-4.949-5.184,4.964,4.964,0,0,0,4.949,5.184Zm-2.345-8.762h2.731c1.642,0,2.446.66,2.446,2.012a1.817,1.817,0,0,1-1.839,1.973l2.033,3.156h-1.237l-2-3.156h-.977v3.156h-1.161Zm1.161,3.071h1.382c.9,0,1.478-.184,1.478-1.109,0-.812-.729-1.051-1.478-1.051h-1.382v2.161Z" transform="translate(-2396.337 -89.734)" fill="silver"/>
  </g>
</svg>
