<svg xmlns="http://www.w3.org/2000/svg" width="148.879" height="40" viewBox="0 0 148.879 40">
  <path id="Netflix" d="M114.977,223.514q3.139.24,6.269.518V187.223h-6.269ZM14.124,209.857,5.958,187.223H0v40q3.129-.445,6.269-.854v-21.75l7.26,20.857q3.425-.4,6.863-.751v-37.5H14.124Zm12.3,14.281q8.668-.788,17.414-1.294v-6.178q-5.589.323-11.145.762v-9.352c2.431-.024,5.631-.1,8.466-.063v-6.178c-2.265-.006-5.906.032-8.466.064v-8.443H43.836v-6.233H26.422Zm21.434-30.682h6.562v28.886q3.129-.118,6.269-.2V193.456h6.561v-6.233H47.855v6.233Zm23.411,28.519h6.269V207.712h8.5v-6.177h-8.5v-8.078H88.768v-6.233h-17.5v34.752Zm77.612-34.752h-6.886l-4.54,10.522-4.079-10.522h-6.783l7.289,18.8-7.957,18.444q3.3.322,6.59.686l4.628-10.724,4.583,11.822q3.581.461,7.145.966l.01,0-8.167-21.063Zm-49.823,0H92.787v35.062q8.546.294,17.022.86v-6.177q-5.361-.358-10.753-.608Z" transform="translate(0 -187.22)" fill="silver"/>
</svg>
