<svg xmlns="http://www.w3.org/2000/svg" width="107" height="107" viewBox="0 0 107 107">
  <g id="Multi_Compatibility" data-name="Multi Compatibility" transform="translate(-426 -8596)">
    <g id="terminal" transform="translate(427 8597)">
      <g id="Group_599" data-name="Group 599">
        <g id="Group_598" data-name="Group 598">
          <path id="Path_2226" data-name="Path 2226" d="M95.455,0H9.545A9.545,9.545,0,0,0,0,9.545V95.454A9.545,9.545,0,0,0,9.545,105H95.454A9.545,9.545,0,0,0,105,95.455V9.545A9.545,9.545,0,0,0,95.455,0Zm4.773,95.455a4.773,4.773,0,0,1-4.773,4.773H9.545a4.773,4.773,0,0,1-4.773-4.773V9.545A4.773,4.773,0,0,1,9.545,4.773H95.454a4.773,4.773,0,0,1,4.773,4.773Z" fill="#2b225c" stroke="#2b225c" stroke-width="2"/>
        </g>
      </g>
    </g>
    <g id="puzzle_1_" data-name="puzzle (1)" transform="translate(510.361 8617.982) rotate(90)">
      <path id="Path_2229" data-name="Path 2229" d="M40.636,22.406a8.289,8.289,0,0,1-5.595-2.154v9.9h-6.7a10.639,10.639,0,0,0,.919-4.36A11.032,11.032,0,1,0,8.09,30.155H0V2.811A2.814,2.814,0,0,1,2.811,0H32.23a2.814,2.814,0,0,1,2.811,2.811V7.749a8.4,8.4,0,1,1,5.595,14.657Z" transform="translate(14)" fill="#02bf8c"/>
      <path id="Path_2230" data-name="Path 2230" d="M35.161,27.255a8.407,8.407,0,0,0,8.264,10,8.305,8.305,0,0,0,5.6-2.157v7.762a2.81,2.81,0,0,1-2.8,2.8H16.813a2.808,2.808,0,0,1-2.8-2.8V35.1a8.4,8.4,0,1,1-5.6-14.655,8.305,8.305,0,0,1,5.6,2.157V15.411H27.572a8.4,8.4,0,1,1,9.3,0H49.028V22.6a8.4,8.4,0,0,0-13.867,4.652Z" transform="translate(0 17.378)" fill="#02bf8c"/>
    </g>
  </g>
</svg>
