<svg id="Group_146" data-name="Group 146" xmlns="http://www.w3.org/2000/svg" width="105.38" height="107.328" viewBox="0 0 105.38 107.328">
  <g id="noun-time-1476818" transform="translate(0)">
    <path id="Path_284" data-name="Path 284" d="M167.274,63.983A31.437,31.437,0,0,0,151.1,68.458a35.918,35.918,0,0,0-7.571-4.245,23.634,23.634,0,1,0-26.961,0,36.026,36.026,0,0,0-22.486,33.27V105.4a12.62,12.62,0,0,0,12.62,12.62h38.2a31.664,31.664,0,1,0,22.37-54.036ZM113.353,44.709a16.749,16.749,0,1,1,4.906,11.845A16.751,16.751,0,0,1,113.353,44.709Zm-12.39,60.69V97.482a29.025,29.025,0,0,1,44.4-24.666,31.551,31.551,0,0,0-5.621,38.318H106.7a5.738,5.738,0,0,1-5.736-5.736Zm66.311,15.029a24.782,24.782,0,1,1,17.522-7.258A24.778,24.778,0,0,1,167.274,120.427Z" transform="translate(-94.079 -21.168)" fill="#2b225c"/>
  </g>
  <path id="Exclusion_1" data-name="Exclusion 1" d="M32.642,65.283A32.65,32.65,0,0,1,19.936,2.565,32.65,32.65,0,0,1,45.347,62.718,32.437,32.437,0,0,1,32.642,65.283ZM30.724,17.776a3.442,3.442,0,0,0-3.442,3.442v15.6a3.467,3.467,0,0,0,1.008,2.434,3.42,3.42,0,0,0,2.434,1.008H42.656a3.442,3.442,0,1,0,0-6.883h-8.49V21.218a3.442,3.442,0,0,0-3.442-3.442Z" transform="translate(40.097 42.044)" fill="#02bf8c"/>
</svg>
