<svg xmlns="http://www.w3.org/2000/svg" width="470.512" height="391.581" viewBox="0 0 470.512 391.581">
  <g id="Group_203" data-name="Group 203" transform="translate(-138 -4893.949)">
    <g id="Group_202" data-name="Group 202" transform="translate(138 4927.781)">
      <g id="Group_176" data-name="Group 176" transform="translate(0 0)">
        <g id="Group_156" data-name="Group 156" transform="translate(0 216.834)">
          <rect id="Rectangle_43" data-name="Rectangle 43" width="34.297" height="91.385" transform="translate(34.297 91.385) rotate(180)" fill="#e6e6e6"/>
          <path id="Path_309" data-name="Path 309" d="M64.538,405.921H58.024V381.771H71.368Z" transform="translate(-58.024 -314.536)" fill="#f3f1fd"/>
          <rect id="Rectangle_44" data-name="Rectangle 44" width="34.297" height="91.385" transform="translate(229.989 91.385) rotate(180)" fill="#e6e6e6"/>
          <rect id="Rectangle_45" data-name="Rectangle 45" width="201.377" height="84.794" transform="translate(201.377 84.794) rotate(180)" fill="#f3f1fd"/>
          <path id="Path_310" data-name="Path 310" d="M213.91,405.921h6.514V381.771H207.08Z" transform="translate(-19.048 -314.536)" fill="#f0f0f0"/>
          <g id="Group_153" data-name="Group 153" transform="translate(134.355 9.346)">
            <path id="Path_311" data-name="Path 311" d="M225.484,401.12H164.529V335.881h60.955Zm-59.693-1.261h58.432V337.143H165.791Z" transform="translate(-164.529 -335.881)" fill="#e6e6e6"/>
          </g>
          <g id="Group_154" data-name="Group 154" transform="translate(70.211 9.346)">
            <path id="Path_312" data-name="Path 312" d="M174.636,401.12H113.681V335.881h60.955Zm-59.693-1.261h58.432V337.143H114.942Z" transform="translate(-113.681 -335.881)" fill="#e6e6e6"/>
          </g>
          <g id="Group_155" data-name="Group 155" transform="translate(6.064 9.346)">
            <path id="Path_313" data-name="Path 313" d="M123.787,401.12H62.831V335.881h60.956Zm-59.695-1.261h58.433V337.143H64.092Z" transform="translate(-62.831 -335.881)" fill="#e6e6e6"/>
          </g>
        </g>
        <g id="Group_163" data-name="Group 163" transform="translate(39.399 151.923)">
          <rect id="Rectangle_55" data-name="Rectangle 55" width="39.617" height="60.43" rx="4.366" transform="translate(0 4.48)" fill="#fafafa"/>
          <rect id="Rectangle_56" data-name="Rectangle 56" width="39.617" height="5.194" rx="1.466" fill="#e6e6e6"/>
        </g>
        <g id="Group_164" data-name="Group 164" transform="translate(157.348 169.722)">
          <rect id="Rectangle_57" data-name="Rectangle 57" width="28.754" height="43.86" rx="3.169" transform="translate(0 3.251)" fill="#f0f0f0"/>
          <rect id="Rectangle_58" data-name="Rectangle 58" width="28.754" height="3.77" rx="1.064" fill="#e6e6e6"/>
        </g>
        <g id="Group_165" data-name="Group 165" transform="translate(69.369 175.438)">
          <rect id="Rectangle_59" data-name="Rectangle 59" width="54.443" height="35.239" rx="6" transform="translate(0 6.156)" fill="#f3f1fd"/>
          <rect id="Rectangle_60" data-name="Rectangle 60" width="54.443" height="7.138" rx="2.014" fill="#f5f5f5"/>
        </g>
        <g id="Group_170" data-name="Group 170" transform="translate(264.926 183.677)">
          <rect id="Rectangle_61" data-name="Rectangle 61" width="6.356" height="104.253" transform="translate(28.368 124.542) rotate(180)" fill="#c8c4ff"/>
          <g id="Group_167" data-name="Group 167" transform="translate(0 0)">
            <g id="Group_166" data-name="Group 166">
              <rect id="Rectangle_62" data-name="Rectangle 62" width="34.426" height="20.288" transform="translate(171.16 0)" fill="#f3f1fd"/>
              <rect id="Rectangle_63" data-name="Rectangle 63" width="171.16" height="20.288" transform="translate(171.16 20.288) rotate(180)" fill="#f3f1fd"/>
            </g>
          </g>
          <g id="Group_169" data-name="Group 169" transform="translate(0 54.176)">
            <g id="Group_168" data-name="Group 168">
              <rect id="Rectangle_64" data-name="Rectangle 64" width="34.426" height="20.288" transform="translate(171.16)" fill="#f3f1fd"/>
              <rect id="Rectangle_65" data-name="Rectangle 65" width="171.16" height="20.288" transform="translate(171.16 20.288) rotate(180)" fill="#f3f1fd"/>
            </g>
          </g>
          <rect id="Rectangle_66" data-name="Rectangle 66" width="6.355" height="104.253" transform="translate(199.527 124.542) rotate(180)" fill="#f3f1fd"/>
          <rect id="Rectangle_67" data-name="Rectangle 67" width="6.356" height="104.253" transform="translate(171.16 124.542) rotate(180)" fill="#f3f1fd"/>
          <rect id="Rectangle_68" data-name="Rectangle 68" width="6.356" height="104.253" transform="translate(6.356 124.542) rotate(180)" fill="#c8c4ff"/>
        </g>
        <g id="Group_175" data-name="Group 175" transform="translate(120.296)">
          <g id="Group_174" data-name="Group 174" transform="translate(0)">
            <rect id="Rectangle_72" data-name="Rectangle 72" width="80.914" height="90.744" transform="translate(86.62 90.744) rotate(180)" fill="#f0f0f0"/>
            <rect id="Rectangle_73" data-name="Rectangle 73" width="85.36" height="90.744" transform="translate(85.36 90.744) rotate(180)" fill="#f5f5f5"/>
            <rect id="Rectangle_74" data-name="Rectangle 74" width="76.442" height="71.058" transform="translate(7.151 83.593) rotate(-90)" fill="#fff"/>
            <path id="Path_320" data-name="Path 320" d="M202.581,189.479l-43.525-18.315v31.7l32.2,13.541a14.607,14.607,0,1,0,11.326-26.929Z" transform="translate(-151.902 -152.773)" fill="#f0f0f0"/>
          </g>
        </g>
      </g>
    </g>
    <g id="Group_201" data-name="Group 201" transform="translate(149.693 4881.093)">
      <g id="Character" transform="translate(0 12.855)">
        <g id="Group_189" data-name="Group 189" transform="translate(0 0)">
          <g id="Group_188" data-name="Group 188">
            <path id="Path_321" data-name="Path 321" d="M201.542,136.109c1.214-5.324,14.5-10.387,25.9-2.581a27.79,27.79,0,0,1,10.759,32c-6.119,18.1,25.8,17.432,33.189,47.952,5.836,24.1.424,58.11-32.139,56.261-49.706-2.823-45.415-51.408-47.6-76.935S162.354,138.689,201.542,136.109Z" transform="translate(-46.753 -126.979)" fill="#21144d"/>
            <path id="Path_322" data-name="Path 322" d="M193.194,188.722c-.21,3.694-.644,7.078-1.129,10.588-.494,3.478-1.147,6.93-1.9,10.376-.771,3.439-1.585,6.879-2.671,10.274a92.726,92.726,0,0,1-3.691,10.1l-1.116,2.482c-.157.377-.459.927-.7,1.391-.253.482-.525.9-.791,1.356a38.405,38.405,0,0,1-3.464,4.621,80.173,80.173,0,0,1-7.592,7.627,141.855,141.855,0,0,1-16.651,12.606l-3.385-4.367c2.385-2.309,4.81-4.688,7.157-7.067,2.368-2.364,4.663-4.791,6.859-7.249A92.22,92.22,0,0,0,170.265,234a34.517,34.517,0,0,0,2.375-3.739c.142-.3.316-.6.435-.882.123-.305.233-.5.384-.919l.849-2.228a124.967,124.967,0,0,0,5.035-18.775c.647-3.216,1.105-6.479,1.592-9.734.47-3.228.84-6.6,1.125-9.7Z" transform="translate(-54.827 -111.428)" fill="#ffa791"/>
            <path id="Path_323" data-name="Path 323" d="M179.753,178.229c-4.5,1.146-7.643,19.649-7.643,19.649l17.2,11.7s7.074-21.936,3.615-26.88C189.321,177.545,186.313,176.558,179.753,178.229Z" transform="translate(-48.979 -114.229)" fill="#20b089"/>
            <path id="Path_324" data-name="Path 324" d="M179.193,181.337l-3.454,18.65,6.964,4.722Z" transform="translate(-48.014 -113.205)" opacity="0.2"/>
            <path id="Path_325" data-name="Path 325" d="M154.162,240.3l-11.584,1.849,6.6,7.32s6.829-1.562,8.026-5.936Z" transform="translate(-56.828 -97.535)" fill="#ffa791"/>
            <g id="Group_177" data-name="Group 177" transform="translate(80.27 144.613)">
              <path id="Path_326" data-name="Path 326" d="M138.249,243.208l6.607,7.157,5.476-1.286-6.6-7.319Z" transform="translate(-138.249 -241.759)" fill="#ffa791"/>
            </g>
            <path id="Path_327" data-name="Path 327" d="M199.811,429.426H188.9l-.728-25.265h10.91Z" transform="translate(-44.71 -53.985)" fill="#ffb573"/>
            <path id="Path_328" data-name="Path 328" d="M261.78,403.352l-10.1,4.124-12.8-22.065,10.1-4.124Z" transform="translate(-31.233 -60.064)" fill="#ffb573"/>
            <path id="Path_329" data-name="Path 329" d="M249.979,402.123l10.536-6.262a.864.864,0,0,1,1.129.2l6.154,7.624a1.751,1.751,0,0,1-.513,2.561c-3.711,2.12-5.609,2.956-10.243,5.71-2.851,1.694-9.553,7.5-13.489,9.838-3.85,2.289-6.46-1.429-5.03-2.756a37.344,37.344,0,0,0,10.23-15.4A2.849,2.849,0,0,1,249.979,402.123Z" transform="translate(-31.434 -56.225)" fill="#263238"/>
            <path id="Path_330" data-name="Path 330" d="M192.171,423.123h12.258a.862.862,0,0,1,.87.746l1.4,9.7a1.753,1.753,0,0,1-1.749,1.94c-4.273-.073-6.333-.324-11.722-.324-3.316,0-10.176.344-14.754.344-4.48,0-4.824-4.529-2.916-4.939,8.549-1.838,11.913-4.375,14.794-6.793A2.851,2.851,0,0,1,192.171,423.123Z" transform="translate(-48.355 -48.946)" fill="#263238"/>
            <g id="Group_178" data-name="Group 178" transform="translate(143.465 321.228)" opacity="0.2">
              <path id="Path_331" data-name="Path 331" d="M188.174,404.167l.373,13.023h10.914l-.374-13.023Z" transform="translate(-188.174 -375.212)"/>
              <path id="Path_332" data-name="Path 332" d="M248.988,381.291l-10.1,4.125,6.6,11.371,10.1-4.125Z" transform="translate(-174.697 -381.291)"/>
            </g>
            <path id="Path_333" data-name="Path 333" d="M178.42,178.735s-5.2,1.832,5.214,65.847h44.308c-.744-18.033-.765-29.153,7.854-66.162a130.71,130.71,0,0,0-18.816-2.48,140.831,140.831,0,0,0-20.119,0C188.22,176.73,178.42,178.735,178.42,178.735Z" transform="translate(-47.647 -114.736)" fill="#20b089"/>
            <path id="Path_334" data-name="Path 334" d="M222.126,189.4c-4.012,1-7.721,5.38-7.278,13.442a19.385,19.385,0,0,0,3.7,10.151c.709-6.2,1.9-13.4,3.785-22.619Z" transform="translate(-37.63 -111.063)" opacity="0.2"/>
            <path id="Path_335" data-name="Path 335" d="M194.559,193.593s5.757,3.552,7.267,8.826c6.248-4.578,14.746-17.327,15.083-24.955a1.67,1.67,0,0,0-1.676-1.692,21.276,21.276,0,0,0-2.886.118Z" transform="translate(-43.013 -114.685)" fill="#fafafa"/>
            <path id="Path_336" data-name="Path 336" d="M196.863,193.592s-5.755,3.552-7.266,8.826c-6.719-4.923-2.991-21.167.857-26.577a19.162,19.162,0,0,1,4.077.049Z" transform="translate(-45.317 -114.684)" fill="#fafafa"/>
            <path id="Path_337" data-name="Path 337" d="M211.34,157.966c-1.268,6.474-2.535,18.335,1.994,22.655,0,0-5.983,11.481-17.788,17.7-8.974-7.172-2.332-17.7-2.332-17.7,7.219-1.724,7.033-7.081,5.776-12.11Z" transform="translate(-43.999 -119.416)" fill="#ffa791"/>
            <path id="Path_338" data-name="Path 338" d="M204.594,161.366l-7.31,6.236a20.741,20.741,0,0,1,.62,3.571c2.758-.4,7.095-2.748,7.687-5.747C205.872,164.006,204.829,162.036,204.594,161.366Z" transform="translate(-42.289 -118.513)" opacity="0.2"/>
            <path id="Path_339" data-name="Path 339" d="M222.478,153.745c-2.994,10.406-4.038,14.874-10.569,19.1-9.826,6.363-21.952.411-22.128-10.678-.159-9.983,4.762-25.322,16.022-27.225A14.768,14.768,0,0,1,222.478,153.745Z" transform="translate(-44.284 -125.594)" fill="#ffa791"/>
            <path id="Path_340" data-name="Path 340" d="M197.857,136.2c.492,3.516,19.76,14.837,23.417,8.931s-1.6-10.338-9.8-11.463A20.79,20.79,0,0,0,197.857,136.2Z" transform="translate(-42.136 -125.93)" fill="#21144d"/>
            <path id="Path_341" data-name="Path 341" d="M207.9,137.133c-2.367,3.121,2.645,25.543,9.826,23.436s6.847-9.286,1.858-15.911A19.242,19.242,0,0,0,207.9,137.133Z" transform="translate(-39.625 -124.953)" fill="#21144d"/>
            <g id="Group_179" data-name="Group 179" transform="translate(128.054 129.846)">
              <path id="Path_342" data-name="Path 342" d="M183.933,230.093s-8.606,84.04-7.891,117.309c.744,34.6,13.425,113.529,13.425,113.529h14.751s-2.334-76.9-1.03-110.888c1.421-37.05,13.191-119.951,13.191-119.951Z" transform="translate(-176 -230.093)" fill="#407bff"/>
              <path id="Path_343" data-name="Path 343" d="M183.933,230.093s-8.606,84.04-7.891,117.309c.744,34.6,13.425,113.529,13.425,113.529h14.751s-2.334-76.9-1.03-110.888c1.421-37.05,13.191-119.951,13.191-119.951Z" transform="translate(-176 -230.093)" fill="#21144d"/>
            </g>
            <path id="Path_344" data-name="Path 344" d="M203.2,414.182H185.9l-1.27-5.521,19.384-.676Z" transform="translate(-45.653 -52.969)" fill="#263238"/>
            <path id="Path_345" data-name="Path 345" d="M198.475,247.7c-10.883,21.893-2.185,61.83,1.663,76.688,1.975-22.316,5.3-49.593,7.895-69.625C206.383,243.433,203.493,237.61,198.475,247.7Z" transform="translate(-43.375 -96.948)" opacity="0.2"/>
            <g id="Group_180" data-name="Group 180" transform="translate(147.688 129.846)">
              <path id="Path_346" data-name="Path 346" d="M191.511,230.093s10.036,87.37,17.617,115.419c9,33.3,45.555,90.12,45.555,90.12l13.773-5.623s-23.607-64.695-30.487-82.238c-14.684-37.444-2.115-93.245-13.85-117.679Z" transform="translate(-191.511 -230.093)" fill="#407bff"/>
              <path id="Path_347" data-name="Path 347" d="M191.511,230.093s10.036,87.37,17.617,115.419c9,33.3,45.555,90.12,45.555,90.12l13.773-5.623s-23.607-64.695-30.487-82.238c-14.684-37.444-2.115-93.245-13.85-117.679Z" transform="translate(-191.511 -230.093)" fill="#21144d"/>
            </g>
            <path id="Path_348" data-name="Path 348" d="M258.217,389.511l-17.087,6.976-4.013-4.629,19.73-9.113Z" transform="translate(-31.702 -59.677)" fill="#263238"/>
            <g id="Group_182" data-name="Group 182">
              <path id="Path_349" data-name="Path 349" d="M99.93,146.2A74.429,74.429,0,1,0,205,152.611,74.432,74.432,0,0,0,99.93,146.2Zm90.849,102.653a62.651,62.651,0,1,1,5.4-88.438A62.651,62.651,0,0,1,190.779,248.855Z" transform="translate(-74.832 -127.51)" fill="#c8c4ff"/>
              <path id="Path_350" data-name="Path 350" d="M142.19,255.672A57.414,57.414,0,1,1,203,201.864,57.413,57.413,0,0,1,142.19,255.672Z" transform="translate(-71.26 -123.939)" fill="#c8c4ff" opacity="0.3"/>
              <g id="Group_181" data-name="Group 181" transform="translate(17.016 17.066)" opacity="0.5">
                <path id="Path_351" data-name="Path 351" d="M149.179,141.049c-.362-.023-.715-.044-1.078-.056L88.461,193.776c-.033.362-.054.724-.077,1.087a57.2,57.2,0,0,0,9.438,35.187l85.147-75.358A57.173,57.173,0,0,0,149.179,141.049Z" transform="translate(-88.276 -140.993)" fill="#fafafa"/>
                <path id="Path_352" data-name="Path 352" d="M185.493,156.074,99.514,232.168a56.989,56.989,0,0,0,9.672,8.79l83.857-74.217A57,57,0,0,0,185.493,156.074Z" transform="translate(-85.289 -136.985)" fill="#fafafa"/>
              </g>
              <path id="Path_353" data-name="Path 353" d="M183.214,232.109l-9.8,8.671a3.6,3.6,0,0,1-5.081-.31h0a3.6,3.6,0,0,1,.31-5.08l9.8-8.671a3.6,3.6,0,0,1,5.08.309h0A3.6,3.6,0,0,1,183.214,232.109Z" transform="translate(-50.222 -101.384)" fill="#c8c4ff"/>
              <path id="Path_354" data-name="Path 354" d="M178.774,229.773c7.385,6.5,14.447,13.28,21.414,20.149s13.784,13.868,20.521,20.94,13.346,14.254,19.9,21.488c6.149,7.591,14.532,13.2,15.785,25.129a6.029,6.029,0,0,1-5.366,6.626,6.155,6.155,0,0,1-1.983-.122c-11.684-2.692-16.239-11.7-23.026-18.722q-9.575-11.077-18.911-22.365-9.3-11.318-18.289-22.914c-5.971-7.749-11.845-15.584-17.4-23.7a4.946,4.946,0,0,1,7.35-6.5Z" transform="translate(-49.391 -100.66)" fill="#c8c4ff"/>
            </g>
            <path id="Path_360" data-name="Path 360" d="M217.894,159.151a7.921,7.921,0,0,1-5.049,3.323c-2.729.5-3.843-2-2.876-4.443.871-2.2,3.339-5.114,5.978-4.509C218.546,154.117,219.316,157.014,217.894,159.151Z" transform="translate(-39.008 -120.619)" fill="#ffa791"/>
            <path id="Path_363" data-name="Path 363" d="M244.453,404.652c-.043-.005-.086-.011-.129-.02a1.47,1.47,0,0,1-1.07-.962.881.881,0,0,1,.071-.886c.8-1.142,4.739-1,5.186-.977a.248.248,0,0,1,.23.167.26.26,0,0,1-.063.277C247.668,403.228,245.8,404.809,244.453,404.652Zm3.409-2.345c-1.578-.011-3.692.171-4.113.772a.369.369,0,0,0-.018.392.972.972,0,0,0,.7.654C245.165,404.289,246.422,403.6,247.861,402.306Z" transform="translate(-30.094 -54.615)" fill="#407bff"/>
            <path id="Path_364" data-name="Path 364" d="M247.94,402.927c-1.347-.156-3.742-1.08-4.118-2.145a.9.9,0,0,1,.38-1.064,1.364,1.364,0,0,1,1.118-.262c1.556.3,3.172,2.99,3.24,3.1a.259.259,0,0,1,0,.257.254.254,0,0,1-.22.133A2.933,2.933,0,0,1,247.94,402.927Zm-2.8-2.976a.832.832,0,0,0-.627.175c-.262.2-.248.366-.208.483.254.72,2.221,1.609,3.537,1.791-.586-.868-1.7-2.261-2.624-2.438C245.2,399.958,245.17,399.954,245.144,399.952Z" transform="translate(-29.934 -55.243)" fill="#407bff"/>
            <path id="Path_365" data-name="Path 365" d="M185.872,425.211a4.1,4.1,0,0,1-2.647-.672,1.435,1.435,0,0,1-.467-1.258.833.833,0,0,1,.439-.687c1.339-.737,5.686,1.489,6.176,1.744a.259.259,0,0,1-.068.483A18.629,18.629,0,0,1,185.872,425.211Zm-1.944-2.258a1.021,1.021,0,0,0-.482.094.322.322,0,0,0-.172.281.925.925,0,0,0,.3.827c.662.6,2.457.7,4.874.3A14.054,14.054,0,0,0,183.928,422.953Z" transform="translate(-46.151 -49.126)" fill="#407bff"/>
            <path id="Path_366" data-name="Path 366" d="M188.684,425.363a.264.264,0,0,1-.106-.023c-1.3-.589-3.872-2.942-3.671-4.177.048-.292.254-.657.971-.729a1.866,1.866,0,0,1,1.432.446c1.371,1.142,1.623,4.08,1.633,4.2a.26.26,0,0,1-.258.28Zm-2.6-4.423q-.076,0-.156.008c-.472.048-.5.237-.513.3-.122.742,1.625,2.592,2.951,3.395-.128-.854-.49-2.615-1.39-3.366A1.355,1.355,0,0,0,186.086,420.941Z" transform="translate(-45.581 -49.663)" fill="#407bff"/>
            <g id="Group_183" data-name="Group 183" transform="translate(134.611 126.913)">
              <path id="Path_368" data-name="Path 368" d="M227.527,228.108l1.133,3.967c.156.308-.209.621-.721.621h-45.6c-.4,0-.73-.2-.756-.447l-.4-3.967c-.028-.275.319-.506.756-.506h44.869A.806.806,0,0,1,227.527,228.108Z" transform="translate(-181.18 -227.776)" fill="#407bff"/>
              <path id="Path_369" data-name="Path 369" d="M227.527,228.108l1.133,3.967c.156.308-.209.621-.721.621h-45.6c-.4,0-.73-.2-.756-.447l-.4-3.967c-.028-.275.319-.506.756-.506h44.869A.806.806,0,0,1,227.527,228.108Z" transform="translate(-181.18 -227.776)" fill="#2b225c"/>
            </g>
            <g id="Group_187" data-name="Group 187" transform="translate(138.115 126.561)">
              <g id="Group_184" data-name="Group 184" transform="translate(35.64)">
                <path id="Path_370" data-name="Path 370" d="M213.134,233.2h1.2c.239,0,.422-.123.405-.275l-.565-5.153c-.016-.151-.225-.273-.465-.273h-1.2c-.239,0-.421.123-.405.273l.563,5.153C212.686,233.076,212.895,233.2,213.134,233.2Z" transform="translate(-212.105 -227.498)" fill="#407bff"/>
                <path id="Path_371" data-name="Path 371" d="M213.134,233.2h1.2c.239,0,.422-.123.405-.275l-.565-5.153c-.016-.151-.225-.273-.465-.273h-1.2c-.239,0-.421.123-.405.273l.563,5.153C212.686,233.076,212.895,233.2,213.134,233.2Z" transform="translate(-212.105 -227.498)" fill="#20b089"/>
              </g>
              <g id="Group_185" data-name="Group 185">
                <path id="Path_372" data-name="Path 372" d="M184.978,233.2h1.2c.239,0,.422-.123.405-.275l-.563-5.153c-.016-.151-.225-.273-.466-.273h-1.2c-.239,0-.421.123-.405.273l.563,5.153C184.529,233.076,184.739,233.2,184.978,233.2Z" transform="translate(-183.948 -227.498)" fill="#407bff"/>
                <path id="Path_373" data-name="Path 373" d="M184.978,233.2h1.2c.239,0,.422-.123.405-.275l-.563-5.153c-.016-.151-.225-.273-.466-.273h-1.2c-.239,0-.421.123-.405.273l.563,5.153C184.529,233.076,184.739,233.2,184.978,233.2Z" transform="translate(-183.948 -227.498)" fill="#20b089"/>
              </g>
              <g id="Group_186" data-name="Group 186" transform="translate(17.746)">
                <path id="Path_374" data-name="Path 374" d="M199,233.2h1.2c.239,0,.422-.123.405-.275l-.563-5.153c-.016-.151-.227-.273-.466-.273h-1.2c-.239,0-.422.123-.405.273l.563,5.153C198.549,233.076,198.758,233.2,199,233.2Z" transform="translate(-197.968 -227.498)" fill="#407bff"/>
                <path id="Path_375" data-name="Path 375" d="M199,233.2h1.2c.239,0,.422-.123.405-.275l-.563-5.153c-.016-.151-.227-.273-.466-.273h-1.2c-.239,0-.422.123-.405.273l.563,5.153C198.549,233.076,198.758,233.2,199,233.2Z" transform="translate(-197.968 -227.498)" fill="#20b089"/>
              </g>
            </g>
            <path id="Path_376" data-name="Path 376" d="M198.5,238.089l-10.76-4.809,3.066,10.662s6.833,1.551,9.8-1.875Z" transform="translate(-44.826 -99.4)" fill="#ffa791"/>
            <path id="Path_377" data-name="Path 377" d="M236.5,188.206c.5,3.739.885,7.49,1.33,11.235l1.144,11.257c.4,3.749.7,7.511,1.056,11.267l.476,5.639.119,1.41c.014.141.056.73.067,1.13.014.439-.025.876-.053,1.311a11.946,11.946,0,0,1-1.5,4.572,19.022,19.022,0,0,1-5.072,5.55A38.976,38.976,0,0,1,228.65,245a76.03,76.03,0,0,1-11.025,4.626c-3.7,1.247-7.422,2.307-11.157,3.252-3.763.88-7.471,1.7-11.334,2.3l-1.228-5.387c3.478-1.142,7.047-2.328,10.5-3.65,3.48-1.267,6.911-2.63,10.232-4.137a80.13,80.13,0,0,0,9.467-4.935,30.6,30.6,0,0,0,3.967-2.878,9.731,9.731,0,0,0,2.39-2.859,1.759,1.759,0,0,0,.21-.781c-.019-.035-.005-.07-.019-.1-.023-.071.006.048-.043-.28l-.2-1.4-.809-5.6c-.5-3.74-1.056-7.476-1.513-11.221l-1.425-11.231c-.411-3.75-.882-7.495-1.24-11.251Z" transform="translate(-43.186 -111.379)" fill="#ffa791"/>
            <path id="Path_378" data-name="Path 378" d="M226.028,177.874c4.439,1.349,9.77,16.635,9.77,16.635L220.266,210.5s-7.971-16.44-6.1-22.178C216.1,182.349,220.962,176.334,226.028,177.874Z" transform="translate(-37.878 -114.19)" fill="#20b089"/>
            <path id="Path_379" data-name="Path 379" d="M180.7,235.493l3.05,8.788,8.917-.339-3.066-10.662Z" transform="translate(-46.695 -99.4)" fill="#ffa791"/>
          </g>
        </g>
      </g>
      <g id="Shadow" transform="translate(11.807 378.365)">
        <ellipse id="_Path_" data-name="&lt;Path&gt;" cx="194.155" cy="10.536" rx="194.155" ry="10.536" transform="translate(0 5)" fill="#f3f1fd"/>
      </g>
      <g id="List_of_people" data-name="List of people" transform="translate(98.773 66.903)">
        <g id="Group_200" data-name="Group 200" transform="translate(0 0)">
          <g id="Group_192" data-name="Group 192">
            <g id="Group_190" data-name="Group 190" transform="translate(153.059)">
              <path id="Path_381" data-name="Path 381" d="M306.225,218.056c2.9-20.816-11.621-37.69-32.437-37.69H425.836c20.816,0,35.338,16.874,32.437,37.69Z" transform="translate(-273.788 -183.366)" fill="#c8c4ff"/>
            </g>
            <path id="Path_382" data-name="Path 382" d="M290.1,180.366H442.146c-20.814,0-40.04,16.874-42.941,37.69L364.835,464.674c-2.9,20.816-22.127,37.69-42.941,37.69H245.222c-20.814,0-35.336-16.874-32.435-37.69l34.371-246.619C250.058,197.24,269.284,180.366,290.1,180.366Z" transform="translate(-137.04 -180.366)" fill="#fcfbfc" stroke="#c8c4ff" stroke-width="5"/>
            <g id="Group_191" data-name="Group 191" transform="translate(0 284.308)">
              <path id="Path_384" data-name="Path 384" d="M305.284,404.979c-2.9,20.816,11.621,37.69,32.437,37.69H185.672c-20.816,0-35.338-16.874-32.437-37.69Z" transform="translate(-152.866 -402.979)" fill="#c8c4ff"/>
            </g>
          </g>
          <g id="Group_193" data-name="Group 193" transform="translate(172.463 70.484)">
            <path id="Path_385" data-name="Path 385" d="M293.111,242.289H352a3.717,3.717,0,0,0,3.553-3.119h0a2.658,2.658,0,0,0-2.683-3.119H293.979a3.717,3.717,0,0,0-3.553,3.119h0A2.658,2.658,0,0,0,293.111,242.289Z" transform="translate(-288.779 -236.051)" fill="#c8c4ff" opacity="0.5"/>
            <path id="Path_386" data-name="Path 386" d="M291.832,251.461h43.275a3.717,3.717,0,0,0,3.553-3.119h0a2.657,2.657,0,0,0-2.683-3.119H292.7a3.716,3.716,0,0,0-3.553,3.119h0A2.658,2.658,0,0,0,291.832,251.461Z" transform="translate(-289.118 -233.613)" fill="#c8c4ff" opacity="0.5"/>
          </g>
          <g id="Group_194" data-name="Group 194" transform="translate(112.09 50.778)">
            <ellipse id="Ellipse_79" data-name="Ellipse 79" cx="20.163" cy="17.542" rx="20.163" ry="17.542" transform="matrix(0.731, -0.682, 0.682, 0.731, 0, 27.506)" fill="#e1dffd" opacity="0.4"/>
            <path id="Path_387" data-name="Path 387" d="M249.293,245.006a15.487,15.487,0,0,0,.914,8,14.17,14.17,0,0,0,13.537,8.793A19.78,19.78,0,0,0,279.732,253a18.814,18.814,0,0,0,3.144-8c1.292-9.276-5.177-16.792-14.451-16.792S250.585,235.73,249.293,245.006Z" transform="translate(-239.373 -218.427)" fill="#fcfbfc"/>
            <path id="Path_388" data-name="Path 388" d="M252.869,247.27a10.874,10.874,0,0,0,10.386,6.747,15.176,15.176,0,0,0,12.267-6.747,18.1,18.1,0,0,0-10.848-3.432A22.7,22.7,0,0,0,252.869,247.27Z" transform="translate(-238.379 -214.274)" fill="#c8c4ff"/>
            <path id="Path_389" data-name="Path 389" d="M258.456,239.424a4.878,4.878,0,0,0,4.939,5.739,6.818,6.818,0,0,0,6.539-5.739,4.877,4.877,0,0,0-4.939-5.738A6.817,6.817,0,0,0,258.456,239.424Z" transform="translate(-236.909 -216.973)" fill="#c8c4ff"/>
          </g>
          <g id="Group_195" data-name="Group 195" transform="translate(165.394 121.206)">
            <path id="Path_390" data-name="Path 390" d="M287.526,282.361h19.868a3.717,3.717,0,0,0,3.553-3.119h0a2.658,2.658,0,0,0-2.684-3.119H288.4a3.718,3.718,0,0,0-3.554,3.119h0A2.659,2.659,0,0,0,287.526,282.361Z" transform="translate(-283.194 -276.123)" fill="#c8c4ff" opacity="0.5"/>
            <path id="Path_391" data-name="Path 391" d="M312.693,282.361h28.38a3.717,3.717,0,0,0,3.553-3.119h0a2.658,2.658,0,0,0-2.685-3.119h-28.38a3.717,3.717,0,0,0-3.553,3.119h0A2.658,2.658,0,0,0,312.693,282.361Z" transform="translate(-276.505 -276.123)" fill="#c8c4ff" opacity="0.5"/>
            <path id="Path_392" data-name="Path 392" d="M286.248,291.532H334.9a3.716,3.716,0,0,0,3.553-3.119h0a2.658,2.658,0,0,0-2.683-3.119H287.116a3.717,3.717,0,0,0-3.553,3.119h0A2.659,2.659,0,0,0,286.248,291.532Z" transform="translate(-283.533 -273.686)" fill="#c8c4ff" opacity="0.5"/>
          </g>
          <g id="Group_196" data-name="Group 196" transform="translate(105.021 101.499)">
            <ellipse id="Ellipse_80" data-name="Ellipse 80" cx="20.163" cy="17.542" rx="20.163" ry="17.542" transform="matrix(0.731, -0.682, 0.682, 0.731, 0, 27.506)" fill="#e1dffd" opacity="0.4"/>
            <path id="Path_393" data-name="Path 393" d="M243.708,285.078a15.487,15.487,0,0,0,.914,8,14.172,14.172,0,0,0,13.537,8.793,19.78,19.78,0,0,0,15.988-8.793,18.781,18.781,0,0,0,3.144-8c1.292-9.276-5.176-16.792-14.451-16.792S245,275.8,243.708,285.078Z" transform="translate(-233.789 -258.499)" fill="#fcfbfc"/>
            <path id="Path_394" data-name="Path 394" d="M247.284,287.343a10.874,10.874,0,0,0,10.386,6.747,15.179,15.179,0,0,0,12.268-6.747,18.1,18.1,0,0,0-10.849-3.433A22.7,22.7,0,0,0,247.284,287.343Z" transform="translate(-232.794 -254.346)" fill="#c8c4ff"/>
            <path id="Path_395" data-name="Path 395" d="M252.871,279.5a4.878,4.878,0,0,0,4.939,5.739,6.818,6.818,0,0,0,6.539-5.739,4.878,4.878,0,0,0-4.939-5.739A6.818,6.818,0,0,0,252.871,279.5Z" transform="translate(-231.325 -257.045)" fill="#c8c4ff"/>
          </g>
          <g id="Group_197" data-name="Group 197" transform="translate(158.325 171.927)">
            <path id="Path_396" data-name="Path 396" d="M281.941,322.432h34.592a3.715,3.715,0,0,0,3.553-3.119h0a2.658,2.658,0,0,0-2.683-3.119H282.81a3.716,3.716,0,0,0-3.553,3.119h0A2.657,2.657,0,0,0,281.941,322.432Z" transform="translate(-277.608 -316.194)" fill="#c8c4ff" opacity="0.5"/>
            <path id="Path_397" data-name="Path 397" d="M280.663,331.6H334.59a3.717,3.717,0,0,0,3.554-3.119h0a2.658,2.658,0,0,0-2.685-3.119H281.533a3.718,3.718,0,0,0-3.554,3.119h0A2.659,2.659,0,0,0,280.663,331.6Z" transform="translate(-277.948 -313.756)" fill="#c8c4ff" opacity="0.5"/>
          </g>
          <g id="Group_198" data-name="Group 198" transform="translate(95.912 35.428)">
            <path id="Path_398" data-name="Path 398" d="M234.239,371.172H316.82A5.211,5.211,0,0,0,321.8,366.8h0a3.727,3.727,0,0,0-3.763-4.373H235.458a5.211,5.211,0,0,0-4.982,4.373h0A3.727,3.727,0,0,0,234.239,371.172Z" transform="translate(-228.164 -167.408)" fill="#c8c4ff" opacity="0.5"/>
            <path id="Path_399" data-name="Path 399" d="M232.447,384.033h60.681a5.211,5.211,0,0,0,4.982-4.373h0a3.726,3.726,0,0,0-3.763-4.373H233.666a5.212,5.212,0,0,0-4.983,4.373h0A3.727,3.727,0,0,0,232.447,384.033Z" transform="translate(-228.641 -163.99)" fill="#c8c4ff" opacity="0.5"/>
            <path id="Path_400" data-name="Path 400" d="M256.535,212.879h98.457a2.7,2.7,0,0,0,2.577-2.262h0a1.928,1.928,0,0,0-1.947-2.262H257.166a2.7,2.7,0,0,0-2.577,2.262h0A1.928,1.928,0,0,0,256.535,212.879Z" transform="translate(-221.75 -208.355)" fill="#c8c4ff" opacity="0.5"/>
          </g>
          <g id="Group_199" data-name="Group 199" transform="translate(97.952 152.22)">
            <ellipse id="Ellipse_81" data-name="Ellipse 81" cx="20.163" cy="17.542" rx="20.163" ry="17.542" transform="matrix(0.731, -0.682, 0.682, 0.731, 0, 27.506)" fill="#e1dffd" opacity="0.4"/>
            <path id="Path_401" data-name="Path 401" d="M238.122,325.15a15.487,15.487,0,0,0,.915,8,14.171,14.171,0,0,0,13.536,8.793,19.783,19.783,0,0,0,15.988-8.793,18.781,18.781,0,0,0,3.144-8c1.292-9.276-5.176-16.793-14.451-16.793S239.415,315.874,238.122,325.15Z" transform="translate(-228.204 -298.57)" fill="#fcfbfc"/>
            <path id="Path_402" data-name="Path 402" d="M241.7,327.413a10.872,10.872,0,0,0,10.387,6.747,15.175,15.175,0,0,0,12.267-6.747,18.1,18.1,0,0,0-10.849-3.432A22.706,22.706,0,0,0,241.7,327.413Z" transform="translate(-227.21 -294.418)" fill="#c8c4ff"/>
            <path id="Path_403" data-name="Path 403" d="M247.287,319.568a4.878,4.878,0,0,0,4.939,5.739,6.817,6.817,0,0,0,6.538-5.739,4.878,4.878,0,0,0-4.939-5.739A6.817,6.817,0,0,0,247.287,319.568Z" transform="translate(-225.74 -297.116)" fill="#c8c4ff"/>
          </g>
        </g>
      </g>
    </g>
  </g>
</svg>
