<svg xmlns="http://www.w3.org/2000/svg" width="104.997" height="105" viewBox="0 0 104.997 105">
  <g id="Hot_Module_Replacement" data-name="Hot Module Replacement" transform="translate(-0.008 -1)">
    <g id="Group_597" data-name="Group 597" transform="translate(0.008 1)">
      <g id="Group_596" data-name="Group 596" transform="translate(0 0)">
        <path id="Path_2221" data-name="Path 2221" d="M48.132,172.757V133.383a4.374,4.374,0,0,0-4.375-4.375H4.383a4.374,4.374,0,0,0-4.375,4.375v39.374a4.374,4.374,0,0,0,4.375,4.375H43.757A4.374,4.374,0,0,0,48.132,172.757Zm-21.875-8.75h-8.75a4.375,4.375,0,1,1,0-8.75h8.75a4.375,4.375,0,1,1,0,8.75Zm4.375-13.125H17.507a4.375,4.375,0,1,1,0-8.75H30.632a4.375,4.375,0,1,1,0,8.75Z" transform="translate(-0.008 -102.757)" fill="#02bf8c"/>
        <path id="Path_2222" data-name="Path 2222" d="M114.093,21.646c8.4-8.133,27.352-9.607,39.5-4.436l-1.334.446a4.374,4.374,0,1,0,2.765,8.3l9.913-3.3c.048-.017.083-.057.131-.074a4.228,4.228,0,0,0,.718-.416,4.213,4.213,0,0,0,.761-.512c.039-.035.088-.048.127-.083a3.993,3.993,0,0,0,.332-.516,4.351,4.351,0,0,0,.512-.779,4.086,4.086,0,0,0,.223-.814,4.211,4.211,0,0,0,.149-.8,4.354,4.354,0,0,0-.114-.949,4.538,4.538,0,0,0-.074-.591L163.323,3.994a4.375,4.375,0,0,0-8.3,2.769l.626,1.864C140.3,2.685,118.818,4.9,108.007,15.359a4.375,4.375,0,1,0,6.086,6.287Z" transform="translate(-84.802 -1)" fill="#2b225c"/>
        <path id="Path_2223" data-name="Path 2223" d="M160.647,390.6c-8.4,8.133-27.352,9.607-39.5,4.436l4.55-1.518a4.375,4.375,0,0,0-2.769-8.3l-13.125,4.375c-.053.017-.083.057-.131.074a4.279,4.279,0,0,0-.761.437,4.33,4.33,0,0,0-.718.49c-.039.035-.088.044-.127.083a4,4,0,0,0-.332.516,4.348,4.348,0,0,0-.512.779,9.871,9.871,0,0,0-.372,1.614,4.354,4.354,0,0,0,.114.949,4.54,4.54,0,0,0,.074.591l4.375,13.125a4.374,4.374,0,0,0,4.147,2.992,4.284,4.284,0,0,0,1.387-.227,4.379,4.379,0,0,0,2.765-5.534l-.626-1.864a51.262,51.262,0,0,0,18.287,3.268c11.217,0,22.461-3.334,29.356-10a4.375,4.375,0,1,0-6.086-6.286Z" transform="translate(-84.941 -306.245)" fill="#2b225c"/>
        <path id="Path_2224" data-name="Path 2224" d="M321.09,129.008H281.716a4.374,4.374,0,0,0-4.375,4.375v39.374a4.374,4.374,0,0,0,4.375,4.375H321.09a4.374,4.374,0,0,0,4.375-4.375V133.383A4.374,4.374,0,0,0,321.09,129.008Zm-17.5,35h-8.75a4.375,4.375,0,1,1,0-8.75h8.75a4.375,4.375,0,1,1,0,8.75Zm4.375-13.125H294.84a4.375,4.375,0,1,1,0-8.75h13.125a4.375,4.375,0,1,1,0,8.75Z" transform="translate(-220.468 -102.757)" fill="#02bf8c"/>
      </g>
    </g>
  </g>
</svg>
