<svg xmlns="http://www.w3.org/2000/svg" width="422.744" height="373.539" viewBox="0 0 422.744 373.539">
  <g id="_36_Converted_" data-name="36 [Converted]" transform="translate(-2508 1239.8)">
    <g id="Group_133" data-name="Group 133" transform="translate(2508 -1239.8)">
      <g id="Group_64" data-name="Group 64" transform="translate(0 345.015)">
        <path id="Path_186" data-name="Path 186" d="M674.932,1668.124c60.837,0,110.432-6.413,110.432-14.262s-49.62-14.262-110.432-14.262c-60.837,0-110.432,6.388-110.432,14.262C564.475,1661.711,614.1,1668.124,674.932,1668.124Z" transform="translate(-564.5 -1639.6)" fill="#f3f1fd" fill-rule="evenodd"/>
      </g>
      <g id="Group_66" data-name="Group 66" transform="translate(347.458 300.52)">
        <path id="Path_188" data-name="Path 188" d="M2188.227,1471.24c16.986,0,30.852-2.55,30.852-5.67s-13.866-5.67-30.852-5.67-30.827,2.55-30.827,5.67C2157.375,1468.69,2171.241,1471.24,2188.227,1471.24Z" transform="translate(-2157.4 -1459.9)" fill="#d1c6e2" fill-rule="evenodd"/>
      </g>
      <g id="Group_67" data-name="Group 67" transform="translate(15.772 27.867)">
        <path id="Path_189" data-name="Path 189" d="M779.214,361.159c36.027,7.057,16.967,49.714,52.746,53.725,67.671,7.577,150.33-37.588,184.772,12.156,60.44,87.281-37.386,157.112-153.166,209.084-115.781,52-196.716,53.98-222.516-48.578-20.254-80.447-21.814-142.968,34.393-191.3C700.4,374.8,727.415,351.007,779.214,361.159Z" transform="translate(-628.199 -358.744)" fill="#f3f1fd" fill-rule="evenodd"/>
      </g>
      <g id="Group_68" data-name="Group 68" transform="translate(313.924 103.577)">
        <path id="Path_190" data-name="Path 190" d="M2071.115,637.931l-4.581,2.674a3.29,3.29,0,0,0-1.188,4.457l1.015,1.733c1.188,2.055.668,2.971.3,3.318-1.015.916-1.956,1.907-2.922,2.9-.273.3-1.164,1.288-3.491-.074l-1.609-.941a3.245,3.245,0,0,0-4.433,1.189l-2.674,4.581a3.259,3.259,0,0,0,1.164,4.432l1.584.916c2.179,1.263,2.129,1.931,1.857,2.848-.371,1.263-.792,2.55-1.064,3.863-.247,1.164-.123,2.006-3.095,2.006h-1.833a3.255,3.255,0,0,0-3.243,3.244v5.3a3.239,3.239,0,0,0,3.243,3.244h1.833c2.971,0,2.872.842,3.095,2.006.272,1.312.693,2.6,1.064,3.863.273.916.322,1.585-1.857,2.847l-1.584.916a3.26,3.26,0,0,0-1.164,4.457l2.674,4.581a3.237,3.237,0,0,0,4.433,1.164l1.609-.941c2.327-1.362,3.218-.371,3.491-.074.966.991,1.906,1.981,2.922,2.9.371.322.891,1.263-.3,3.318l-1.015,1.733a3.279,3.279,0,0,0,1.188,4.457l4.581,2.649a3.271,3.271,0,0,0,4.457-1.164l1.016-1.733c1.213-2.08,2.4-2.005,2.9-1.832,1.461.471,2.823.768,4.333,1.164.545.149,1.485.545,1.485,3.021V718.8a3.255,3.255,0,0,0,3.244,3.244h5.3a3.255,3.255,0,0,0,3.244-3.244v-1.857c0-2.476.941-2.872,1.486-3.021,1.51-.4,2.847-.693,4.308-1.164.52-.173,1.708-.248,2.922,1.832l1.015,1.733a3.26,3.26,0,0,0,4.457,1.164l4.58-2.649a3.26,3.26,0,0,0,1.164-4.457l-1.015-1.733c-1.189-2.055-.669-3-.3-3.318,1.015-.916,1.981-1.906,2.921-2.9.273-.3,1.164-1.287,3.492.074l1.609.941a3.293,3.293,0,0,0,4.457-1.164l2.675-4.581a3.274,3.274,0,0,0-1.189-4.457l-1.585-.916c-2.179-1.263-2.129-1.931-1.857-2.847.372-1.288.793-2.55,1.065-3.863.248-1.164.148-2.006,3.12-2.006h1.832a3.238,3.238,0,0,0,3.243-3.244v-5.3a3.255,3.255,0,0,0-3.243-3.244h-1.832c-2.971,0-2.872-.842-3.12-2.006-.272-1.312-.693-2.6-1.065-3.863-.272-.941-.322-1.585,1.857-2.848l1.585-.916a3.267,3.267,0,0,0,1.189-4.432l-2.675-4.581a3.289,3.289,0,0,0-4.457-1.189l-1.609.941c-2.328,1.362-3.219.372-3.492.074-.94-.99-1.881-1.981-2.921-2.9-.371-.322-.891-1.263.3-3.318l1.015-1.733a3.288,3.288,0,0,0-1.164-4.457l-4.58-2.674a3.274,3.274,0,0,0-4.457,1.188l-1.015,1.733c-1.214,2.08-2.4,2.006-2.922,1.832-1.461-.47-2.823-.768-4.308-1.164-.57-.148-1.486-.545-1.486-3.021v-1.857a3.239,3.239,0,0,0-3.244-3.244h-5.3a3.239,3.239,0,0,0-3.244,3.244V638.5c0,2.476-.94,2.872-1.485,3.021-1.51.4-2.872.693-4.333,1.164-.5.173-1.708.248-2.9-1.832l-1.016-1.733a3.267,3.267,0,0,0-4.457-1.188Zm20.106,13.817a26.023,26.023,0,1,1-26.023,26.023A26.005,26.005,0,0,1,2091.221,651.748Z" transform="translate(-2046.9 -633.4)" fill="#c8c4ff" fill-rule="evenodd"/>
      </g>
      <g id="Group_69" data-name="Group 69" transform="translate(345.424 49.74)">
        <path id="Path_191" data-name="Path 191" d="M2067.714,464.493a2.243,2.243,0,0,1-1.164-4.333q36.918-9.805,66.953,7.8a2.242,2.242,0,0,1-2.279,3.863q-28.375-16.639-63.511-7.329Zm14.534,5.893a120.205,120.205,0,0,1,18.05.371,66.974,66.974,0,0,1,15.9,3.516,2.24,2.24,0,0,0,1.535-4.209,71.077,71.077,0,0,0-16.961-3.764,126.071,126.071,0,0,0-18.744-.4,2.242,2.242,0,0,0-2.129,2.352A2.276,2.276,0,0,0,2082.248,470.386Z" transform="translate(-2064.889 -456.659)" fill="#c8c4ff" fill-rule="evenodd"/>
      </g>
      <g id="Group_70" data-name="Group 70" transform="translate(9.199 262.327)">
        <path id="Path_192" data-name="Path 192" d="M606.121,1307.521a2.249,2.249,0,0,0-4.432.767q6.5,37.661,35.012,57.593a2.232,2.232,0,1,0,2.55-3.665q-26.927-18.9-33.13-54.7Zm11.415,10.746a119.257,119.257,0,0,0,7.874,16.243,67.676,67.676,0,0,0,9.83,12.974,2.241,2.241,0,1,1-3.194,3.145,71.163,71.163,0,0,1-10.5-13.841,125.444,125.444,0,0,1-8.171-16.862,2.239,2.239,0,1,1,4.16-1.659Z" transform="translate(-601.652 -1305.652)" fill="#f3f1fd" fill-rule="evenodd"/>
      </g>
      <g id="Group_71" data-name="Group 71" transform="translate(64.873 10.82)">
        <path id="Path_193" data-name="Path 193" d="M857.9,295.818l-5.943,3.466a4.23,4.23,0,0,0-1.51,5.769l1.312,2.253c1.535,2.649.867,3.863.4,4.308-1.337,1.188-2.55,2.476-3.788,3.739-.371.371-1.51,1.659-4.531-.1l-2.08-1.213a4.216,4.216,0,0,0-5.769,1.535l-3.466,5.943a4.238,4.238,0,0,0,1.535,5.769l2.055,1.188c2.823,1.659,2.748,2.5,2.4,3.689-.5,1.659-1.015,3.318-1.387,5.026-.322,1.51-.173,2.6-4.036,2.6h-2.352a4.232,4.232,0,0,0-4.234,4.234v6.883a4.227,4.227,0,0,0,4.234,4.209h2.352c3.863,0,3.714,1.09,4.036,2.625.347,1.709.891,3.367,1.387,5,.347,1.213.421,2.055-2.4,3.689l-2.055,1.189a4.238,4.238,0,0,0-1.535,5.769l3.466,5.943a4.238,4.238,0,0,0,5.769,1.535l2.08-1.213c3.021-1.758,4.185-.47,4.531-.1,1.238,1.288,2.451,2.575,3.788,3.764.47.421,1.139,1.634-.4,4.284l-1.312,2.253a4.23,4.23,0,0,0,1.51,5.769l5.943,3.467a4.216,4.216,0,0,0,5.769-1.535l1.312-2.253c1.56-2.7,3.12-2.6,3.764-2.377,1.906.594,3.64.99,5.6,1.51.718.2,1.931.693,1.931,3.912v2.426a4.211,4.211,0,0,0,4.234,4.209h6.883a4.227,4.227,0,0,0,4.234-4.209v-2.4c0-3.219,1.213-3.739,1.931-3.912,1.956-.52,3.714-.916,5.621-1.51.644-.2,2.2-.322,3.764,2.377l1.312,2.253a4.238,4.238,0,0,0,5.769,1.535l5.943-3.467a4.23,4.23,0,0,0,1.51-5.769l-1.312-2.253c-1.56-2.649-.867-3.863-.4-4.284,1.337-1.188,2.55-2.476,3.788-3.764.371-.371,1.51-1.659,4.531.1l2.08,1.213a4.238,4.238,0,0,0,5.769-1.535l3.467-5.943a4.238,4.238,0,0,0-1.535-5.769l-2.055-1.189c-2.823-1.634-2.748-2.5-2.4-3.689.5-1.659,1.015-3.293,1.387-5,.322-1.51.173-2.625,4.036-2.625h2.352a4.206,4.206,0,0,0,4.209-4.209v-6.883a4.227,4.227,0,0,0-4.209-4.234h-2.352c-3.863,0-3.714-1.09-4.036-2.6-.347-1.708-.891-3.367-1.387-5.026-.347-1.189-.421-2.055,2.4-3.689l2.055-1.189a4.238,4.238,0,0,0,1.535-5.769l-3.467-5.943a4.237,4.237,0,0,0-5.769-1.535l-2.08,1.213c-3.021,1.758-4.185.47-4.531.1-1.238-1.288-2.451-2.575-3.788-3.739-.47-.446-1.164-1.634.4-4.308l1.312-2.253a4.23,4.23,0,0,0-1.51-5.769l-5.943-3.467a4.238,4.238,0,0,0-5.769,1.535l-1.312,2.253c-1.56,2.7-3.12,2.6-3.764,2.4-1.907-.594-3.64-.99-5.621-1.51-.718-.2-1.931-.718-1.931-3.937v-2.451a4.232,4.232,0,0,0-4.234-4.234H880.5a4.232,4.232,0,0,0-4.234,4.234v2.4c0,3.219-1.213,3.739-1.931,3.937-1.956.52-3.714.891-5.6,1.51-.644.2-2.2.322-3.764-2.4l-1.312-2.253a4.258,4.258,0,0,0-5.769-1.51Zm26.048,24.662a27,27,0,1,1-26.989,26.989,26.989,26.989,0,0,1,26.989-26.989Zm0-6.76A33.749,33.749,0,1,1,850.2,347.469,33.741,33.741,0,0,1,883.945,313.72Z" transform="translate(-826.5 -289.9)" fill="#c8c4ff" fill-rule="evenodd"/>
      </g>
      <g id="Group_72" data-name="Group 72" transform="translate(369.81 251.851)">
        <path id="Path_194" data-name="Path 194" d="M2249.81,1264.149a.66.66,0,0,0-1.287-.3,31.728,31.728,0,0,0,.049,14.782,43.921,43.921,0,0,0,7.7,15.772.674.674,0,0,0,1.09-.792,42.95,42.95,0,0,1-7.479-15.3A29.794,29.794,0,0,1,2249.81,1264.149Z" transform="translate(-2247.674 -1263.342)" fill="#968fff" fill-rule="evenodd"/>
      </g>
      <g id="Group_73" data-name="Group 73" transform="translate(370.089 214.551)">
        <path id="Path_195" data-name="Path 195" d="M2249.865,1151.574q9.026-20.539-1.065-38.874Q2271.827,1131.753,2249.865,1151.574Z" transform="translate(-2248.799 -1112.7)" fill="#aca6ff" fill-rule="evenodd"/>
      </g>
      <g id="Group_74" data-name="Group 74" transform="translate(365.665 214.551)">
        <path id="Path_196" data-name="Path 196" d="M2235.356,1112.7q10.1,18.31,1.065,38.874C2222.555,1140.927,2239.888,1129.388,2235.356,1112.7Z" transform="translate(-2230.933 -1112.7)" fill="#c8c4ff" fill-rule="evenodd"/>
      </g>
      <g id="Group_75" data-name="Group 75" transform="translate(377.799 269.687)">
        <path id="Path_197" data-name="Path 197" d="M2281.414,1336.1a.667.667,0,0,0-.619-.718.633.633,0,0,0-.718.594,47.137,47.137,0,0,0-.05,6.611,73.445,73.445,0,0,0,.742,7.354.676.676,0,0,0,1.337-.2,64.482,64.482,0,0,1-.718-7.23A41.628,41.628,0,0,1,2281.414,1336.1Z" transform="translate(-2279.938 -1335.376)" fill="#968fff" fill-rule="evenodd"/>
      </g>
      <g id="Group_76" data-name="Group 76" transform="translate(375.684 238.816)">
        <path id="Path_198" data-name="Path 198" d="M2274.171,1243.557q-9.546-17.382,13.792-32.857Q2275.595,1228.6,2274.171,1243.557Z" transform="translate(-2271.397 -1210.7)" fill="#aca6ff" fill-rule="evenodd"/>
      </g>
      <g id="Group_77" data-name="Group 77" transform="translate(378.458 238.816)">
        <path id="Path_199" data-name="Path 199" d="M2282.6,1243.557q1.449-14.968,13.792-32.857C2291.489,1226.968,2302.086,1232.96,2282.6,1243.557Z" transform="translate(-2282.6 -1210.7)" fill="#c8c4ff" fill-rule="evenodd"/>
      </g>
      <g id="Group_78" data-name="Group 78" transform="translate(378.78 272.389)">
        <path id="Path_200" data-name="Path 200" d="M2283.9,1357.557a.669.669,0,1,0,1.337.049,17.249,17.249,0,0,1,.965-4.952,27.4,27.4,0,0,1,2.477-5.348.667.667,0,0,0-1.139-.693,27.432,27.432,0,0,0-2.6,5.621A19.511,19.511,0,0,0,2283.9,1357.557Z" transform="translate(-2283.9 -1346.288)" fill="#968fff" fill-rule="evenodd"/>
      </g>
      <g id="Group_79" data-name="Group 79" transform="translate(381.38 269.807)">
        <path id="Path_201" data-name="Path 201" d="M2310.123,1340.749c-4.011,9.26-12.628-2.005-15.723-.148a8.585,8.585,0,0,1,3.665-4.333C2302.323,1334.038,2305.839,1341.764,2310.123,1340.749Z" transform="translate(-2294.399 -1335.861)" fill="#aca6ff" fill-rule="evenodd"/>
      </g>
      <g id="Group_80" data-name="Group 80" transform="translate(358.873 280.959)">
        <path id="Path_202" data-name="Path 202" d="M2203.5,1380.9v12.083a13.9,13.9,0,0,0,13.842,13.841h10.943a13.9,13.9,0,0,0,13.842-13.841V1380.9Z" transform="translate(-2203.5 -1380.9)" fill="#c8c4ff" fill-rule="evenodd"/>
      </g>
      <g id="Group_81" data-name="Group 81" transform="translate(362.785 280.959)">
        <path id="Path_203" data-name="Path 203" d="M2219.3,1402.615c18.893,6.066,27.98-2.278,26.172-21.715h8.543v12.083a13.9,13.9,0,0,1-13.841,13.841h-10.944A13.9,13.9,0,0,1,2219.3,1402.615Z" transform="translate(-2219.3 -1380.9)" fill="#bcb8fd" fill-rule="evenodd"/>
      </g>
      <g id="Group_82" data-name="Group 82" transform="translate(160.697 0)">
        <path id="Path_204" data-name="Path 204" d="M1233.283,246.2h132.1a19.84,19.84,0,0,1,19.784,19.784V552.316a19.856,19.856,0,0,1-19.784,19.784h-132.1a19.84,19.84,0,0,1-19.784-19.784V265.984A19.84,19.84,0,0,1,1233.283,246.2Z" transform="translate(-1213.5 -246.2)" fill="#b6b1f7" fill-rule="evenodd"/>
      </g>
      <g id="Group_83" data-name="Group 83" transform="translate(163.519 2.823)">
        <path id="Path_205" data-name="Path 205" d="M1241.861,257.6h132.1a17,17,0,0,1,16.961,16.961V560.893a17,17,0,0,1-16.961,16.961h-132.1a17,17,0,0,1-16.961-16.961V274.561A17.019,17.019,0,0,1,1241.861,257.6Z" transform="translate(-1224.9 -257.6)" fill="#f3ebf4" fill-rule="evenodd"/>
      </g>
      <g id="Group_84" data-name="Group 84" transform="translate(170.477 9.78)">
        <path id="Path_206" data-name="Path 206" d="M1263,285.7h132.1a10.039,10.039,0,0,1,10,10V582.036a10.039,10.039,0,0,1-10,10H1263a10.039,10.039,0,0,1-10-10V295.7A10.039,10.039,0,0,1,1263,285.7Z" transform="translate(-1253 -285.7)" fill="#fcfbfc" fill-rule="evenodd"/>
      </g>
      <g id="Group_99" data-name="Group 99" transform="translate(141.823 347.767)">
        <path id="Path_221" data-name="Path 221" d="M1163.75,1660.543c-11.241-.173-19.66-.322-23.547-1.535-4.185-1.312-3.318-3.888-.916-7.973,10.6,4.878,7.775-1.015,12.752-.248q5.237,4.2,15.475,5.645C1170.386,1658.537,1169.222,1660.443,1163.75,1660.543Z" transform="translate(-1137.275 -1650.717)" fill="#20b089" fill-rule="evenodd"/>
      </g>
      <g id="Group_100" data-name="Group 100" transform="translate(68.697 186.126)">
        <path id="Path_222" data-name="Path 222" d="M927.086,997.9H857.557a3.43,3.43,0,0,0-3.144,2.5l-12.38,47.12a1.867,1.867,0,0,0,1.832,2.5h69.528a3.43,3.43,0,0,0,3.145-2.5l12.38-47.12A1.867,1.867,0,0,0,927.086,997.9Z" transform="translate(-841.945 -997.9)" fill="#d0ddff" fill-rule="evenodd"/>
      </g>
      <g id="Group_101" data-name="Group 101" transform="translate(16.862 133.039)">
        <path id="Path_223" data-name="Path 223" d="M695.418,837.949l-8.394,31.991c-10.078-4.927-22.235-12.826-34.987-22.953a101.322,101.322,0,0,0-1.288-10.895c1.015-2.03,2.154-4.209,3.367-6.512-11.761-.074-18.917-2.6-21.517-7.577a154.33,154.33,0,0,1,13.2-28.2q5.943-8.765,23.226-10.3c1.337,15.451,25.058,14.658,19.487,1.362a46.382,46.382,0,0,1,21.864,12.8q7.688,18.979,9.409,26.494a45.974,45.974,0,0,1-15.847,7.577,32.851,32.851,0,0,0-.545,3.739h-4.828A3.463,3.463,0,0,0,695.418,837.949Z" transform="translate(-632.6 -783.5)" fill="#20b089" fill-rule="evenodd"/>
      </g>
      <g id="Group_102" data-name="Group 102" transform="translate(67.264 184.987)">
        <path id="Path_224" data-name="Path 224" d="M840.178,1027.792l8.394-31.991a3.514,3.514,0,0,1,3.145-2.5H921.27c1.362,0,3.813,1.783,3.417,3.12a1.826,1.826,0,0,0-1.931-2.006H853.2a3.431,3.431,0,0,0-3.145,2.5l-12.38,47.12a1.949,1.949,0,0,0,.5,2.006c-1.139-.743-2.228-2.179-1.981-3.145Z" transform="translate(-836.157 -993.3)" fill="#85868b" fill-rule="evenodd"/>
      </g>
      <g id="Group_103" data-name="Group 103" transform="translate(47.466 234.805)">
        <path id="Path_225" data-name="Path 225" d="M779.351,1197.917h69.528a2.763,2.763,0,0,0,.767-.124c-1.387,3.59-5.15,3.046-6.611,3.046H760.607c-4.457-.2-4.358-3.318-4.407-6.339h19.808c-.074.966.941,2.228,2.006,2.922A1.9,1.9,0,0,0,779.351,1197.917Z" transform="translate(-756.2 -1194.5)" fill="#85868b" fill-rule="evenodd"/>
      </g>
      <g id="Group_104" data-name="Group 104" transform="translate(72.673 205.513)">
        <path id="Path_226" data-name="Path 226" d="M865.676,1076.2c7.453,3.764,16.268,4.927,25.33,5.4a6.4,6.4,0,0,0-.223.99,5.949,5.949,0,0,0,5.967,7.082,7.837,7.837,0,0,0,7.552-6.512,4.606,4.606,0,0,0,.074-1.164c9.409.248,18.5.768,26.023,3.714l-5.175,19.685H858Z" transform="translate(-858 -1076.2)" fill="#cad6f5" fill-rule="evenodd"/>
      </g>
      <g id="Group_105" data-name="Group 105" transform="translate(107.652 207.668)">
        <path id="Path_227" data-name="Path 227" d="M1004.551,1084.9a5.492,5.492,0,0,0-5.224,4.506,3.753,3.753,0,0,0,3.813,4.506,5.492,5.492,0,0,0,5.225-4.506A3.763,3.763,0,0,0,1004.551,1084.9Z" transform="translate(-999.269 -1084.9)" fill="#fff" fill-rule="evenodd"/>
      </g>
      <g id="Group_106" data-name="Group 106" transform="translate(32.932 213.585)">
        <path id="Path_228" data-name="Path 228" d="M697.5,1121.973a74.362,74.362,0,0,0,3-13.173c9.359,3.615,20.081,7.131,33.6,12.455l-1.832,6.983C711.836,1128.906,700.224,1126.826,697.5,1121.973Z" transform="translate(-697.5 -1108.8)" fill="#20b089" fill-rule="evenodd"/>
      </g>
      <g id="Group_107" data-name="Group 107" transform="translate(13.321 174.043)">
        <path id="Path_229" data-name="Path 229" d="M674.531,1001.122c-13.544-5.348-24.241-8.84-33.6-12.455A114.121,114.121,0,0,1,618.3,977.426a86.035,86.035,0,0,1,5.472-28.326q5.237,5.014,19.635,5.076c-2.773,5.249-5.051,9.781-6.785,13.594,14.436,11.959,28.351,21.245,39.691,26.766Z" transform="translate(-618.3 -949.1)" fill="#ffa791" fill-rule="evenodd"/>
      </g>
      <g id="Group_108" data-name="Group 108" transform="translate(87.628 174.909)">
        <path id="Path_230" data-name="Path 230" d="M932.984,952.6q1.56,5.46,2.9,10.1H918.4a32.844,32.844,0,0,1,.545-3.739A44.628,44.628,0,0,0,932.984,952.6Z" transform="translate(-918.4 -952.6)" fill="#ffa791" fill-rule="evenodd"/>
      </g>
      <g id="Group_109" data-name="Group 109" transform="translate(105.48 240.475)">
        <path id="Path_231" data-name="Path 231" d="M1029.671,1321.3q-15.525-56.268-11.093-79.036a92.131,92.131,0,0,1-17.7.792c.891-4.061,1.807-8.122,2.724-12.257-.1-5.6-2.971-9.731-13.1-12.727h28.821c.99,0,3,.248,4.63-.668,9.285,2.649,13.816,7.032,15.351,12.38,1.139,14.708-1.931,31.47.693,91.614A46.621,46.621,0,0,1,1029.671,1321.3Z" transform="translate(-990.5 -1217.4)" fill="#2c2458" fill-rule="evenodd"/>
      </g>
      <g id="Group_110" data-name="Group 110" transform="translate(133.856 240.5)">
        <path id="Path_232" data-name="Path 232" d="M1105.1,1218.168h.446c.99,0,3,.248,4.63-.668,9.285,2.649,13.817,7.032,15.352,12.38,1.139,14.708-1.931,31.471.693,91.615a43.6,43.6,0,0,1-6.017.2c-5.349-20.9-18.051-72.177-3.739-94.289A56.089,56.089,0,0,0,1105.1,1218.168Z" transform="translate(-1105.1 -1217.5)" fill="#1f164b" fill-rule="evenodd"/>
      </g>
      <g id="Group_111" data-name="Group 111" transform="translate(50.06 99.081)">
        <path id="Path_233" data-name="Path 233" d="M769.9,680.461c1.832-2.352,3.466-4.531,3.937-6.066-.371-1.065-.768-2.4-1.164-4.011q-10.362-7.02-2.823-10.4c1.015.569,2.253,2.3,3.764,5.225a3.122,3.122,0,0,0,2.724-1.832,87.381,87.381,0,0,1-2.773-12.009c3.392-5.051,11.34-5.769,21.888-4.407.5,2.8.891,5.769,1.213,8.914,1.857,1.708,1.609,8.072-.1,15.4q1.3,6.24-7.725,6.809a12.309,12.309,0,0,0,.545,3.59h0a.077.077,0,0,0,.025.05C794.859,694.922,771.411,695.739,769.9,680.461Z" transform="translate(-766.676 -646.355)" fill="#ffa791" fill-rule="evenodd"/>
      </g>
      <g id="Group_112" data-name="Group 112" transform="translate(42.17 86.786)">
        <path id="Path_234" data-name="Path 234" d="M771.453,609.576c-10.523-1.362-18.472-.644-21.888,4.407a91.233,91.233,0,0,0,2.773,12.009,3.121,3.121,0,0,1-2.724,1.832c-1.51-2.922-2.748-4.68-3.764-5.224-5.026,2.253-4.061,5.72,2.823,10.4.4,1.609.792,2.946,1.164,4.011-6.215-1.387-11.39-6.958-12.133-9.36-7.23-14.262.842-20.3,5.15-22.508,1.907-14.138,22.433-1.634,32.709-8.443C779.7,602.37,774.647,609.452,771.453,609.576Z" transform="translate(-734.81 -596.7)" fill="#21144d" fill-rule="evenodd"/>
      </g>
      <g id="Group_113" data-name="Group 113" transform="translate(64.427 130.612)">
        <path id="Path_235" data-name="Path 235" d="M824.7,773.7a60.726,60.726,0,0,0,7.8.173,11.735,11.735,0,0,0,.371,2.971C829.132,776.745,826.408,775.706,824.7,773.7Z" transform="translate(-824.7 -773.7)" fill="#ed7d57" fill-rule="evenodd"/>
      </g>
      <g id="Group_114" data-name="Group 114" transform="translate(29.416 263.453)">
        <path id="Path_236" data-name="Path 236" d="M750.1,1310.2H687.361a4.084,4.084,0,0,0-4.061,4.086h0a4.1,4.1,0,0,0,4.061,4.085H750.1a4.106,4.106,0,0,0,4.086-4.085h0A4.106,4.106,0,0,0,750.1,1310.2Z" transform="translate(-683.3 -1310.2)" fill="#b6b1f7" fill-rule="evenodd"/>
      </g>
      <g id="Group_115" data-name="Group 115" transform="translate(31.124 335.804)">
        <path id="Path_237" data-name="Path 237" d="M696.316,1607.278a16.526,16.526,0,0,1,11.712-4.878H739.87a16.655,16.655,0,0,1,16.565,16.565v3.343H757.7v4.135h-9.409v-4.135h1.287v-3.343a9.722,9.722,0,0,0-9.706-9.706H708.028a9.722,9.722,0,0,0-9.706,9.706v3.343h1.288v4.135H690.2v-4.135h1.263v-3.343A16.285,16.285,0,0,1,696.316,1607.278Z" transform="translate(-690.2 -1602.4)" fill="#b6b1f7" fill-rule="evenodd"/>
      </g>
      <g id="Group_116" data-name="Group 116" transform="translate(61.431 271.624)">
        <rect id="Rectangle_8" data-name="Rectangle 8" width="6.859" height="64.18" transform="translate(0 0)" fill="#b6b1f7"/>
      </g>
      <g id="Group_117" data-name="Group 117" transform="translate(31.575 228.516)">
        <path id="Path_238" data-name="Path 238" d="M703.356,1203.789c-12.133-4.358-13.792-16.441-8.444-34.69q6.574,5.386,33.254,4.507l-.421,1.585a.683.683,0,0,0-.025.223H707.912c.049,3.021-.05,6.141,4.407,6.339h53.632c10.127,2.971,13,7.106,13.1,12.727-6.413,28.673-12.133,54.969-19.908,91.292-2.624,1.461-6.215,1.362-10.771-.346q-5.459-52.852,3-76.857C736.362,1208.618,720.366,1206.563,703.356,1203.789Z" transform="translate(-692.02 -1169.099)" fill="#1f164b" fill-rule="evenodd"/>
      </g>
      <g id="Group_118" data-name="Group 118" transform="translate(31.575 228.516)">
        <path id="Path_239" data-name="Path 239" d="M703.356,1203.789c-12.133-4.358-13.792-16.441-8.444-34.69a13.008,13.008,0,0,0,3.714,2.006c-4.407,18.768.4,29.044,14.633,30.035q24.959,3.714,41.375,3.566-7.243,46.909-2.476,81.809a23.953,23.953,0,0,1-3.764-1.089q-5.46-52.852,3-76.857C736.362,1208.618,720.366,1206.563,703.356,1203.789Z" transform="translate(-692.02 -1169.099)" fill="#2c2458" fill-rule="evenodd"/>
      </g>
      <g id="Group_119" data-name="Group 119" transform="translate(144.602 344.445)">
        <path id="Path_240" data-name="Path 240" d="M1157.785,1637.448a10.643,10.643,0,0,0,1.461,3.194c-3.244.3-1.981,4.482-10.746.644a13.078,13.078,0,0,0,.619-3.986A51.091,51.091,0,0,0,1157.785,1637.448Z" transform="translate(-1148.5 -1637.3)" fill="#ffa791" fill-rule="evenodd"/>
      </g>
      <g id="Group_120" data-name="Group 120" transform="translate(85.802 348.878)">
        <path id="Path_241" data-name="Path 241" d="M923.869,1670.5c-5.967-2.476-6.859-6.487-10.152-8.023-3.318-1.535-3.689-4.284-.445-7.28,2.377,1.907,5.348,4.259,6.933,3.021,1.04-.817,4.605-.768,5.3.446,3.095,7.205,7.4,4.927,8.245,8.2C933.847,1671.22,927.632,1672.062,923.869,1670.5Z" transform="translate(-911.024 -1655.2)" fill="#20b089" fill-rule="evenodd"/>
      </g>
      <g id="Group_121" data-name="Group 121" transform="translate(88.594 345.312)">
        <path id="Path_242" data-name="Path 242" d="M931.338,1641.146a17.93,17.93,0,0,0,.792,5.769,5.249,5.249,0,0,0-3.442.471c-1.461,1.139-4.11-.768-6.388-2.6a15.267,15.267,0,0,0,.743-3.986C926.385,1641.84,929.134,1641.964,931.338,1641.146Z" transform="translate(-922.3 -1640.8)" fill="#ffa791" fill-rule="evenodd"/>
      </g>
      <g id="Group_122" data-name="Group 122" transform="translate(32.932 163.891)">
        <path id="Path_243" data-name="Path 243" d="M702.947,923.328a85.93,85.93,0,0,0,4.9-11.266c-.941,5.5-.891,9.458-2.377,13.99a94.714,94.714,0,0,1,1.585,19.486c-2.055-1.535-4.11-3.145-6.19-4.8a101.3,101.3,0,0,0-1.288-10.895c1.04-2.055,2.154-4.209,3.367-6.512Zm53.359,1.089a34.328,34.328,0,0,1-3.59,1.04c.446-7.007.743-12.777.891-17.357q2.043,10.139,2.7,16.317ZM697.5,970.967a74.361,74.361,0,0,0,3-13.173q2.6,1,5.348,2.006a131.863,131.863,0,0,1-3.12,14.906C700.125,973.74,698.367,972.478,697.5,970.967Z" transform="translate(-697.5 -908.1)" fill="#1b8568" fill-rule="evenodd"/>
      </g>
      <g id="Group_123" data-name="Group 123" transform="translate(181.372 33.501)">
        <path id="Path_244" data-name="Path 244" d="M1299.624,381.5h55.34a2.663,2.663,0,0,1,2.649,2.625v27.88a34.991,34.991,0,0,0-30.109,30.084h-27.881a2.642,2.642,0,0,1-2.625-2.625v-55.34A2.642,2.642,0,0,1,1299.624,381.5Z" transform="translate(-1297 -381.5)" fill="#c8c4ff" fill-rule="evenodd"/>
      </g>
      <g id="Group_124" data-name="Group 124" transform="translate(251.098 33.501)">
        <path id="Path_245" data-name="Path 245" d="M1581.249,381.5h55.34a2.664,2.664,0,0,1,2.649,2.625v55.34a2.647,2.647,0,0,1-2.649,2.625h-27.88A34.966,34.966,0,0,0,1578.6,412v-27.88A2.648,2.648,0,0,1,1581.249,381.5Z" transform="translate(-1578.599 -381.5)" fill="#c8c4ff" fill-rule="evenodd" opacity="0.22"/>
      </g>
      <g id="Group_125" data-name="Group 125" transform="translate(181.372 103.227)">
        <path id="Path_246" data-name="Path 246" d="M1297,721.089v-55.34a2.664,2.664,0,0,1,2.625-2.649H1327.5a34.991,34.991,0,0,0,30.109,30.109v27.88a2.647,2.647,0,0,1-2.649,2.625h-55.34A2.626,2.626,0,0,1,1297,721.089Z" transform="translate(-1297 -663.1)" fill="#c8c4ff" fill-rule="evenodd" opacity="0.22"/>
      </g>
      <g id="Group_126" data-name="Group 126" transform="translate(251.123 103.227)">
        <path id="Path_247" data-name="Path 247" d="M1636.665,723.714h-55.341a2.626,2.626,0,0,1-2.624-2.625v-27.88a34.991,34.991,0,0,0,30.109-30.109h27.88a2.668,2.668,0,0,1,2.649,2.649v55.34A2.7,2.7,0,0,1,1636.665,723.714Z" transform="translate(-1578.7 -663.1)" fill="#c8c4ff" fill-rule="evenodd"/>
      </g>
      <g id="Group_127" data-name="Group 127" transform="translate(214.526 66.656)">
        <path id="Path_248" data-name="Path 248" d="M1462.915,515.4a32.016,32.016,0,1,1-32.016,32.016,32.04,32.04,0,0,1,32.016-32.016Zm0,4.779a27.237,27.237,0,1,0,27.237,27.237A27.237,27.237,0,0,0,1462.915,520.179Z" transform="translate(-1430.899 -515.4)" fill="#2c2458" fill-rule="evenodd"/>
      </g>
      <g id="Group_128" data-name="Group 128" transform="translate(222.524 78.075)">
        <path id="Path_249" data-name="Path 249" d="M1489.842,572.73c-.867-1.04-1.758-2.006-2.625-2.9-.866.891-1.758,1.857-2.625,2.9,1.733-.074,3.491-.074,5.25,0Zm2.278.149a52.946,52.946,0,0,0-3.714-4.209,32.991,32.991,0,0,1,3.392-2.823c3.343-2.377,6.215-3.318,7.849-2.2s1.882,4.135.916,8.122a23.653,23.653,0,0,1-.669,2.3,52.957,52.957,0,0,0-7.775-1.188Zm5.125,7.478a50.112,50.112,0,0,0,2.1-4.68,47.5,47.5,0,0,0-5.818-.966,65.21,65.21,0,0,1,3.714,5.645Zm.966,1.758a50.584,50.584,0,0,0,2.748-6.017c.817.223,1.56.471,2.278.743,3.838,1.411,6.215,3.293,6.215,5.274s-2.377,3.863-6.215,5.274c-.718.272-1.486.52-2.278.743a46.931,46.931,0,0,0-2.748-6.017Zm3.318,7.626c.248.817.495,1.585.669,2.352,1.139,4.68.693,8.369-1.61,9.9-2.278,1.535-5.868.569-9.78-2.228a36.632,36.632,0,0,1-3.615-3,31.07,31.07,0,0,1-3.59,3c-3.788,2.724-7.255,3.714-9.558,2.377h-.025L1473.8,602c-2.278-1.535-2.723-5.224-1.609-9.9.2-.743.4-1.535.669-2.352-.817-.223-1.585-.5-2.328-.768-4.531-1.684-7.329-4.11-7.329-6.859s2.8-5.175,7.329-6.859c.718-.272,1.511-.52,2.328-.743a24.407,24.407,0,0,1-.669-2.352c-1.139-4.68-.693-8.369,1.609-9.9,2.278-1.535,5.869-.569,9.781,2.229a34.227,34.227,0,0,1,3.59,3.021,34.388,34.388,0,0,1,3.615-3.021c3.912-2.8,7.5-3.788,9.781-2.229s2.724,5.225,1.609,9.9c-.2.743-.421,1.535-.669,2.352.817.223,1.585.5,2.328.743,4.531,1.684,7.329,4.11,7.329,6.859s-2.8,5.175-7.329,6.859c-.693.272-1.486.52-2.3.768ZM1486,595.559a52.837,52.837,0,0,1-3.714-4.209,49.864,49.864,0,0,1-7.775-1.189q-.371,1.188-.668,2.3c-.966,3.987-.743,7.007.916,8.1h0c1.634,1.089,4.531.173,7.849-2.2a27.717,27.717,0,0,0,3.392-2.8Zm-5.1-6.017a65.617,65.617,0,0,1-3.714-5.67,47.731,47.731,0,0,0-2.1,4.7,52.751,52.751,0,0,0,5.819.966Zm-4.7-7.428a50.587,50.587,0,0,1-2.748-6.017,22.428,22.428,0,0,0-2.278.743c-3.863,1.411-6.215,3.293-6.215,5.274s2.377,3.863,6.215,5.274c.719.272,1.486.52,2.278.743a50.581,50.581,0,0,1,2.748-6.017Zm24.365,10.375a23.533,23.533,0,0,0-.669-2.3,50.274,50.274,0,0,1-7.775,1.189,52.914,52.914,0,0,1-3.714,4.209,30.52,30.52,0,0,0,3.392,2.823c3.343,2.377,6.215,3.318,7.849,2.2,1.659-1.114,1.882-4.16.916-8.122Zm-1.238-3.912a44.75,44.75,0,0,0-2.1-4.7,65.62,65.62,0,0,1-3.714,5.67,51.785,51.785,0,0,0,5.819-.966Zm-3.021-6.462a59.5,59.5,0,0,1-5.051,7.6,63.1,63.1,0,0,1-8.1,0,62.126,62.126,0,0,1-5.026-7.6,62.1,62.1,0,0,1,5.026-7.6,63.1,63.1,0,0,1,8.1,0,62.25,62.25,0,0,1,5.051,7.6ZM1486,568.669a52.849,52.849,0,0,0-3.714,4.209,52.977,52.977,0,0,0-7.775,1.188q-.371-1.188-.668-2.3c-.966-3.986-.743-7.007.916-8.122,1.634-1.114,4.531-.173,7.849,2.2a30.566,30.566,0,0,1,3.392,2.823Zm-10.92,7.007a47.39,47.39,0,0,0,2.1,4.68,62.024,62.024,0,0,1,3.714-5.67,47.351,47.351,0,0,0-5.819.99Zm9.508,15.822c.867,1.04,1.758,2.006,2.625,2.9.891-.891,1.758-1.857,2.625-2.9C1488.084,591.573,1486.326,591.573,1484.593,591.5Z" transform="translate(-1463.2 -561.518)" fill="#2c2458" fill-rule="evenodd"/>
      </g>
      <g id="Group_129" data-name="Group 129" transform="translate(242.011 94.14)">
        <path id="Path_250" data-name="Path 250" d="M1546.431,635.462a4.531,4.531,0,1,0-4.531-4.531A4.533,4.533,0,0,0,1546.431,635.462Z" transform="translate(-1541.9 -626.4)" fill="#2c2458" fill-rule="evenodd"/>
      </g>
      <g id="Group_130" data-name="Group 130" transform="translate(181.372 181.347)">
        <path id="Path_251" data-name="Path 251" d="M1302.967,978.625v2.1h-2.328a1.872,1.872,0,0,0-.4.1l-.743-1.981a3.6,3.6,0,0,1,1.362-.248h2.1Zm-5.571,2.129a3.789,3.789,0,0,0-.4,1.733v.817h2.1v-.966h0v-.074h0a1.516,1.516,0,0,1,.173-.569l-1.882-.941Zm-.4,4.655h2.1v2.129H1297v-2.129Zm0,4.234h2.1v2.1H1297v-2.1Zm0,4.234h2.1v2.1H1297v-2.1Zm0,4.209h2.1v2.1H1297v-2.1Zm0,4.234h2.1v2.1H1297v-2.1Zm0,4.234h2.1v2.129H1297v-2.129Zm0,4.21h2.1v2.1H1297v-2.1Zm0,4.234h2.1v2.129H1297V1015Zm0,4.234h2.1v2.1H1297v-2.1Zm0,4.234h2.1v2.1H1297v-2.1Zm0,4.209h2.1v2.1H1297v-2.1Zm.743,4.729a3.75,3.75,0,0,0,2.4,1.51l.371-2.08a1.876,1.876,0,0,1-.52-.2.887.887,0,0,1-.248-.173l-.272-.272-.05-.074-1.684,1.288Zm4.7,1.585v-2.1h2.1v2.1Zm4.234,0v-2.1h2.1v2.1Zm4.209,0v-2.1h2.13v2.1Zm4.234,0v-2.1h2.1v2.1Zm4.234,0v-2.1h2.1v2.1Zm4.209,0v-2.1h2.129v2.1Zm4.234,0v-2.1h2.1v2.1Zm4.234,0v-2.1h2.13v2.1Zm4.234,0v-2.1h2.1v2.1Zm4.209,0v-2.1h2.129v2.1Zm4.234,0v-2.1h2.1v2.1Zm4.234,0v-2.1h2.1v2.1Zm4.407-.049a4.018,4.018,0,0,0,2.427-1.51l-1.708-1.263h0l-.05.049-.272.272c-.1.074-.174.124-.248.173a2.047,2.047,0,0,1-.544.2l.4,2.08Zm3.169-4.11h-2.1v-2.1h2.1v2.1Zm0-4.234h-2.1v-2.1h2.1v2.1Zm0-4.234h-2.1v-2.1h2.1v2.1Zm0-4.234h-2.1v-2.1h2.1v2.1Zm0-4.209h-2.1v-2.129h2.1v2.129Zm0-4.234h-2.1v-2.1h2.1v2.1Zm0-4.234h-2.1v-2.129h2.1v2.129Zm0-4.234h-2.1v-2.1h2.1v2.1Zm0-4.209h-2.1v-2.1h2.1v2.1Zm0-4.234h-2.1v-2.1h2.1v2.1Zm0-4.209h-2.1v-2.13h2.1v2.13Zm0-4.234h-2.1v-.99h0v-.074h0a1.679,1.679,0,0,0-.173-.569l1.906-.916a4,4,0,0,1,.4,1.684v.867Zm-2.476-4.457a3.682,3.682,0,0,0-1.362-.248h-1.09v2.1h1.288a2.122,2.122,0,0,1,.421.1l.743-1.956Zm-4.581-.248v2.1h-2.1v-2.1Zm-4.234,0v2.1h-2.1v-2.1Zm-4.234,0v2.1h-2.13v-2.1Zm-4.234,0v2.1h-2.1v-2.1Zm-4.209,0v2.1h-2.129v-2.1Zm-4.234,0v2.1h-2.1v-2.1Zm-4.234,0v2.1h-2.1v-2.1Zm-4.209,0v2.1h-2.1v-2.1Zm-4.234,0v2.1h-2.1v-2.1Zm-4.234,0v2.1h-2.1v-2.1Zm-4.234,0v2.1h-2.1v-2.1Z" transform="translate(-1297 -978.6)" fill="#c8c4ff" fill-rule="evenodd"/>
      </g>
      <g id="Group_131" data-name="Group 131" transform="translate(181.372 255.431)">
        <path id="Path_252" data-name="Path 252" d="M1299.129,1277.8H1425.21a2.146,2.146,0,0,1,2.129,2.129v36.349a2.145,2.145,0,0,1-2.129,2.129H1299.129a2.145,2.145,0,0,1-2.13-2.129v-36.349A2.129,2.129,0,0,1,1299.129,1277.8Z" transform="translate(-1297 -1277.8)" fill="#c8c4ff" fill-rule="evenodd"/>
      </g>
      <g id="Group_132" data-name="Group 132" transform="translate(256.916 199.769)">
        <path id="Path_253" data-name="Path 253" d="M1604.9,1053h49.2a2.811,2.811,0,0,1,2.8,2.8h0a2.811,2.811,0,0,1-2.8,2.8h-49.2a2.811,2.811,0,0,1-2.8-2.8h0a2.8,2.8,0,0,1,2.8-2.8Zm0,29.317h49.2a2.811,2.811,0,0,1,2.8,2.8h0a2.811,2.811,0,0,1-2.8,2.8h-49.2a2.811,2.811,0,0,1-2.8-2.8h0a2.8,2.8,0,0,1,2.8-2.8Zm0-14.658h49.2a2.811,2.811,0,0,1,2.8,2.8h0a2.811,2.811,0,0,1-2.8,2.8h-49.2a2.811,2.811,0,0,1-2.8-2.8h0A2.8,2.8,0,0,1,1604.9,1067.658Z" transform="translate(-1602.1 -1053)" fill="#f1effd" fill-rule="evenodd"/>
      </g>
    </g>
  </g>
</svg>
