<svg xmlns="http://www.w3.org/2000/svg" width="105" height="104.879" viewBox="0 0 105 104.879">
  <g id="SEO_Friendly" data-name="SEO Friendly" transform="translate(182 -8776)">
    <g id="data-analysis" transform="translate(-182 8776)">
      <g id="Group_135" data-name="Group 135" transform="translate(0 0)">
        <g id="Group_134" data-name="Group 134">
          <path id="Path_270" data-name="Path 270" d="M74.632,58.608A33.667,33.667,0,1,1,44.186,10.535,33.959,33.959,0,0,1,68.222,20.47a32.851,32.851,0,0,1,6.632,9.615c.448.961,2.38-3.46,8.751-3.847A44.145,44.145,0,0,0,43.866.6C20.15.92.6,20.47.6,44.186A43.279,43.279,0,0,0,82.537,63.629C78.45,62.327,77.92,62.5,74.632,58.608Z" transform="translate(-0.6 -0.6)" fill="#2b225c"/>
        </g>
      </g>
      <g id="Group_138" data-name="Group 138" transform="translate(68.584 68.584)">
        <g id="Group_137" data-name="Group 137">
          <g id="Group_136" data-name="Group 136">
            <path id="Path_271" data-name="Path 271" d="M54.69,54.69a12.968,12.968,0,0,1-17.947,0L22,39.947a58.686,58.686,0,0,0,9.935-7.692A49.211,49.211,0,0,0,39.947,22L54.69,36.742A12.668,12.668,0,0,1,54.69,54.69Z" transform="translate(-22 -22)" fill="#2b225c"/>
          </g>
        </g>
      </g>
    </g>
    <path id="Path_2213" data-name="Path 2213" d="M11.7,28.56a13.132,13.132,0,0,1-7.976-2.29A8.4,8.4,0,0,1,.372,19.636H8.625a3.08,3.08,0,0,0,.869,2.132,2.792,2.792,0,0,0,1.935.671,2.781,2.781,0,0,0,1.737-.513,1.8,1.8,0,0,0,.711-1.5,2.094,2.094,0,0,0-1.145-1.9,20.183,20.183,0,0,0-3.712-1.5A37.033,37.033,0,0,1,4.6,15.293,9,9,0,0,1,1.675,12.8,7.067,7.067,0,0,1,.451,8.5,7.719,7.719,0,0,1,1.794,3.92,8.255,8.255,0,0,1,5.506,1a13.851,13.851,0,0,1,5.37-.987A12.1,12.1,0,0,1,18.615,2.3a8.083,8.083,0,0,1,3.119,6.357H13.324a2.445,2.445,0,0,0-.79-1.9,2.689,2.689,0,0,0-1.856-.632,2.006,2.006,0,0,0-1.422.513A1.9,1.9,0,0,0,8.7,8.106,1.894,1.894,0,0,0,9.3,9.488a6.739,6.739,0,0,0,1.54.987q.908.395,2.685,1.027a30.1,30.1,0,0,1,4.343,1.816,8.38,8.38,0,0,1,2.961,2.488,6.245,6.245,0,0,1,1.264,4.028A8.1,8.1,0,0,1,20.826,24.3a8.386,8.386,0,0,1-3.593,3.119A12.408,12.408,0,0,1,11.7,28.56ZM33.427,6.645v4.541h8.884v5.883H33.427v5.015H43.5v6.2H25.688V.446H43.5v6.2ZM60.667,28.56a14.578,14.578,0,0,1-7.186-1.816,14.027,14.027,0,0,1-5.212-5.094,14.48,14.48,0,0,1-1.895-7.384,14.266,14.266,0,0,1,1.895-7.344A13.641,13.641,0,0,1,53.48,1.828a15.125,15.125,0,0,1,14.373,0,13.36,13.36,0,0,1,5.173,5.094,14.267,14.267,0,0,1,1.9,7.344,14.48,14.48,0,0,1-1.9,7.384,13.73,13.73,0,0,1-5.173,5.094A14.578,14.578,0,0,1,60.667,28.56Zm0-7.187a5.878,5.878,0,0,0,4.66-1.935,7.453,7.453,0,0,0,1.737-5.173,7.422,7.422,0,0,0-1.737-5.212,6.625,6.625,0,0,0-9.358,0,7.531,7.531,0,0,0-1.7,5.212,7.622,7.622,0,0,0,1.7,5.212A5.985,5.985,0,0,0,60.667,21.373Z" transform="translate(-157.853 8805.653)" fill="#02bf8c"/>
  </g>
</svg>
