<svg id="_1174949_js_react_js_logo_react_react_native_icon" data-name="1174949_js_react js_logo_react_react native_icon" xmlns="http://www.w3.org/2000/svg" width="105" height="93.43" viewBox="0 0 105 93.43">
  <ellipse id="Ellipse_96" data-name="Ellipse 96" cx="9.382" cy="9.382" rx="9.382" ry="9.382" transform="translate(43.136 37.228)" fill="silver"/>
  <g id="Group_751" data-name="Group 751" transform="translate(0 25.304)">
    <path id="Path_2374" data-name="Path 2374" d="M71.019,228.4c-13.176,0-24.689-1.551-33.305-4.5a42.314,42.314,0,0,1-13.718-7.345c-3.588-3.065-5.495-6.411-5.495-9.644,0-6.205,6.8-12.279,18.223-16.242C46.068,187.413,58.253,185.6,71,185.6c12.522,0,24.54,1.757,33.829,4.972a43,43,0,0,1,13.27,6.99c3.532,2.953,5.4,6.186,5.4,9.345,0,6.448-7.607,12.971-19.867,17.027C94.96,226.811,83.373,228.4,71.019,228.4Zm0-38.314c-12.092,0-24.054,1.757-32.8,4.8C27.714,198.552,23,203.561,23,206.907c0,3.476,5.065,8.952,16.167,12.747,8.149,2.785,19.176,4.261,31.848,4.261,11.887,0,22.97-1.5,31.212-4.243,11.532-3.831,16.8-9.308,16.8-12.765,0-1.776-1.346-3.869-3.794-5.906A38.466,38.466,0,0,0,103.39,194.8C94.549,191.768,83.055,190.086,71.019,190.086Z" transform="translate(-18.5 -185.6)" fill="silver"/>
  </g>
  <g id="Group_752" data-name="Group 752" transform="translate(20.308 0)">
    <path id="Path_2375" data-name="Path 2375" d="M138.082,143.585a9.854,9.854,0,0,1-5.009-1.234c-5.364-3.1-7.233-12.036-4.972-23.9,1.85-9.737,6.373-21.176,12.747-32.221,6.261-10.84,13.774-20.372,21.194-26.82a42.668,42.668,0,0,1,12.69-8c4.317-1.589,8.055-1.589,10.784-.019,5.588,3.215,7.439,13.083,4.822,25.717-1.85,8.971-6.261,19.793-12.429,30.5-6.579,11.4-13.681,20.6-20.54,26.6a42.358,42.358,0,0,1-13.214,8.2A18.217,18.217,0,0,1,138.082,143.585Zm4.691-56.238,1.944,1.121c-6.037,10.466-10.5,21.7-12.223,30.82-2.075,10.934-.075,17.512,2.8,19.176a5.531,5.531,0,0,0,2.785.635c3.719,0,9.569-2.355,16.335-8.261,6.485-5.663,13.27-14.485,19.606-25.456,5.943-10.3,10.167-20.652,11.924-29.156,2.448-11.905.336-19.195-2.673-20.933-1.533-.878-4.018-.766-7.009.336a38.169,38.169,0,0,0-11.289,7.177c-7.046,6.13-14.242,15.251-20.26,25.68Z" transform="translate(-127.159 -50.212)" fill="silver"/>
  </g>
  <g id="Group_753" data-name="Group 753" transform="translate(20.332 0.09)">
    <path id="Path_2376" data-name="Path 2376" d="M180.759,144.034c-5.084,0-11.532-3.065-18.26-8.859-7.513-6.467-15.158-16.092-21.549-27.138h0c-6.28-10.84-10.765-22.11-12.653-31.773a42.876,42.876,0,0,1-.6-14.989c.785-4.542,2.635-7.775,5.383-9.364,5.57-3.233,15.045.093,24.689,8.672,6.841,6.074,14.017,15.307,20.2,26,6.6,11.4,11.027,22.148,12.784,31.081a42.726,42.726,0,0,1,.523,15.55c-.86,4.654-2.8,7.962-5.607,9.588A9.6,9.6,0,0,1,180.759,144.034Zm-35.922-38.24c6.056,10.466,13.569,19.942,20.6,25.979,8.429,7.252,15.12,8.822,18.017,7.14,3.009-1.738,5.214-8.859,2.934-20.372-1.682-8.448-5.925-18.727-12.279-29.7-5.962-10.3-12.821-19.138-19.307-24.895-9.083-8.074-16.447-9.887-19.456-8.149-1.533.878-2.673,3.1-3.215,6.242a38.226,38.226,0,0,0,.579,13.363c1.794,9.177,6.093,19.961,12.13,30.39Z" transform="translate(-127.284 -50.696)" fill="silver"/>
  </g>
</svg>
