<svg xmlns="http://www.w3.org/2000/svg" width="121.436" height="39.999" viewBox="0 0 121.436 39.999">
  <path id="Hulu_logo" data-name="Hulu logo" d="M74.382,40h9.647V0H74.382Zm-17-11.379A2.583,2.583,0,0,1,54.8,31.2H49.193a2.583,2.583,0,0,1-2.586-2.584V12.481H36.962V29.425C36.962,36.35,41.392,40,47.943,40h9.442v-.05c6.034,0,9.646-4.292,9.646-10.524V12.481H57.386V28.62Zm54.406-16.139V28.62a2.583,2.583,0,0,1-2.582,2.584H103.6a2.582,2.582,0,0,1-2.584-2.584V12.481H91.368V29.425C91.368,36.35,95.8,40,102.349,40h9.442v-.05c6.034,0,9.645-4.292,9.645-10.524V12.481Zm-92.7,0H12.9a7.407,7.407,0,0,0-3.259.585V0H0V40H9.644V23.858a2.584,2.584,0,0,1,2.584-2.584h5.613a2.582,2.582,0,0,1,2.582,2.584V40H30.07V22.609c0-7.313-4.877-10.128-10.981-10.128Z" fill="silver"/>
</svg>
