<svg xmlns="http://www.w3.org/2000/svg" xmlns:xlink="http://www.w3.org/1999/xlink" width="1400" height="392" viewBox="0 0 1400 392">
  <defs>
    <linearGradient id="linear-gradient" x1="1.351" y1="1.559" x2="-0.403" y2="-0.755" gradientUnits="objectBoundingBox">
      <stop offset="0" stop-color="#2b225c"/>
      <stop offset="1" stop-color="#100727"/>
    </linearGradient>
  </defs>
  <g id="Group_13605" data-name="Group 13605" transform="translate(0 -7423)">
    <rect id="Rectangle_35" data-name="Rectangle 35" width="1400" height="392" transform="translate(0 7423)" fill="url(#linear-gradient)"/>
    <g id="Group_513" data-name="Group 513" transform="translate(29.006 1938.41)">
      <g id="Illustration" transform="translate(803.65 5523.59)">
        <g id="Group_1" data-name="Group 1" transform="translate(49.626 0)">
          <path id="Path_2" data-name="Path 2" d="M421.281,276.061c55.252,2.818,148.746-57.2,175.411,22.777,23.685,71.042-43.231,82.873-62.387,128.039-16.046,37.835,7.45,69.425-48.01,99.462-43.613,23.62-114.885,15.722-151.777-10.364C285.252,481.14,318.266,449.758,311,409.711c-8.094-44.612-52.253-81.472-46.273-128.691,3.77-29.77,30.416-45.222,56.547-44.776C352.39,236.774,391.673,274.551,421.281,276.061Z" transform="translate(-264.173 -236.235)" fill="#eae6ff" opacity="0.03"/>
        </g>
        <ellipse id="Ellipse_8" data-name="Ellipse 8" cx="111.304" cy="11.322" rx="111.304" ry="11.322" transform="translate(100.989 286.366)" fill="#c8c4ff" opacity="0.18"/>
        <path id="Path_7" data-name="Path 7" d="M802.761,491.607c9.67-2.156,42.127-5.078,50.689-15.3,3.919-5-.193-10.122-9.409-10.938-20.167-1.794-38.531,18.434-42.817,24.805q-10.022,5.461-19.279,11.577.681-2.748,1.4-5.493c4.233-4.988,23.484-22.735,17.653-33.392-2.831-4.891-10.355-5.762-16.278-1.756-12.9,8.909-4.89,29.67-3.035,35.009q-.888,3.473-1.717,6.951Q769.421,510.165,759.93,518q-.7-3.368-1.4-6.736c1.832-6.047,13.711-32.256.309-41.65a13.757,13.757,0,0,0-18.974,3.943c-8.429,13.924,13.077,33.194,17.189,38.013q.8,3.745,1.6,7.49-9.315,7.782-17.567,16.171-2.32-3.578-4.713-7.124c-.5-7.457-.514-36.417-19.538-41.175-8.764-2.069-17.194,2.689-18.109,10.017-1.461,15.651,28.779,27.818,35.767,32.137q2.606,3.8,5.13,7.641-4.935,5.1-9.471,10.373-3.493-1.387-7.073-2.674c-3.56-4.2-19.914-20.025-35.339-15.278-6.86,2.125-9.506,7.357-6.014,11.3,7.844,8.282,34.13,5.008,40.674,5.069q3.487,1.244,6.895,2.584a225.8,225.8,0,0,0-23.851,33.827q.865.382,1.724.77a224.428,224.428,0,0,1,24.238-34.11q2.574,2.135,5.079,4.318c1.8,5.243,9.884,25.079,21.136,27.769,5.109,1.242,8.731-1.758,8.322-6.965-.562-11.784-22.236-20.445-28.478-21.663q-2.563-2.252-5.2-4.454,4.557-5.243,9.513-10.309,5.2,1.1,10.275,2.406c6.687,4.914,27.9,24.312,43.283,23.1,7.272-.638,10.929-5.9,7.747-12.16-6.844-14.395-41.205-14.529-50.28-12.551q-4.722-1.229-9.56-2.277,7.841-7.872,16.646-15.231,4.628.357,9.2.873c6.624,3.111,30.938,18.641,46.434,15.818,7.16-1.38,9.912-6.5,5.559-11.7-9.905-12.328-44.391-7.8-51.674-5.236q-4.1-.466-8.247-.805,9.037-7.438,19.046-14.233,4.7-.26,9.391-.362c7.187,1.979,31.974,11.721,45.452,7.528,6.268-2.035,7.445-6.714,2.1-10.532-12.051-8.818-40.883-1.242-47.512,1.789q-3.732.081-7.465.26Q792.02,497.429,802.761,491.607Z" transform="translate(-437.582 -308.227)" fill="#c8c4ff" opacity="0.12"/>
        <path id="Path_8" data-name="Path 8" d="M421.147,446.088c-4.673-1.224-6.257-5.231-3.665-9.284,5.611-9.232,26.023-7.749,31.376-6.475q2.883-.949,5.778-1.869-1.589-6.329-3.513-12.644-4.428-1.017-8.837-1.864c-6.855,1.878-31.532,9.2-42.836,1.41-5.243-3.641-5.517-9.393-.412-13.121,11.219-8.72,36.918,4.869,43.292,10.026q4.1.775,8.219,1.694-3.086-9.867-7-19.652-3.614-1.445-7.234-2.765c-6.023.33-30.56,3.538-40.635-5.491-4.595-4.167-4.364-9.524.856-12.027,11.895-6.043,35.308,11.441,39.961,16.42q3.243,1.179,6.483,2.456-4.048-9.951-8.967-19.749-3.357-2.029-6.749-3.948c-5.96-.952-27.632-2.7-35.446-12.035-3.614-4.367-2.654-8.8,2.488-9.8,11.58-2.414,29.542,15.567,33.37,20.759q2.694,1.522,5.368,3.113-4.882-9.529-10.6-18.844c-6.331-5.573-28.133-21.356-30.744-33.922-1.132-6,3.254-8.74,9.968-5.7,14.776,6.613,21.569,31.69,22.374,38.967q5.344,8.717,9.959,17.639.475-2.68.9-5.384c-1.356-6.014-9.247-29.119-1.983-36.624,3.459-3.384,9.078-1.45,12.189,4.366,6.84,12.913-5.614,28.849-8.945,32.765q-.552,3.417-1.18,6.8,5.218,10.272,9.48,20.739,1.758-2.7,3.481-5.425c.872-6.027,1.006-33.774,13.395-37.932,5.71-1.747,11.631,2.856,12.71,10.021,2.246,16.023-20.194,26.213-25.109,28.729q-1.931,3.03-3.9,6.021,4.155,10.356,7.387,20.826,3.122-2.266,6.238-4.54c3.255-6.37,13.035-32.461,28.429-31.112a12.385,12.385,0,0,1,10.536,14.992c-3.538,15.6-30.895,16.691-37.878,17.678q-3.375,2.429-6.756,4.848,1.907,6.334,3.48,12.688,3.257.108,6.53.289c4.439-2.256,22.533-10.925,32.832-1.853,4.617,4.107,5,9.831.955,12.433-8.923,5.4-28.561-6.91-33.657-9.358q-3.19-.187-6.365-.3a259.459,259.459,0,0,1,6.391,38.99q-.849,0-1.7,0a257.869,257.869,0,0,0-6.531-39.365q-2.825.885-5.637,1.8C445.959,435.407,431.519,448.941,421.147,446.088Z" transform="translate(-245.315 -264.919)" fill="#c8c4ff" opacity="0.12"/>
        <path id="Path_9" data-name="Path 9" d="M288.146,645.054c-15-1.953-29.16,15.226-31.948,19.728q-3.108,1.73-6.122,3.539-4.828-4.111-9.991-8.014,2-3.983,4.129-7.932c3.405-2.4,11.454-7.96,19.007-14.3,7.449-6.406,14.4-13.586,13.223-20.774-1.06-6.535-9.245-9.707-17.645-6.539-18.4,7.143-16.8,34.062-16.443,41.015q-1.957,3.679-3.8,7.386-8.15-6.048-17.1-11.518.45-3.469.941-6.936a151.07,151.07,0,0,0,11.787-16.595c4.287-7.4,7.558-15.5,3.273-21.406-3.81-5.251-12.277-5.755-18.184-.973-12.955,10.8-.565,33.638,1.7,38.924q-.424,3.1-.813,6.2-9.166-5.514-19.118-10.34-.972-3.146-1.965-6.287c1.427-5.353,8.635-26.063-3.453-32.711-5.592-2.982-12.765-1.122-15.5,3.97-5.7,11.1,13.076,25.13,17.38,29.128q.8,2.481,1.588,4.966-9.773-4.623-20.251-8.505c-4.442-5.31-22.117-21.978-41.058-17.316-8.694,2.161-12.593,7.842-8.852,12.158,4.009,4.657,13.9,5.837,23.835,6.417,9.955.489,19.948.378,24.665.35q9.741,3.552,18.888,7.772-3.575.454-7.145,1.007c-6.534-1.724-34.463-4.167-45.5,6.439-4.906,4.625-3.5,8.957,2.652,9.785,13.222,1.557,36.22-12.052,42.963-15.083q4.491-.7,8.99-1.236,10.437,4.919,20.034,10.627-4.1,1.05-8.148,2.233a99.065,99.065,0,0,0-23.892,1.389c-10.25,1.883-20.794,6.117-24.928,12.549-3.7,5.748-.524,10.1,6.508,10.086,7.9,0,16.654-4.917,24.722-10.128,7.972-5.248,15.255-10.793,17.989-12.9q4.487-1.308,9.042-2.456,9.433,5.682,18,12.037-4.439,1.759-8.748,3.68a94.493,94.493,0,0,0-24.519,4.419c-9.86,3.222-19.184,8.865-21.638,15.9-2.253,6.442,2.034,10.695,9.07,9.99,7.733-.757,15.3-6.653,22.257-12.967,6.85-6.333,13.09-13.083,15.7-15.968q4.621-2.052,9.395-3.919,5.132,3.87,9.933,7.954-2.3,2.553-4.491,5.152c-5.66,2.152-24.857,13.888-23.5,24.943.457,4.9,4.36,7.061,8.867,5.028,9.821-4.445,14.454-24.2,15.64-29.341q2.145-2.524,4.388-5.006c9.772,8.4,23.089,25.4,30.685,34.854l.728-.507.732-.505c-7.709-9.652-21.176-26.847-31.133-35.422q2.934-1.751,5.958-3.427c6.141-1.152,30.872-2.585,37.643-11.324C297.591,650.225,294.778,645.917,288.146,645.054Z" transform="translate(-127.528 -431.315)" fill="#c8c4ff" opacity="0.12"/>
        <g id="Group_51" data-name="Group 51" transform="translate(28.491 12.819)" opacity="0.48">
          <g id="Group_46" data-name="Group 46" transform="translate(0 125.206)">
            <ellipse id="Ellipse_49" data-name="Ellipse 49" cx="2.376" cy="2.376" rx="2.376" ry="2.376" fill="#c8c4ff"/>
            <ellipse id="Ellipse_50" data-name="Ellipse 50" cx="2.376" cy="2.376" rx="2.376" ry="2.376" transform="translate(8.957)" fill="#c8c4ff"/>
            <ellipse id="Ellipse_51" data-name="Ellipse 51" cx="2.376" cy="2.376" rx="2.376" ry="2.376" transform="translate(17.913)" fill="#c8c4ff"/>
          </g>
          <g id="Group_47" data-name="Group 47" transform="translate(286.009 33.934)">
            <ellipse id="Ellipse_52" data-name="Ellipse 52" cx="2.376" cy="2.376" rx="2.376" ry="2.376" fill="#c8c4ff"/>
            <ellipse id="Ellipse_53" data-name="Ellipse 53" cx="2.376" cy="2.376" rx="2.376" ry="2.376" transform="translate(8.957 0)" fill="#c8c4ff"/>
            <ellipse id="Ellipse_54" data-name="Ellipse 54" cx="2.376" cy="2.376" rx="2.376" ry="2.376" transform="translate(17.913)" fill="#c8c4ff"/>
          </g>
          <g id="Group_49" data-name="Group 49" transform="translate(378.188 194.845)">
            <path id="Path_172" data-name="Path 172" d="M1083.023,615.6a2.376,2.376,0,1,1-2.376-2.376A2.376,2.376,0,0,1,1083.023,615.6Z" transform="translate(-1078.271 -613.228)" fill="#c8c4ff"/>
            <path id="Path_173" data-name="Path 173" d="M1102.583,615.6a2.376,2.376,0,1,1-2.376-2.376A2.376,2.376,0,0,1,1102.583,615.6Z" transform="translate(-1088.874 -613.228)" fill="#c8c4ff"/>
            <path id="Path_174" data-name="Path 174" d="M1122.144,615.6a2.376,2.376,0,1,1-2.376-2.376A2.376,2.376,0,0,1,1122.144,615.6Z" transform="translate(-1099.478 -613.228)" fill="#c8c4ff"/>
          </g>
          <g id="Group_50" data-name="Group 50" transform="translate(72.047)">
            <path id="Path_175" data-name="Path 175" d="M366.549,173.982a2.376,2.376,0,1,1-2.376-2.377A2.376,2.376,0,0,1,366.549,173.982Z" transform="translate(-361.796 -171.605)" fill="#c8c4ff"/>
            <ellipse id="Ellipse_58" data-name="Ellipse 58" cx="2.376" cy="2.376" rx="2.376" ry="2.376" transform="translate(8.957)" fill="#c8c4ff"/>
            <ellipse id="Ellipse_59" data-name="Ellipse 59" cx="2.376" cy="2.376" rx="2.376" ry="2.376" transform="translate(17.913)" fill="#c8c4ff"/>
          </g>
        </g>
        <g id="Group_59" data-name="Group 59" transform="translate(79.508 26.104)">
          <g id="Group_52" data-name="Group 52" transform="translate(234.409 55.163)">
            <path id="Path_176" data-name="Path 176" d="M833.119,331.759a5.336,5.336,0,1,1,5.336-5.336A5.341,5.341,0,0,1,833.119,331.759Zm0-9.447a4.111,4.111,0,1,0,4.112,4.111A4.116,4.116,0,0,0,833.119,322.312Z" transform="translate(-827.783 -321.087)" fill="#fff"/>
          </g>
          <g id="Group_53" data-name="Group 53" transform="translate(0 45.203)">
            <path id="Path_177" data-name="Path 177" d="M321.2,310.008a5.336,5.336,0,1,1,5.336-5.336A5.341,5.341,0,0,1,321.2,310.008Zm0-9.447a4.111,4.111,0,1,0,4.111,4.112A4.116,4.116,0,0,0,321.2,300.56Z" transform="translate(-315.869 -299.336)" fill="#fff"/>
          </g>
          <g id="Group_54" data-name="Group 54" transform="translate(110.025 0)">
            <path id="Path_178" data-name="Path 178" d="M561.484,211.291a5.336,5.336,0,1,1,5.336-5.336A5.342,5.342,0,0,1,561.484,211.291Zm0-9.447a4.111,4.111,0,1,0,4.111,4.111A4.115,4.115,0,0,0,561.484,201.844Z" transform="translate(-556.148 -200.619)" fill="#fff"/>
          </g>
          <g id="Group_55" data-name="Group 55" transform="translate(275.641 92.609)">
            <path id="Path_179" data-name="Path 179" d="M920.3,407.812a2.474,2.474,0,1,1,2.474-2.475A2.477,2.477,0,0,1,920.3,407.812Zm0-4.381a1.907,1.907,0,1,0,1.907,1.907A1.908,1.908,0,0,0,920.3,403.431Z" transform="translate(-917.828 -402.863)" fill="#fff"/>
          </g>
          <g id="Group_56" data-name="Group 56" transform="translate(149.168 73.615)">
            <path id="Path_180" data-name="Path 180" d="M644.1,366.332a2.475,2.475,0,1,1,2.475-2.475A2.477,2.477,0,0,1,644.1,366.332Zm0-4.382a1.907,1.907,0,1,0,1.907,1.906A1.909,1.909,0,0,0,644.1,361.95Z" transform="translate(-641.63 -361.382)" fill="#fff"/>
          </g>
          <g id="Group_57" data-name="Group 57" transform="translate(158.747 20.55)">
            <path id="Path_181" data-name="Path 181" d="M665.023,250.446a2.475,2.475,0,1,1,2.475-2.475A2.477,2.477,0,0,1,665.023,250.446Zm0-4.382a1.907,1.907,0,1,0,1.907,1.907A1.909,1.909,0,0,0,665.023,246.065Z" transform="translate(-662.548 -245.497)" fill="#fff"/>
          </g>
          <g id="Group_58" data-name="Group 58" transform="translate(14.082 98.773)">
            <path id="Path_182" data-name="Path 182" d="M349.1,421.272a2.475,2.475,0,1,1,2.475-2.474A2.477,2.477,0,0,1,349.1,421.272Zm0-4.381A1.907,1.907,0,1,0,351,418.8,1.909,1.909,0,0,0,349.1,416.891Z" transform="translate(-346.621 -416.323)" fill="#fff"/>
          </g>
        </g>
      </g>
      <g id="Group_512" data-name="Group 512" transform="translate(938.103 5637.921)">
        <g id="Speech_Bubble" data-name="Speech Bubble" transform="translate(114.148 0)">
          <g id="Group_216" data-name="Group 216" transform="translate(0 0)">
            <g id="Group_213" data-name="Group 213" transform="translate(0 0)">
              <g id="Group_212" data-name="Group 212">
                <g id="Group_208" data-name="Group 208" transform="translate(16.122)">
                  <g id="Group_207" data-name="Group 207" transform="translate(0)">
                    <ellipse id="Ellipse_83" data-name="Ellipse 83" cx="26.745" cy="26.745" rx="26.745" ry="26.745" transform="translate(0 6.943) rotate(-7.458)" fill="#c8c4ff"/>
                    <g id="Group_206" data-name="Group 206" transform="translate(3.245 3.115)">
                      <path id="Path_2057" data-name="Path 2057" d="M332.432,195.716s0-.147.005-.433.027-.721.048-1.273q.018-.421.04-.939c.031-.344.1-.717.154-1.123s.124-.843.193-1.309a14.613,14.613,0,0,1,.336-1.468,25.365,25.365,0,0,1,2.928-7.158,26.653,26.653,0,0,1,6.791-7.645l1.158-.87c.407-.269.836-.516,1.26-.779s.843-.55,1.308-.762l1.393-.674.709-.339.744-.273,1.512-.556c.513-.171,1.05-.282,1.582-.428a13.66,13.66,0,0,1,1.625-.372,24.968,24.968,0,0,1,3.4-.4c.579-.021,1.163-.079,1.752-.071l1.779.088c.3.02.6.018.9.057l.9.136c.6.1,1.207.168,1.81.291a28.486,28.486,0,0,1,3.588,1.046,27.884,27.884,0,0,1,3.51,1.536c.569.307,1.114.665,1.676,1,.276.176.569.326.831.524l.793.592A30.287,30.287,0,0,1,378.2,176.7l1.369,1.5.344.378.309.408.617.824.619.828.543.885.542.89.271.447.231.47.915,1.9.731,1.992a26.635,26.635,0,0,1,0,16.98l-.731,1.993q-.458.953-.914,1.9l-.23.471-.272.447L382,209.9l-.542.885-.62.828-.616.824-.31.409-.344.378-1.369,1.5a30.181,30.181,0,0,1-3.054,2.592l-.792.592c-.262.2-.557.348-.832.524-.563.333-1.108.691-1.676,1a27.989,27.989,0,0,1-3.511,1.537,28.485,28.485,0,0,1-3.588,1.046c-.6.123-1.211.192-1.81.29l-.9.136c-.3.039-.6.037-.9.057l-1.78.088c-.589.008-1.172-.049-1.752-.071a24.979,24.979,0,0,1-3.4-.4,13.83,13.83,0,0,1-1.625-.372c-.532-.146-1.069-.258-1.583-.429l-1.511-.555-.744-.274-.709-.339-1.392-.673c-.464-.213-.875-.514-1.308-.763s-.853-.51-1.26-.779l-1.158-.87a26.653,26.653,0,0,1-6.79-7.646,25.38,25.38,0,0,1-2.927-7.157,14.227,14.227,0,0,1-.336-1.468q-.1-.7-.193-1.309c-.055-.406-.123-.779-.154-1.123q-.022-.517-.04-.939c-.021-.552-.037-.975-.048-1.272s-.005-.434-.005-.434.018.147.038.433.045.719.08,1.27c.016.279.034.592.055.935.036.342.109.713.169,1.117s.133.838.206,1.3a14.505,14.505,0,0,0,.349,1.458,25.474,25.474,0,0,0,2.96,7.1,26.565,26.565,0,0,0,6.774,7.557l1.151.858c.4.266.831.508,1.252.768s.837.542,1.3.751l1.382.663.7.333.738.269,1.5.546c.509.169,1.041.276,1.568.42a13.733,13.733,0,0,0,1.611.365,24.852,24.852,0,0,0,3.364.39c.574.019,1.152.076,1.735.067l1.761-.091c.3-.021.593-.019.888-.058l.888-.136c.592-.1,1.194-.168,1.789-.291a28.192,28.192,0,0,0,3.547-1.041,27.833,27.833,0,0,0,3.469-1.524c.561-.3,1.1-.66,1.656-.989.272-.175.562-.323.822-.52l.783-.587a29.853,29.853,0,0,0,3.016-2.564l1.352-1.489.34-.375.306-.4.608-.815.612-.819.536-.875.535-.881.268-.442.227-.465.9-1.876q.36-.981.721-1.97a26.346,26.346,0,0,0,0-16.778l-.721-1.968q-.454-.941-.9-1.875l-.227-.465-.268-.441-.535-.881-.536-.875-.611-.818-.609-.815-.3-.4-.34-.375-1.352-1.489a29.958,29.958,0,0,0-3.016-2.563l-.783-.586c-.259-.2-.55-.345-.822-.519-.557-.33-1.1-.685-1.656-.99a27.816,27.816,0,0,0-3.469-1.524,28.1,28.1,0,0,0-3.546-1.04c-.6-.124-1.2-.192-1.789-.291l-.888-.136c-.3-.04-.593-.037-.888-.058l-1.761-.091c-.583-.009-1.161.047-1.734.067a24.7,24.7,0,0,0-3.365.389,13.585,13.585,0,0,0-1.611.365c-.527.143-1.059.252-1.567.42l-1.5.545-.739.269-.7.333-1.382.663c-.461.209-.869.506-1.3.751s-.847.5-1.251.768l-1.151.858a26.577,26.577,0,0,0-6.775,7.557,25.507,25.507,0,0,0-2.961,7.1,14.538,14.538,0,0,0-.348,1.458q-.111.7-.207,1.3c-.06.4-.133.775-.169,1.117-.02.343-.038.655-.055.935q-.053.826-.08,1.269C332.45,195.569,332.432,195.716,332.432,195.716Z" transform="translate(-332.431 -168.841)" fill="none"/>
                    </g>
                  </g>
                </g>
                <g id="Group_211" data-name="Group 211" transform="translate(0 42.317)">
                  <g id="Group_210" data-name="Group 210">
                    <path id="Path_2058" data-name="Path 2058" d="M318.852,225.709a4.349,4.349,0,1,0,4.348-4.348A4.349,4.349,0,0,0,318.852,225.709Z" transform="translate(-309.656 -221.227)" fill="#c8c4ff"/>
                    <path id="Path_2094" data-name="Path 2094" d="M318.852,224.172a2.811,2.811,0,1,0,2.811-2.811A2.811,2.811,0,0,0,318.852,224.172Z" transform="translate(-318.852 -212.395)" fill="#c8c4ff"/>
                    <g id="Group_209" data-name="Group 209" transform="translate(9.178)">
                      <path id="Path_2059" data-name="Path 2059" d="M318.846,225.664a.954.954,0,0,1-.018-.279,3.45,3.45,0,0,1,.094-.8,4.327,4.327,0,0,1,1.574-2.469,4.393,4.393,0,0,1,1.873-.855,4.484,4.484,0,1,1,0,8.8,4.4,4.4,0,0,1-1.873-.855,4.33,4.33,0,0,1-1.573-2.47,3.442,3.442,0,0,1-.094-.8.963.963,0,0,1,.018-.279c.036,0,.019.388.2,1.046a4.337,4.337,0,0,0,1.589,2.32,4.223,4.223,0,0,0,3.994.58,4.162,4.162,0,0,0,1.944-1.469,4.181,4.181,0,0,0,0-4.954,4.156,4.156,0,0,0-1.944-1.468,4.225,4.225,0,0,0-3.993.579,4.335,4.335,0,0,0-1.59,2.32C318.865,225.277,318.882,225.666,318.846,225.664Z" transform="translate(-318.827 -221.182)" fill="none"/>
                    </g>
                  </g>
                </g>
              </g>
            </g>
            <g id="Group_215" data-name="Group 215" transform="translate(33.838 17.208)">
              <g id="Group_214" data-name="Group 214">
                <path id="Path_2060" data-name="Path 2060" d="M358.826,191.263a10.129,10.129,0,0,1,2.479-1.078l.511-2.454,4.146-.073.6,2.435a10.11,10.11,0,0,1,2.516.989l2.1-1.374,2.983,2.881-1.3,2.142a10.139,10.139,0,0,1,1.077,2.48l2.454.511.073,4.146-2.434.6a10.148,10.148,0,0,1-.99,2.516l1.374,2.1-2.88,2.983-2.143-1.3a10.166,10.166,0,0,1-2.479,1.077l-.511,2.454-4.146.073-.6-2.435a10.189,10.189,0,0,1-2.516-.989l-2.095,1.374-2.984-2.881,1.3-2.142a10.129,10.129,0,0,1-1.078-2.48l-2.454-.511-.073-4.146,2.434-.6a10.183,10.183,0,0,1,.989-2.516l-1.373-2.1,2.88-2.983,2.143,1.3Zm2.21,5.523a4.449,4.449,0,1,0,6.29-.111A4.448,4.448,0,0,0,361.037,196.786Z" transform="translate(-351.753 -187.658)" fill="#22194b"/>
              </g>
            </g>
          </g>
        </g>
        <g id="Character" transform="translate(0 23.628)">
          <g id="Group_511" data-name="Group 511">
            <g id="Group_404" data-name="Group 404" transform="translate(49.544)">
              <g id="Group_233" data-name="Group 233" transform="translate(10.746 7.019)">
                <g id="Group_232" data-name="Group 232">
                  <g id="Group_231" data-name="Group 231">
                    <g id="Group_230" data-name="Group 230">
                      <g id="Group_229" data-name="Group 229">
                        <g id="Group_228" data-name="Group 228">
                          <g id="Group_227" data-name="Group 227">
                            <g id="Group_226" data-name="Group 226">
                              <g id="Group_225" data-name="Group 225">
                                <g id="Group_224" data-name="Group 224">
                                  <g id="Group_223" data-name="Group 223">
                                    <g id="Group_222" data-name="Group 222">
                                      <g id="Group_221" data-name="Group 221">
                                        <g id="Group_220" data-name="Group 220">
                                          <g id="Group_219" data-name="Group 219">
                                            <g id="Group_218" data-name="Group 218">
                                              <g id="Group_217" data-name="Group 217">
                                                <path id="Path_2061" data-name="Path 2061" d="M221.272,209.069l2.7,45.42c.46,7.724,2.713,18.977,14.892,17.692h0c10.483-1.911,12.565-12.115,12.129-19.323-.207-3.419-.373-6.27-.371-6.623,0,0,11.5-1.776,11.651-13.27.074-5.554-.7-17.007-1.529-27.36a21.411,21.411,0,0,0-21.329-19.7h-1.109C226.352,186.593,220.255,197.133,221.272,209.069Z" transform="translate(-221.162 -185.906)" fill="#ffa791"/>
                                              </g>
                                            </g>
                                          </g>
                                        </g>
                                      </g>
                                    </g>
                                  </g>
                                </g>
                              </g>
                            </g>
                          </g>
                        </g>
                      </g>
                    </g>
                  </g>
                </g>
              </g>
              <g id="Group_250" data-name="Group 250" transform="translate(25.249 62.909)">
                <g id="Group_249" data-name="Group 249">
                  <g id="Group_248" data-name="Group 248">
                    <g id="Group_247" data-name="Group 247">
                      <g id="Group_246" data-name="Group 246">
                        <g id="Group_245" data-name="Group 245">
                          <g id="Group_244" data-name="Group 244">
                            <g id="Group_243" data-name="Group 243">
                              <g id="Group_242" data-name="Group 242">
                                <g id="Group_241" data-name="Group 241">
                                  <g id="Group_240" data-name="Group 240">
                                    <g id="Group_239" data-name="Group 239">
                                      <g id="Group_238" data-name="Group 238">
                                        <g id="Group_237" data-name="Group 237">
                                          <g id="Group_236" data-name="Group 236">
                                            <g id="Group_235" data-name="Group 235">
                                              <g id="Group_234" data-name="Group 234">
                                                <path id="Path_2062" data-name="Path 2062" d="M263.207,294.715a27.766,27.766,0,0,1-14.961-4.439s3.642,8.4,15.112,7.376Z" transform="translate(-248.246 -290.276)" fill="#ff9d84"/>
                                              </g>
                                            </g>
                                          </g>
                                        </g>
                                      </g>
                                    </g>
                                  </g>
                                </g>
                              </g>
                            </g>
                          </g>
                        </g>
                      </g>
                    </g>
                  </g>
                </g>
              </g>
              <g id="Group_355" data-name="Group 355" transform="translate(4.128 38.329)">
                <g id="Group_354" data-name="Group 354">
                  <g id="Group_353" data-name="Group 353">
                    <g id="Group_352" data-name="Group 352">
                      <g id="Group_351" data-name="Group 351">
                        <g id="Group_350" data-name="Group 350">
                          <g id="Group_349" data-name="Group 349">
                            <g id="Group_348" data-name="Group 348">
                              <g id="Group_347" data-name="Group 347">
                                <g id="Group_346" data-name="Group 346">
                                  <g id="Group_345" data-name="Group 345">
                                    <g id="Group_344" data-name="Group 344">
                                      <path id="Path_2068" data-name="Path 2068" d="M216.462,244.739c-.2-.085-7.9-2.343-7.652,5.515s8.082,5.993,8.089,5.767S216.462,244.739,216.462,244.739Z" transform="translate(-208.804 -244.375)" fill="#ffa791"/>
                                    </g>
                                  </g>
                                </g>
                              </g>
                            </g>
                          </g>
                        </g>
                      </g>
                    </g>
                  </g>
                </g>
              </g>
              <g id="Group_368" data-name="Group 368" transform="translate(6.129 40.901)">
                <g id="Group_367" data-name="Group 367">
                  <g id="Group_366" data-name="Group 366">
                    <g id="Group_365" data-name="Group 365">
                      <g id="Group_364" data-name="Group 364">
                        <g id="Group_363" data-name="Group 363">
                          <g id="Group_362" data-name="Group 362">
                            <g id="Group_361" data-name="Group 361">
                              <g id="Group_360" data-name="Group 360">
                                <g id="Group_359" data-name="Group 359">
                                  <g id="Group_358" data-name="Group 358">
                                    <g id="Group_357" data-name="Group 357">
                                      <g id="Group_356" data-name="Group 356">
                                        <path id="Path_2069" data-name="Path 2069" d="M216.142,255.348c-.036-.024-.134.1-.362.214a1.371,1.371,0,0,1-1.023.052c-.84-.279-1.58-1.575-1.662-2.991a4.527,4.527,0,0,1,.322-1.972,1.584,1.584,0,0,1,1-1.083.7.7,0,0,1,.819.35c.112.216.067.375.109.387.023.019.164-.137.091-.459a.871.871,0,0,0-.325-.483,1.031,1.031,0,0,0-.763-.177,1.925,1.925,0,0,0-1.392,1.263,4.656,4.656,0,0,0-.407,2.2c.1,1.583.956,3.039,2.1,3.332a1.466,1.466,0,0,0,1.245-.247C216.133,255.539,216.169,255.362,216.142,255.348Z" transform="translate(-212.54 -249.177)" fill="#ff9d84"/>
                                      </g>
                                    </g>
                                  </g>
                                </g>
                              </g>
                            </g>
                          </g>
                        </g>
                      </g>
                    </g>
                  </g>
                </g>
              </g>
              <g id="Group_373" data-name="Group 373">
                <g id="Group_372" data-name="Group 372">
                  <g id="Group_371" data-name="Group 371">
                    <g id="Group_370" data-name="Group 370">
                      <g id="Group_369" data-name="Group 369">
                        <path id="Path_2070" data-name="Path 2070" d="M201.549,199.558c1.434-2.881,1.577-6.205,2.246-9.353s2.158-6.466,5.1-7.761l.07.025c2.636-1.287,5.982-1.544,8.346.18.259-4.112,3.6-7.594,7.5-8.923s10.32-1.166,14.242.094c3.033.974,6.057,3.2,9.777,6.52a38.549,38.549,0,0,1,4.347,4.557L257.4,195.32l-2.558,5.81c-.149.394-.305.787-.5,1.18l0-.025-1.821,11.987c-.4-3.2-.972-14.41-1.372-17.615a17.986,17.986,0,0,1-13.209-4.983c-1.9-1.82-3.453-4.158-5.887-5.152-3.138-1.28-6.67.07-9.783,1.409l.126-.132a14.375,14.375,0,0,0-4.2,3.512,44.708,44.708,0,0,1-.571,19.012c-.234.934-.916,2.871-1.786,3.282-1.711.807-2.313-.95-3.441-1.826a4.669,4.669,0,0,0-3.257-.557,70.289,70.289,0,0,1-2.736-7.976,7.168,7.168,0,0,1-3.273.457l.837-2.495a3.751,3.751,0,0,1-1.362.738,1.278,1.278,0,0,1-1.377-.485C200.893,200.882,201.249,200.161,201.549,199.558Z" transform="translate(-201.095 -172.799)" fill="#21144d"/>
                      </g>
                    </g>
                  </g>
                </g>
              </g>
              <g id="Group_378" data-name="Group 378" transform="translate(4.482 10.902)">
                <g id="Group_377" data-name="Group 377">
                  <g id="Group_376" data-name="Group 376">
                    <g id="Group_375" data-name="Group 375">
                      <g id="Group_374" data-name="Group 374">
                        <path id="Path_2071" data-name="Path 2071" d="M224.895,193.158a9.827,9.827,0,0,0-1.071,1.131,8.219,8.219,0,0,0-1.481,3.92,14.435,14.435,0,0,0-.082,2.925c.071,1.053.237,2.174.4,3.355a30.081,30.081,0,0,1,.356,3.741,13.135,13.135,0,0,1-.115,2,4.126,4.126,0,0,1-.668,1.975,1.729,1.729,0,0,1-1.573.659,2.576,2.576,0,0,1-1.51-.715,5.939,5.939,0,0,1-1.311-2.826l.242.012a9.606,9.606,0,0,1-1.218,2.494,3.411,3.411,0,0,1-2.136,1.37,2.2,2.2,0,0,1-1.193-.122,1.907,1.907,0,0,1-.857-.73,1.971,1.971,0,0,1-.315-1,1.425,1.425,0,0,1,.3-.915l.129.1a7.4,7.4,0,0,1-2.322,2.019,6.579,6.579,0,0,1-.739.35,1.243,1.243,0,0,1-.268.087,1.467,1.467,0,0,1,.25-.128c.165-.082.41-.2.714-.385a7.616,7.616,0,0,0,2.235-2.039l.129.1a1.468,1.468,0,0,0,.047,1.7,1.716,1.716,0,0,0,.774.646,1.993,1.993,0,0,0,1.081.1,3.2,3.2,0,0,0,1.98-1.3,9.462,9.462,0,0,0,1.17-2.439l.138-.378.1.39a5.742,5.742,0,0,0,1.249,2.7,2.318,2.318,0,0,0,1.352.64,1.461,1.461,0,0,0,1.338-.558,3.915,3.915,0,0,0,.615-1.848,13.046,13.046,0,0,0,.117-1.955,30.537,30.537,0,0,0-.338-3.711c-.159-1.182-.318-2.309-.38-3.375a14.37,14.37,0,0,1,.117-2.966,8.107,8.107,0,0,1,1.586-3.958A4.648,4.648,0,0,1,224.895,193.158Z" transform="translate(-209.466 -193.158)" fill="#455a64"/>
                      </g>
                    </g>
                  </g>
                </g>
              </g>
              <g id="Group_383" data-name="Group 383" transform="translate(20.223 4)">
                <g id="Group_382" data-name="Group 382">
                  <g id="Group_381" data-name="Group 381">
                    <g id="Group_380" data-name="Group 380">
                      <g id="Group_379" data-name="Group 379">
                        <path id="Path_2072" data-name="Path 2072" d="M274.7,195.743s-.026.032-.086.085l-.271.229a3.783,3.783,0,0,1-.462.345,5.947,5.947,0,0,1-.669.416,10.163,10.163,0,0,1-4.828,1.233,12.982,12.982,0,0,1-7.08-2.05,22.49,22.49,0,0,1-6.417-6.4c-.931-1.324-1.71-2.694-2.552-3.95a15.2,15.2,0,0,0-2.8-3.3,7.832,7.832,0,0,0-3.437-1.761,5.608,5.608,0,0,0-1.751-.075,6.161,6.161,0,0,0-1.568.42,6.631,6.631,0,0,0-3.448,3.371,7.956,7.956,0,0,0-.467,1.756.424.424,0,0,1,0-.12c.008-.1.018-.212.029-.354a5.74,5.74,0,0,1,.341-1.322,6.537,6.537,0,0,1,1.154-1.827,6.718,6.718,0,0,1,2.316-1.679,6.311,6.311,0,0,1,1.616-.451,5.8,5.8,0,0,1,1.821.062,8.017,8.017,0,0,1,3.551,1.79,15.3,15.3,0,0,1,2.863,3.338c.851,1.265,1.631,2.631,2.553,3.942a22.5,22.5,0,0,0,6.327,6.346,12.9,12.9,0,0,0,6.949,2.07,10.311,10.311,0,0,0,4.779-1.135A16.107,16.107,0,0,0,274.7,195.743Z" transform="translate(-238.859 -180.269)" fill="#455a64"/>
                      </g>
                    </g>
                  </g>
                </g>
              </g>
              <g id="Group_403" data-name="Group 403" transform="translate(49.493 10.85)">
                <g id="Group_402" data-name="Group 402">
                  <g id="Group_401" data-name="Group 401">
                    <g id="Group_400" data-name="Group 400">
                      <g id="Group_399" data-name="Group 399">
                        <path id="Path_2075" data-name="Path 2075" d="M295.057,193.06c1.05,1.227,2.616,2.31,4.21,2.042a12,12,0,0,0,1.676-.6c.58.306.562,2.231.208,2.783a10.291,10.291,0,0,1-1.128,1.315c1.94.9,3.623.3,5.584-.553a9.851,9.851,0,0,1-5.369,8.23,3.454,3.454,0,0,1-3.154.249,3.971,3.971,0,0,1-1.534-2.379,43.124,43.124,0,0,1-2.03-10.432Z" transform="translate(-293.518 -193.06)" fill="#21144d"/>
                      </g>
                    </g>
                  </g>
                </g>
              </g>
            </g>
            <g id="Group_418" data-name="Group 418" transform="translate(12.567 70.569)">
              <g id="Group_413" data-name="Group 413">
                <g id="Group_408" data-name="Group 408" transform="translate(45.664)">
                  <g id="Group_407" data-name="Group 407">
                    <g id="Group_406" data-name="Group 406">
                      <g id="Group_405" data-name="Group 405">
                        <path id="Path_2076" data-name="Path 2076" d="M254.942,307.757l-6.585-2.434-25.193-.744-5.847,1.592.766,14.245,13.222,8.431,12.822-.255,8.064-7.345,1.788-7.281Z" transform="translate(-217.318 -304.579)" fill="#ffa791"/>
                      </g>
                    </g>
                  </g>
                </g>
                <g id="Group_412" data-name="Group 412" transform="translate(0 0.299)">
                  <g id="Group_411" data-name="Group 411">
                    <g id="Group_410" data-name="Group 410">
                      <g id="Group_409" data-name="Group 409">
                        <path id="Path_2077" data-name="Path 2077" d="M140.61,329.839a86.343,86.343,0,0,1,5.273-9.424,21.773,21.773,0,0,1,13.573-9.548l21.137-5.73s1.437,14.255,15.974,14.255,14.832-13.2,14.832-13.2l26.613,9.729c.84.327,6.513,2.289,13.114,16.444,6.286,13.481,9.038,20.379,9.038,20.379l-25.1,6.747-1.67,23.19.536,12.941-76.478-.169.427-14.8-.348-24.464-1.6,3.02-23.877-9.578A189.931,189.931,0,0,1,140.61,329.839Z" transform="translate(-132.045 -305.137)" fill="#02bf8c"/>
                      </g>
                    </g>
                  </g>
                </g>
              </g>
              <g id="Group_417" data-name="Group 417" transform="translate(25.065 38.695)">
                <g id="Group_416" data-name="Group 416">
                  <g id="Group_415" data-name="Group 415">
                    <g id="Group_414" data-name="Group 414">
                      <path id="Path_2078" data-name="Path 2078" d="M178.9,376.839c-.112,0-.043,8.2.153,18.3s.447,18.3.558,18.3.043-8.2-.153-18.3S179.016,376.837,178.9,376.839Z" transform="translate(-178.851 -376.839)" fill="none"/>
                    </g>
                  </g>
                </g>
              </g>
            </g>
            <g id="Group_422" data-name="Group 422" transform="translate(40.21 107.14)" opacity="0.3">
              <g id="Group_421" data-name="Group 421">
                <g id="Group_420" data-name="Group 420">
                  <g id="Group_419" data-name="Group 419">
                    <path id="Path_2079" data-name="Path 2079" d="M255.649,377.385c-1.19-1.3-3.034-1.741-4.763-2.1-19.681-4.038-39.974-2.333-59.91.16-2.474.31-5.2.834-6.7,2.829-1.08,1.442-.386,3.356-.488,5.155-.523,9.242.684,19.085,2.51,28.159l67.912-1.09c2.325-7.038,2.891-18.976,2.926-27.086C257.15,381.294,257.08,378.953,255.649,377.385Z" transform="translate(-183.665 -372.872)"/>
                  </g>
                </g>
              </g>
            </g>
            <g id="Group_426" data-name="Group 426" transform="translate(114.779 100.99)">
              <g id="Group_425" data-name="Group 425">
                <g id="Group_424" data-name="Group 424">
                  <g id="Group_423" data-name="Group 423">
                    <path id="Path_2080" data-name="Path 2080" d="M324.749,361.387a1.542,1.542,0,0,1,.021.348c0,.259,0,.589,0,1,0,.864-.025,2.115-.064,3.66-.077,3.09-.239,7.357-.5,12.065s-.565,8.969-.812,12.05c-.13,1.512-.236,2.748-.314,3.647-.041.4-.075.733-.1.99a1.6,1.6,0,0,1-.055.344,1.527,1.527,0,0,1,0-.348c.012-.258.028-.587.047-.994.055-.9.129-2.139.221-3.653.188-3.118.444-7.362.727-12.052.261-4.707.456-8.97.585-12.056.065-1.516.118-2.755.157-3.656.021-.406.039-.736.053-.994A1.636,1.636,0,0,1,324.749,361.387Z" transform="translate(-322.916 -361.387)" fill="none"/>
                  </g>
                </g>
              </g>
            </g>
            <g id="Group_436" data-name="Group 436" transform="translate(104.663 119.101)">
              <g id="Group_430" data-name="Group 430">
                <g id="Group_429" data-name="Group 429">
                  <g id="Group_428" data-name="Group 428">
                    <g id="Group_427" data-name="Group 427">
                      <path id="Path_2081" data-name="Path 2081" d="M337.869,395.209l10.248,20.571a14.991,14.991,0,0,1,1.555,7.415h0A14.992,14.992,0,0,1,334.7,437.458l-29.388-1.7-1.284-13.408,22.362-5.391-8.664-16.377Z" transform="translate(-304.026 -395.209)" fill="#ffa791"/>
                    </g>
                  </g>
                </g>
              </g>
              <g id="Group_435" data-name="Group 435" transform="translate(22.362 21.311)">
                <g id="Group_434" data-name="Group 434">
                  <g id="Group_433" data-name="Group 433">
                    <g id="Group_432" data-name="Group 432">
                      <g id="Group_431" data-name="Group 431">
                        <path id="Path_2082" data-name="Path 2082" d="M345.785,435.442c.016.092,1.018-.076,2.638-.065a20.347,20.347,0,0,1,6.2,1.094,18.879,18.879,0,0,1,5.552,2.947c1.271,1,1.87,1.828,1.942,1.773.028-.02-.1-.238-.37-.619a10.061,10.061,0,0,0-1.342-1.43,16.745,16.745,0,0,0-5.618-3.152,17.814,17.814,0,0,0-6.366-.972,12.419,12.419,0,0,0-1.943.229C346.024,435.34,345.778,435.408,345.785,435.442Z" transform="translate(-345.785 -435.006)" fill="#ff9a6c"/>
                      </g>
                    </g>
                  </g>
                </g>
              </g>
            </g>
            <g id="Group_446" data-name="Group 446" transform="translate(0 115.562)">
              <g id="Group_440" data-name="Group 440">
                <g id="Group_439" data-name="Group 439">
                  <g id="Group_438" data-name="Group 438">
                    <g id="Group_437" data-name="Group 437">
                      <path id="Path_2083" data-name="Path 2083" d="M121.544,388.6s-5.521,15.427-12.451,32.6a6.909,6.909,0,0,0-.331,1.07c-1.046,4.638,2.486,12.445,7.241,12.445l39.792-.389V421.3l-22.943-5.031,8.854-19.58Z" transform="translate(-108.577 -388.599)" fill="#ffa791"/>
                    </g>
                  </g>
                </g>
              </g>
              <g id="Group_445" data-name="Group 445" transform="translate(6.429 26.676)">
                <g id="Group_444" data-name="Group 444">
                  <g id="Group_443" data-name="Group 443">
                    <g id="Group_442" data-name="Group 442">
                      <g id="Group_441" data-name="Group 441">
                        <path id="Path_2084" data-name="Path 2084" d="M120.585,442.968c.055.068.84-.552,2.224-1.347a20.823,20.823,0,0,1,11.962-2.708c1.593.121,2.567.343,2.588.258.009-.034-.228-.119-.665-.244a12.61,12.61,0,0,0-1.887-.371,18.433,18.433,0,0,0-12.184,2.758,12.66,12.66,0,0,0-1.543,1.148C120.74,442.762,120.563,442.941,120.585,442.968Z" transform="translate(-120.583 -438.414)" fill="#ff9a6c"/>
                      </g>
                    </g>
                  </g>
                </g>
              </g>
            </g>
            <g id="Group_495" data-name="Group 495" transform="translate(35.701 141.189)">
              <g id="Group_470" data-name="Group 470" transform="translate(39.846)">
                <g id="Group_453" data-name="Group 453">
                  <g id="Group_452" data-name="Group 452">
                    <g id="Group_451" data-name="Group 451">
                      <g id="Group_450" data-name="Group 450">
                        <g id="Group_449" data-name="Group 449">
                          <g id="Group_448" data-name="Group 448">
                            <g id="Group_447" data-name="Group 447">
                              <path id="Path_2085" data-name="Path 2085" d="M284.524,440.729H278.77s-12.982-4.691-15.651-4.243c-2.4.4-11.206,6.251-12.93,7.409a1.093,1.093,0,0,0-.418.532h0a1.887,1.887,0,0,0,1.05,2.4l.182.075-.079.262a3.141,3.141,0,0,0-.132,1.05,1.269,1.269,0,0,0,2.358.548l-.332.589a1.448,1.448,0,0,0-.184.788l.03.535a1.443,1.443,0,0,0,.994,1.293h0a1.438,1.438,0,0,0,1.511-.4c1.116-1.228,3.528-3.687,5.159-3.959a38.315,38.315,0,0,1,5.328-.267,1.8,1.8,0,0,1,1.675,1.153h0c-.968.07-7.713,3.587-10.1,4.846a2.554,2.554,0,0,0-1.389,1.921c-.087.747.29,1.53,1.768,1.185a65.307,65.307,0,0,0,8.879-3.365s2.944-.841,4.852.5c2.683,1.892,3.912,2.587,6.216,1.823a19.515,19.515,0,0,0,4-1.86l4.539-.454S290.392,442.373,284.524,440.729Z" transform="translate(-249.654 -436.456)" fill="#ffbf9d"/>
                            </g>
                          </g>
                        </g>
                      </g>
                    </g>
                  </g>
                </g>
                <g id="Group_461" data-name="Group 461" transform="translate(3.352 5.904)">
                  <g id="Group_460" data-name="Group 460">
                    <g id="Group_459" data-name="Group 459">
                      <g id="Group_458" data-name="Group 458">
                        <g id="Group_457" data-name="Group 457">
                          <g id="Group_456" data-name="Group 456">
                            <g id="Group_455" data-name="Group 455">
                              <g id="Group_454" data-name="Group 454">
                                <path id="Path_2086" data-name="Path 2086" d="M270.288,448.042c-.011.049-.921-.242-2.439-.338a12.59,12.59,0,0,0-10.492,4.478c-.981,1.163-1.4,2.021-1.443,1.995a2.988,2.988,0,0,1,.289-.6,10.918,10.918,0,0,1,1.021-1.5,12.2,12.2,0,0,1,10.639-4.54,10.89,10.89,0,0,1,1.793.3A3.009,3.009,0,0,1,270.288,448.042Z" transform="translate(-255.913 -447.481)" fill="#ffbf9d"/>
                              </g>
                            </g>
                          </g>
                        </g>
                      </g>
                    </g>
                  </g>
                </g>
                <g id="Group_469" data-name="Group 469" transform="translate(1.349 2.679)">
                  <g id="Group_468" data-name="Group 468">
                    <g id="Group_467" data-name="Group 467">
                      <g id="Group_466" data-name="Group 466">
                        <g id="Group_465" data-name="Group 465">
                          <g id="Group_464" data-name="Group 464">
                            <g id="Group_463" data-name="Group 463">
                              <g id="Group_462" data-name="Group 462">
                                <path id="Path_2087" data-name="Path 2087" d="M267.176,442.092a10.663,10.663,0,0,0-2.539-.443,11.082,11.082,0,0,0-5.9,1.672,23.79,23.79,0,0,0-4.758,4.025l-1.3,1.386a3.831,3.831,0,0,1-.5.492,3.789,3.789,0,0,1,.426-.555c.287-.346.709-.842,1.249-1.44a21.867,21.867,0,0,1,4.758-4.118,10.8,10.8,0,0,1,6.038-1.635,7.213,7.213,0,0,1,1.884.345,4.426,4.426,0,0,1,.486.186C267.124,442.055,267.179,442.084,267.176,442.092Z" transform="translate(-252.173 -441.459)" fill="#ffbf9d"/>
                              </g>
                            </g>
                          </g>
                        </g>
                      </g>
                    </g>
                  </g>
                </g>
              </g>
              <g id="Group_494" data-name="Group 494" transform="translate(0 0.406)">
                <g id="Group_477" data-name="Group 477">
                  <g id="Group_476" data-name="Group 476">
                    <g id="Group_475" data-name="Group 475">
                      <g id="Group_474" data-name="Group 474">
                        <g id="Group_473" data-name="Group 473">
                          <g id="Group_472" data-name="Group 472">
                            <g id="Group_471" data-name="Group 471">
                              <path id="Path_2088" data-name="Path 2088" d="M178.335,441.487h5.753s12.982-4.69,15.652-4.243c2.4.4,11.205,6.251,12.93,7.409a1.092,1.092,0,0,1,.417.532h0a1.887,1.887,0,0,1-1.05,2.4l-.182.075.079.263a3.128,3.128,0,0,1,.132,1.051,1.269,1.269,0,0,1-2.358.548l.332.59a1.442,1.442,0,0,1,.183.788l-.029.535a1.443,1.443,0,0,1-.995,1.293h0a1.438,1.438,0,0,1-1.511-.4c-1.116-1.228-3.528-3.687-5.158-3.96a38.3,38.3,0,0,0-5.329-.267,1.805,1.805,0,0,0-1.675,1.153h0c.968.07,7.713,3.587,10.1,4.846a2.555,2.555,0,0,1,1.388,1.921c.087.747-.29,1.53-1.768,1.185a65.23,65.23,0,0,1-8.879-3.365s-2.944-.841-4.852.505c-2.682,1.892-3.912,2.587-6.216,1.823a19.513,19.513,0,0,1-4-1.86l-4.539-.454S172.467,443.131,178.335,441.487Z" transform="translate(-175.245 -437.214)" fill="#ffa791"/>
                            </g>
                          </g>
                        </g>
                      </g>
                    </g>
                  </g>
                </g>
                <g id="Group_485" data-name="Group 485" transform="translate(20.233 5.904)">
                  <g id="Group_484" data-name="Group 484">
                    <g id="Group_483" data-name="Group 483">
                      <g id="Group_482" data-name="Group 482">
                        <g id="Group_481" data-name="Group 481">
                          <g id="Group_480" data-name="Group 480">
                            <g id="Group_479" data-name="Group 479">
                              <g id="Group_478" data-name="Group 478">
                                <path id="Path_2089" data-name="Path 2089" d="M213.028,448.8c.011.049.921-.242,2.439-.338a12.59,12.59,0,0,1,10.493,4.478c.981,1.162,1.4,2.021,1.443,1.995a2.985,2.985,0,0,0-.289-.6,10.973,10.973,0,0,0-1.021-1.5,12.206,12.206,0,0,0-10.639-4.54,10.883,10.883,0,0,0-1.792.3A2.97,2.97,0,0,0,213.028,448.8Z" transform="translate(-213.028 -448.239)" fill="#ffbf9d"/>
                              </g>
                            </g>
                          </g>
                        </g>
                      </g>
                    </g>
                  </g>
                </g>
                <g id="Group_493" data-name="Group 493" transform="translate(21.607 2.679)">
                  <g id="Group_492" data-name="Group 492">
                    <g id="Group_491" data-name="Group 491">
                      <g id="Group_490" data-name="Group 490">
                        <g id="Group_489" data-name="Group 489">
                          <g id="Group_488" data-name="Group 488">
                            <g id="Group_487" data-name="Group 487">
                              <g id="Group_486" data-name="Group 486">
                                <path id="Path_2090" data-name="Path 2090" d="M215.595,442.85a10.6,10.6,0,0,1,2.539-.443,11.072,11.072,0,0,1,5.9,1.672A23.785,23.785,0,0,1,228.8,448.1l1.3,1.386a3.887,3.887,0,0,0,.5.492,3.851,3.851,0,0,0-.427-.555c-.287-.346-.708-.842-1.248-1.44a21.858,21.858,0,0,0-4.759-4.118,10.8,10.8,0,0,0-6.037-1.635,7.212,7.212,0,0,0-1.884.345,4.4,4.4,0,0,0-.486.187C215.647,442.813,215.592,442.842,215.595,442.85Z" transform="translate(-215.595 -442.217)" fill="#ffbf9d"/>
                              </g>
                            </g>
                          </g>
                        </g>
                      </g>
                    </g>
                  </g>
                </g>
              </g>
            </g>
            <g id="Group_509" data-name="Group 509" transform="translate(42.419 109.082)">
              <g id="Group_504" data-name="Group 504">
                <g id="Group_503" data-name="Group 503">
                  <g id="Group_498" data-name="Group 498" transform="translate(0.126 0.162)">
                    <g id="Group_497" data-name="Group 497">
                      <g id="Group_496" data-name="Group 496">
                        <path id="Path_2091" data-name="Path 2091" d="M193.381,429.263h66.036a3.5,3.5,0,0,0,3.5-3.353l1.982-45.452a3.506,3.506,0,0,0-3.5-3.658H191.53a3.5,3.5,0,0,0-3.5,3.648l1.852,45.452A3.505,3.505,0,0,0,193.381,429.263Z" transform="translate(-188.024 -376.8)" fill="#e0e0e0"/>
                      </g>
                    </g>
                  </g>
                  <g id="Group_502" data-name="Group 502">
                    <g id="Group_501" data-name="Group 501">
                      <g id="Group_500" data-name="Group 500">
                        <g id="Group_499" data-name="Group 499">
                          <path id="Path_2092" data-name="Path 2092" d="M193.272,429.122s-.054,0-.162,0a2.989,2.989,0,0,1-.48-.044,3.459,3.459,0,0,1-1.692-.809,3.587,3.587,0,0,1-1.225-2.741c-.054-1.212-.116-2.609-.185-4.181-.268-6.3-.656-15.4-1.136-26.648q-.177-4.22-.37-8.83-.1-2.3-.2-4.7c-.012-.4-.047-.79-.033-1.215a3.732,3.732,0,0,1,.288-1.219,3.616,3.616,0,0,1,1.712-1.822,3.652,3.652,0,0,1,1.233-.368c.439-.036.847-.017,1.271-.022l2.545,0,5.212,0,10.879-.007,48.438-.012h1.609a4.111,4.111,0,0,1,1.632.249,3.668,3.668,0,0,1,2.188,2.365,4.287,4.287,0,0,1,.134,1.626l-.069,1.581q-.069,1.579-.138,3.147-.275,6.27-.541,12.347c-.356,8.095-.7,15.9-1.027,23.341q-.062,1.394-.123,2.772-.03.688-.061,1.372a5.059,5.059,0,0,1-.182,1.384,3.659,3.659,0,0,1-1.731,2.126,3.617,3.617,0,0,1-1.316.422c-.467.048-.9.021-1.343.028l-10.262-.008-18.419-.019-26.671-.051-7.251-.03-1.886-.015c-.425-.005-.643-.017-.643-.017s.218-.011.643-.016l1.886-.016,7.251-.03,26.671-.05,18.419-.02,10.262-.008c.438-.006.893.017,1.309-.028a3.319,3.319,0,0,0,1.213-.391,3.366,3.366,0,0,0,1.593-1.961,4.783,4.783,0,0,0,.168-1.313q.03-.683.059-1.372.059-1.377.119-2.772c.322-7.439.659-15.247,1.009-23.342q.263-6.072.536-12.348.068-1.568.136-3.147l.069-1.582a3.965,3.965,0,0,0-.122-1.521,3.348,3.348,0,0,0-2-2.159,3.766,3.766,0,0,0-1.517-.228H259.37l-48.438-.013-10.879-.006-5.212,0-2.545,0c-.418,0-.849-.014-1.242.019a3.387,3.387,0,0,0-2.735,2.026,3.482,3.482,0,0,0-.269,1.131c-.014.381.019.795.031,1.19q.095,2.394.186,4.7l.35,8.831c.437,11.248.79,20.352,1.035,26.652.058,1.572.111,2.97.156,4.182a3.522,3.522,0,0,0,1.173,2.7,3.48,3.48,0,0,0,1.656.825C193.053,429.126,193.274,429.106,193.272,429.122Z" transform="translate(-187.79 -376.498)" fill="none"/>
                        </g>
                      </g>
                    </g>
                  </g>
                </g>
              </g>
              <g id="Group_508" data-name="Group 508" transform="translate(34.954 23.578)">
                <g id="Group_507" data-name="Group 507">
                  <g id="Group_506" data-name="Group 506">
                    <g id="Group_505" data-name="Group 505">
                      <path id="Path_2093" data-name="Path 2093" d="M253.064,424.145a3.617,3.617,0,1,0,3.617-3.617A3.617,3.617,0,0,0,253.064,424.145Z" transform="translate(-253.064 -420.528)" fill="#fff"/>
                    </g>
                  </g>
                </g>
              </g>
            </g>
          </g>
        </g>
      </g>
    </g>
  </g>
</svg>
