<svg id="user-engagement" xmlns="http://www.w3.org/2000/svg" width="107.328" height="107.328" viewBox="0 0 107.328 107.328">
  <path id="Path_278" data-name="Path 278" d="M16.906,1A12.486,12.486,0,1,0,29.392,13.486,12.5,12.5,0,0,0,16.906,1Z" transform="translate(7.815 -1)" fill="#02bf8c"/>
  <path id="Path_279" data-name="Path 279" d="M4.578,36.808H46.829a3.565,3.565,0,0,0,3.578-3.578A24.506,24.506,0,0,0,25.936,8.76h-.465A24.506,24.506,0,0,0,1,33.231,3.588,3.588,0,0,0,4.578,36.808Z" transform="translate(-1 19.002)" fill="#02bf8c"/>
  <path id="Path_280" data-name="Path 280" d="M33.086,15.4A12.486,12.486,0,1,0,45.572,27.886,12.52,12.52,0,0,0,33.086,15.4Z" transform="translate(49.521 36.117)" fill="#02bf8c"/>
  <path id="Path_281" data-name="Path 281" d="M20.768,51.208H63.019A3.588,3.588,0,0,0,66.6,47.631,24.506,24.506,0,0,0,42.126,23.16h-.465A24.506,24.506,0,0,0,17.19,47.631,3.565,3.565,0,0,0,20.768,51.208Z" transform="translate(40.731 56.119)" fill="#02bf8c"/>
  <path id="Path_282" data-name="Path 282" d="M40.043,10.646A10.744,10.744,0,0,1,50.776,21.379V36.36a3.578,3.578,0,0,0,7.155,0V21.379A17.909,17.909,0,0,0,40.043,3.491H18.578a3.578,3.578,0,0,0,0,7.155Z" transform="translate(35.086 5.421)" fill="#2b225c"/>
  <path id="Path_283" data-name="Path 283" d="M8.578,18.321A3.577,3.577,0,0,0,5,21.9V36.88A17.909,17.909,0,0,0,22.888,54.768H39.274a3.578,3.578,0,1,0,0-7.155H22.888A10.744,10.744,0,0,1,12.155,36.88V21.9A3.577,3.577,0,0,0,8.578,18.321Z" transform="translate(9.31 43.647)" fill="#2b225c"/>
</svg>
