<svg id="Ferrari_Logo" data-name="Ferrari Logo" xmlns="http://www.w3.org/2000/svg" width="182.468" height="39.671" viewBox="0 0 182.468 39.671">
  <path id="Path_2166" data-name="Path 2166" d="M287.82,235.755v-3.808h2.115c1.057,0,3.174-.212,3.174-2.75h0V206.349h0c0-1.375-.106-4.654-2.75-4.654h-2.433l2.75-4.867h162.73v4.867H303.686c-1.375,0-3.174.317-3.174,3.067h0v7.193h0c.318.846,1.587,1.164,2.222,1.164s2.856-.106,2.856-3.6h3.174v11.742H305.59a3.365,3.365,0,0,0-2.75-2.962c-1.269-.106-2.327.317-2.327,2.01h0V229.2h0c0,.952,1.164,2.75,3.914,2.75h1.9v3.808Z" transform="translate(-287.82 -196.613)" fill="silver" fill-rule="evenodd"/>
  <path id="Path_2167" data-name="Path 2167" d="M383.869,207.436c0,.847,1.058,1.693,1.692,1.9.741-.529,4.654-2.749,7.722-2.749s4.654,1.587,4.654,4.019h0v11.636h-7.4v-8.991h0c0-1.164-.317-2.009-1.374-2.115s-3.809,2.115-4.549,3.174h0V230.39h0a2.76,2.76,0,0,0,2.75,2.539h0V236h-12.9v-3.173h0c1.269,0,2.644-.423,2.749-2.327h0V212.619h0a2.643,2.643,0,0,0-2.749-2.01h0v-3.174Z" transform="translate(-289.959 -196.854)" fill="silver" fill-rule="evenodd"/>
  <path id="Path_2168" data-name="Path 2168" d="M474.579,207.457h-12.9v3.174h0a2.643,2.643,0,0,1,2.749,2.01h0v17.876h0c-.105,1.9-1.48,2.327-2.749,2.327h0v3.173h12.9V232.95h0a2.761,2.761,0,0,1-2.75-2.539h0v-17.56h0c0-1.269,1.375-2.221,2.75-2.221h0v-3.174Z" transform="translate(-292.112 -196.876)" fill="silver" fill-rule="evenodd"/>
  <path id="Path_2169" data-name="Path 2169" d="M354.586,207.436c0,.847,1.057,1.693,1.692,1.9.74-.529,4.654-2.749,7.722-2.749s4.654,1.587,4.654,4.019h0v11.636h-7.4v-8.991h0c0-1.164-.318-2.009-1.375-2.115s-3.809,2.115-4.549,3.174h0V230.39h0a2.76,2.76,0,0,0,2.75,2.539h0V236H345.171v-3.173h0c1.27,0,2.645-.423,2.75-2.327h0V212.619h0a2.644,2.644,0,0,0-2.75-2.01h0v-3.174Z" transform="translate(-289.236 -196.854)" fill="silver" fill-rule="evenodd"/>
  <path id="Path_2170" data-name="Path 2170" d="M442.565,207.436c0,.847,1.058,1.693,1.693,1.9.74-.529,4.653-2.749,7.722-2.749s4.654,1.587,4.654,4.019h0v11.636h-7.4v-8.991h0c0-1.164-.318-2.009-1.375-2.115s-3.808,2.115-4.549,3.174h0V230.39h0a2.761,2.761,0,0,0,2.75,2.539h0V236h-12.9v-3.173h0c1.269,0,2.644-.423,2.749-2.327h0V212.619h0a2.643,2.643,0,0,0-2.749-2.01h0v-3.174Z" transform="translate(-291.407 -196.854)" fill="silver" fill-rule="evenodd"/>
  <path id="Path_2171" data-name="Path 2171" d="M338.861,227.111h-7.4v2.856h0c0,1.164-.212,3.6-3.7,3.6s-4.549-2.327-4.549-4.02h0v-6.029h0a1.262,1.262,0,0,1,1.164-1.269h14.492v-7.722h0c0-3.491-.74-4.549-2.222-6.029s-6.664-1.9-8.991-1.9c-5.923,0-7.827.846-9.52,2.221s-2.327,4.231-2.327,6.347h0v11.952h0c0,3.173.635,5.394,2.645,7.4s8.145,2.009,9.414,2.009,5.5.106,8.568-2.115,2.433-7.3,2.433-7.3Zm-15.656-13.117c0-1.692.53-4.231,4.232-4.231s4.019,2.75,4.019,4.231h0V217.8h0a1.287,1.287,0,0,1-1.27,1.269h-5.711a1.27,1.27,0,0,1-1.27-1.164h0v-3.914Z" transform="translate(-288.511 -196.854)" fill="silver" fill-rule="evenodd"/>
  <path id="Path_2172" data-name="Path 2172" d="M425.848,230.376V214.51h0c0-2.433-.105-4.972-2.644-6.77s-6.664-1.693-8.251-1.693-6.875,0-9.308,2.75a8.192,8.192,0,0,0-2.009,6.453h6.928s.477-3.6,1.429-4.549a4.14,4.14,0,0,1,5.447-.317,2.923,2.923,0,0,1,1,2.327h0v4.548h0a1.124,1.124,0,0,1-.952,1.058s-9.625.212-11.318,1.481S403,221.913,403,226.569s1.164,6.453,2.539,7.4,2.009,2.009,8.25,2.009H428.6v-3.067h0a2.761,2.761,0,0,1-2.75-2.539Zm-7.4,1.8a.852.852,0,0,1-.74.635h-3.65a3.332,3.332,0,0,1-3.332-3.6h0v-4.072h0c0-3.968,4.126-3.861,5.765-3.861s1.956,1.375,1.956,2.274h0v8.621Z" transform="translate(-290.663 -196.841)" fill="silver" fill-rule="evenodd"/>
  <path id="Path_2173" data-name="Path 2173" d="M467.622,201.637c3.7,0,6.7-1.126,6.7-2.514s-3-2.514-6.7-2.514-6.7,1.126-6.7,2.514,3,2.514,6.7,2.514Z" transform="translate(-292.093 -196.608)" fill="silver" fill-rule="evenodd"/>
</svg>
