<svg id="Github" xmlns="http://www.w3.org/2000/svg" width="146.179" height="39.531" viewBox="0 0 146.179 39.531">
  <path id="Path_2144" data-name="Path 2144" d="M136.063,112.217H123.779a.574.574,0,0,0-.574.574V118.8a.575.575,0,0,0,.574.575h4.792v7.461a14.508,14.508,0,0,1-4.05.367c-3.51,0-8.412-1.282-8.412-12.063s5.105-12.2,9.9-12.2a19.422,19.422,0,0,1,7.073,1.082.578.578,0,0,0,.688-.564l1.37-5.8a.535.535,0,0,0-.219-.448c-.462-.33-3.28-1.906-10.4-1.906-8.2,0-16.612,3.489-16.612,20.261s9.631,19.271,17.746,19.271a19.98,19.98,0,0,0,10.8-2.871.493.493,0,0,0,.186-.435V112.791A.574.574,0,0,0,136.063,112.217Z" transform="translate(-107.908 -95.297)" fill="silver"/>
  <path id="Path_2145" data-name="Path 2145" d="M293.888,99.4a.572.572,0,0,0-.57-.578H286.4a.575.575,0,0,0-.573.578l0,13.366H275.049V99.4a.573.573,0,0,0-.571-.578h-6.916a.574.574,0,0,0-.571.578V135.6a.576.576,0,0,0,.571.579h6.916a.575.575,0,0,0,.571-.579V120.115H285.83l-.019,15.481a.577.577,0,0,0,.573.579h6.933a.574.574,0,0,0,.571-.579Z" transform="translate(-202.428 -97.394)" fill="silver"/>
  <g id="Group_574" data-name="Group 574" transform="translate(32.287 2.256)">
    <g id="Group_573" data-name="Group 573" transform="translate(0 0)">
      <path id="Path_2146" data-name="Path 2146" d="M196.382,105.358a4.46,4.46,0,1,0-4.46,4.506A4.479,4.479,0,0,0,196.382,105.358Z" transform="translate(-187.463 -100.855)" fill="silver"/>
      <path id="Path_2147" data-name="Path 2147" d="M196.413,145.312V128.606a.575.575,0,0,0-.572-.577h-6.895a.66.66,0,0,0-.6.644v23.935c0,.7.438.913,1.005.913h6.212c.681,0,.849-.335.849-.924Z" transform="translate(-187.988 -117.001)" fill="silver"/>
    </g>
  </g>
  <path id="Path_2148" data-name="Path 2148" d="M364.517,128.163h-6.863a.576.576,0,0,0-.571.579v17.746a7.756,7.756,0,0,1-4.219,1.276c-2.474,0-3.131-1.123-3.131-3.546V128.742a.575.575,0,0,0-.571-.579H342.2a.577.577,0,0,0-.572.579v16.648c0,7.2,4.011,8.958,9.53,8.958a16.088,16.088,0,0,0,8.177-2.5,14.589,14.589,0,0,0,.252,1.474.606.606,0,0,0,.505.313l4.431-.02a.576.576,0,0,0,.572-.578l0-24.3A.576.576,0,0,0,364.517,128.163Z" transform="translate(-246.772 -114.825)" fill="silver"/>
  <path id="Path_2149" data-name="Path 2149" d="M422.839,109.919a12.9,12.9,0,0,0-6.55,1.739V99.4a.573.573,0,0,0-.571-.578h-6.936a.574.574,0,0,0-.571.578V135.6a.576.576,0,0,0,.573.579H413.6a.574.574,0,0,0,.5-.307,11.309,11.309,0,0,0,.292-1.669,12.41,12.41,0,0,0,8.205,2.688c6.3,0,9.918-3.2,9.918-14.353S426.74,109.919,422.839,109.919Zm-2.707,20.392a8.234,8.234,0,0,1-4-1.153V117.7a9.146,9.146,0,0,1,3.547-1.151c2.472-.221,4.853.525,4.853,6.421C424.537,129.184,423.462,130.412,420.132,130.311Z" transform="translate(-286.335 -97.394)" fill="silver"/>
  <path id="Path_2150" data-name="Path 2150" d="M231.847,117.417h-5.188l-.008-6.854c0-.26-.134-.389-.434-.389h-7.07c-.275,0-.423.121-.423.385v7.083s-3.543.856-3.783.925a.575.575,0,0,0-.414.552v4.451a.574.574,0,0,0,.572.578h3.625v10.708c0,7.953,5.579,8.735,9.343,8.735a15.785,15.785,0,0,0,4.118-.678.535.535,0,0,0,.325-.519l.006-4.9a.584.584,0,0,0-.573-.578c-.3,0-1.076.123-1.872.123-2.548,0-3.412-1.185-3.412-2.719s0-10.176,0-10.176h5.189a.575.575,0,0,0,.572-.578v-5.575A.574.574,0,0,0,231.847,117.417Z" transform="translate(-171.257 -104.136)" fill="silver"/>
</svg>
